<?xml version="1.0" standalone="no"?>
<!DOCTYPE svg PUBLIC "-//W3C//DTD SVG 20010904//EN"
 "http://www.w3.org/TR/2001/REC-SVG-20010904/DTD/svg10.dtd">
<svg version="1.0" xmlns="http://www.w3.org/2000/svg"
 width="300.000000pt" height="196.000000pt" viewBox="0 0 300.000000 196.000000"
 preserveAspectRatio="xMidYMid meet">
<metadata>
Created by potrace 1.10, written by Peter Selinger 2001-2011
</metadata>
<g transform="translate(0.000000,196.000000) scale(0.100000,-0.100000)"
fill="#000000" stroke="none">
<path d="M191 1944 c0 -11 3 -14 6 -6 3 7 2 16 -1 19 -3 4 -6 -2 -5 -13z"/>
<path d="M1210 1950 c0 -5 5 -10 10 -10 6 0 10 5 10 10 0 6 -4 10 -10 10 -5 0
-10 -4 -10 -10z"/>
<path d="M1250 1949 c0 -5 5 -7 10 -4 6 3 10 8 10 11 0 2 -4 4 -10 4 -5 0 -10
-5 -10 -11z"/>
<path d="M1348 1953 c7 -3 16 -2 19 1 4 3 -2 6 -13 5 -11 0 -14 -3 -6 -6z"/>
<path d="M1645 1950 c3 -5 8 -10 11 -10 2 0 4 5 4 10 0 6 -5 10 -11 10 -5 0
-7 -4 -4 -10z"/>
<path d="M1820 1950 c8 -5 20 -10 25 -10 6 0 3 5 -5 10 -8 5 -19 10 -25 10 -5
0 -3 -5 5 -10z"/>
<path d="M1900 1956 c0 -4 7 -14 15 -22 8 -9 15 -11 15 -6 0 5 -7 15 -15 22
-8 7 -15 9 -15 6z"/>
<path d="M2600 1950 c-8 -5 -12 -12 -9 -15 4 -3 12 1 19 10 14 17 11 19 -10 5z"/>
<path d="M105 1930 c-16 -17 -16 -20 -3 -15 9 4 19 13 22 21 7 19 2 18 -19 -6z"/>
<path d="M335 1940 c3 -5 8 -10 11 -10 2 0 4 5 4 10 0 6 -5 10 -11 10 -5 0 -7
-4 -4 -10z"/>
<path d="M396 1935 c4 -8 10 -12 15 -9 11 6 2 24 -11 24 -5 0 -7 -7 -4 -15z"/>
<path d="M824 1939 c-3 -6 -1 -16 5 -22 8 -8 11 -5 11 11 0 24 -5 28 -16 11z"/>
<path d="M1315 1940 c3 -5 8 -10 11 -10 2 0 4 5 4 10 0 6 -5 10 -11 10 -5 0
-7 -4 -4 -10z"/>
<path d="M2325 1940 c3 -5 8 -10 11 -10 2 0 4 5 4 10 0 6 -5 10 -11 10 -5 0
-7 -4 -4 -10z"/>
<path d="M2715 1940 c3 -5 8 -10 11 -10 2 0 4 5 4 10 0 6 -5 10 -11 10 -5 0
-7 -4 -4 -10z"/>
<path d="M2810 1926 c0 -31 6 -34 13 -6 3 11 1 23 -4 26 -5 3 -9 -6 -9 -20z"/>
<path d="M2946 1943 c5 -5 12 -12 16 -18 4 -6 8 -2 8 8 0 9 -7 17 -17 17 -9 0
-12 -3 -7 -7z"/>
<path d="M150 1930 c0 -5 5 -10 11 -10 5 0 7 5 4 10 -3 6 -8 10 -11 10 -2 0
-4 -4 -4 -10z"/>
<path d="M577 1929 c7 -7 15 -10 18 -7 3 3 -2 9 -12 12 -14 6 -15 5 -6 -5z"/>
<path d="M920 1936 c0 -2 8 -10 18 -17 15 -13 16 -12 3 4 -13 16 -21 21 -21
13z"/>
<path d="M1090 1929 c0 -5 5 -7 10 -4 6 3 10 8 10 11 0 2 -4 4 -10 4 -5 0 -10
-5 -10 -11z"/>
<path d="M2090 1930 c0 -5 5 -10 10 -10 6 0 10 5 10 10 0 6 -4 10 -10 10 -5 0
-10 -4 -10 -10z"/>
<path d="M2670 1931 c0 -6 -10 -12 -22 -12 -17 -1 -18 -3 -6 -6 23 -6 55 12
39 21 -6 4 -11 2 -11 -3z"/>
<path d="M2840 1930 c0 -5 5 -10 10 -10 6 0 10 5 10 10 0 6 -4 10 -10 10 -5 0
-10 -4 -10 -10z"/>
<path d="M2903 1923 c0 -12 3 -20 6 -18 2 3 10 -3 17 -13 7 -9 13 -12 13 -7 1
6 -8 21 -19 35 -19 24 -19 24 -17 3z"/>
<path d="M523 1923 c-19 -7 -16 -19 6 -19 11 0 17 5 14 13 -3 7 -6 13 -7 12 0
0 -7 -3 -13 -6z"/>
<path d="M1779 1913 c-13 -16 -12 -17 4 -4 9 7 17 15 17 17 0 8 -8 3 -21 -13z"/>
<path d="M1858 1923 c7 -3 16 -2 19 1 4 3 -2 6 -13 5 -11 0 -14 -3 -6 -6z"/>
<path d="M2375 1920 c3 -5 8 -10 11 -10 2 0 4 5 4 10 0 6 -5 10 -11 10 -5 0
-7 -4 -4 -10z"/>
<path d="M2490 1910 c0 -13 18 -22 24 -11 3 5 -1 11 -9 15 -8 3 -15 1 -15 -4z"/>
<path d="M2734 1905 c21 -16 32 -13 21 4 -3 6 -14 11 -23 11 -15 -1 -15 -2 2
-15z"/>
<path d="M2770 1910 c0 -5 5 -10 11 -10 5 0 7 5 4 10 -3 6 -8 10 -11 10 -2 0
-4 -4 -4 -10z"/>
<path d="M1660 1900 c0 -5 5 -10 10 -10 6 0 10 5 10 10 0 6 -4 10 -10 10 -5 0
-10 -4 -10 -10z"/>
<path d="M375 1890 c3 -5 8 -10 11 -10 2 0 4 5 4 10 0 6 -5 10 -11 10 -5 0 -7
-4 -4 -10z"/>
<path d="M890 1890 c0 -5 5 -10 11 -10 5 0 7 5 4 10 -3 6 -8 10 -11 10 -2 0
-4 -4 -4 -10z"/>
<path d="M2160 1883 c0 -10 4 -14 8 -8 4 6 11 13 16 18 5 4 2 7 -7 7 -10 0
-17 -8 -17 -17z"/>
<path d="M2266 1892 c-3 -5 1 -9 9 -9 8 0 12 4 9 9 -3 4 -7 8 -9 8 -2 0 -6 -4
-9 -8z"/>
<path d="M2405 1890 c3 -5 8 -10 11 -10 2 0 4 5 4 10 0 6 -5 10 -11 10 -5 0
-7 -4 -4 -10z"/>
<path d="M2590 1889 c0 -5 5 -7 10 -4 6 3 10 8 10 11 0 2 -4 4 -10 4 -5 0 -10
-5 -10 -11z"/>
<path d="M129 1881 c11 -7 10 -11 -5 -20 -11 -6 -14 -11 -8 -11 6 0 17 6 23
13 11 14 5 27 -13 27 -6 0 -5 -4 3 -9z"/>
<path d="M341 1874 c0 -11 3 -14 6 -6 3 7 2 16 -1 19 -3 4 -6 -2 -5 -13z"/>
<path d="M635 1880 c-3 -5 1 -10 9 -10 9 0 16 5 16 10 0 6 -4 10 -9 10 -6 0
-13 -4 -16 -10z"/>
<path d="M1790 1880 c-8 -5 -10 -10 -5 -10 6 0 17 5 25 10 8 5 11 10 5 10 -5
0 -17 -5 -25 -10z"/>
<path d="M2015 1880 c3 -5 11 -10 16 -10 6 0 7 5 4 10 -3 6 -11 10 -16 10 -6
0 -7 -4 -4 -10z"/>
<path d="M2446 1881 c-4 -5 3 -7 14 -4 23 6 26 13 6 13 -8 0 -17 -4 -20 -9z"/>
<path d="M2667 1869 c4 -13 9 -17 15 -11 11 11 3 32 -12 32 -4 0 -6 -9 -3 -21z"/>
<path d="M2795 1880 c3 -5 1 -10 -4 -10 -6 0 -11 -4 -11 -10 0 -5 7 -7 15 -4
17 7 21 34 4 34 -5 0 -7 -4 -4 -10z"/>
<path d="M2836 1881 c-3 -5 1 -11 9 -14 9 -4 12 -1 8 9 -6 16 -10 17 -17 5z"/>
<path d="M2875 1879 c4 -5 1 -16 -5 -24 -7 -8 -8 -15 -4 -15 5 0 15 9 21 19
10 16 9 20 -3 25 -9 3 -12 2 -9 -5z"/>
<path d="M190 1870 c0 -5 5 -10 11 -10 5 0 7 5 4 10 -3 6 -8 10 -11 10 -2 0
-4 -4 -4 -10z"/>
<path d="M794 1864 c-18 -14 -18 -15 4 -4 12 6 22 13 22 15 0 8 -5 6 -26 -11z"/>
<path d="M1440 1870 c0 -5 5 -10 10 -10 6 0 10 5 10 10 0 6 -4 10 -10 10 -5 0
-10 -4 -10 -10z"/>
<path d="M1640 1870 c0 -5 5 -10 10 -10 6 0 10 5 10 10 0 6 -4 10 -10 10 -5 0
-10 -4 -10 -10z"/>
<path d="M2385 1870 c3 -5 8 -10 11 -10 2 0 4 5 4 10 0 6 -5 10 -11 10 -5 0
-7 -4 -4 -10z"/>
<path d="M2750 1869 c0 -5 5 -7 10 -4 6 3 10 8 10 11 0 2 -4 4 -10 4 -5 0 -10
-5 -10 -11z"/>
<path d="M1820 1859 c0 -5 5 -7 10 -4 6 3 10 8 10 11 0 2 -4 4 -10 4 -5 0 -10
-5 -10 -11z"/>
<path d="M2185 1860 c-3 -5 1 -10 9 -10 9 0 16 5 16 10 0 6 -4 10 -9 10 -6 0
-13 -4 -16 -10z"/>
<path d="M2300 1859 c0 -5 5 -7 10 -4 6 3 10 8 10 11 0 2 -4 4 -10 4 -5 0 -10
-5 -10 -11z"/>
<path d="M2575 1860 c-3 -5 -1 -10 4 -10 6 0 11 5 11 10 0 6 -2 10 -4 10 -3 0
-8 -4 -11 -10z"/>
<path d="M2622 1845 c6 -14 15 -25 20 -25 5 0 1 11 -8 25 -9 14 -18 25 -20 25
-2 0 2 -11 8 -25z"/>
<path d="M535 1850 c-3 -5 -1 -10 4 -10 6 0 11 5 11 10 0 6 -2 10 -4 10 -3 0
-8 -4 -11 -10z"/>
<path d="M1070 1849 c0 -5 5 -7 10 -4 6 3 10 8 10 11 0 2 -4 4 -10 4 -5 0 -10
-5 -10 -11z"/>
<path d="M1865 1850 c-3 -5 -1 -10 4 -10 6 0 11 5 11 10 0 6 -2 10 -4 10 -3 0
-8 -4 -11 -10z"/>
<path d="M2037 1849 c7 -7 15 -10 18 -7 3 3 -2 9 -12 12 -14 6 -15 5 -6 -5z"/>
<path d="M2345 1850 c3 -5 8 -10 11 -10 2 0 4 5 4 10 0 6 -5 10 -11 10 -5 0
-7 -4 -4 -10z"/>
<path d="M2460 1853 c8 -3 21 -12 27 -21 7 -9 15 -13 18 -10 9 9 -25 38 -43
37 -14 0 -14 -2 -2 -6z"/>
<path d="M2905 1850 c-3 -5 -1 -10 4 -10 6 0 11 5 11 10 0 6 -2 10 -4 10 -3 0
-8 -4 -11 -10z"/>
<path d="M35 1840 c-3 -5 -1 -10 4 -10 6 0 11 5 11 10 0 6 -2 10 -4 10 -3 0
-8 -4 -11 -10z"/>
<path d="M1394 1838 c3 -15 26 -23 26 -8 0 6 -4 9 -9 6 -5 -4 -12 -1 -14 4 -3
6 -4 5 -3 -2z"/>
<path d="M1725 1840 c3 -5 11 -10 16 -10 6 0 7 5 4 10 -3 6 -11 10 -16 10 -6
0 -7 -4 -4 -10z"/>
<path d="M2258 1843 c6 -2 18 -2 25 0 6 3 1 5 -13 5 -14 0 -19 -2 -12 -5z"/>
<path d="M340 1825 c-7 -9 -8 -15 -2 -15 5 0 12 7 16 15 3 8 4 15 2 15 -2 0
-9 -7 -16 -15z"/>
<path d="M825 1830 c-3 -5 -1 -10 4 -10 6 0 11 5 11 10 0 6 -2 10 -4 10 -3 0
-8 -4 -11 -10z"/>
<path d="M1267 1829 c7 -7 15 -10 18 -7 3 3 -2 9 -12 12 -14 6 -15 5 -6 -5z"/>
<path d="M2110 1836 c0 -2 7 -6 15 -10 8 -3 15 -1 15 4 0 6 -7 10 -15 10 -8 0
-15 -2 -15 -4z"/>
<path d="M2220 1829 c0 -6 -6 -9 -14 -6 -15 6 -36 -11 -36 -27 0 -6 5 -3 11 6
5 9 15 15 23 12 7 -3 19 2 26 11 8 10 9 15 1 15 -6 0 -11 -5 -11 -11z"/>
<path d="M2383 1815 c13 -27 33 -35 23 -9 -3 9 -6 20 -6 25 0 5 -6 9 -14 9
-11 0 -12 -5 -3 -25z"/>
<path d="M2520 1830 c0 -5 5 -10 10 -10 6 0 10 5 10 10 0 6 -4 10 -10 10 -5 0
-10 -4 -10 -10z"/>
<path d="M2794 1828 c-5 -7 -2 -9 8 -5 9 3 21 0 27 -6 8 -8 11 -8 11 0 0 6 -7
14 -16 17 -21 8 -22 8 -30 -6z"/>
<path d="M1020 1816 c0 -9 5 -16 10 -16 6 0 10 4 10 9 0 6 -4 13 -10 16 -5 3
-10 -1 -10 -9z"/>
<path d="M1175 1820 c-3 -6 1 -7 9 -4 18 7 21 14 7 14 -6 0 -13 -4 -16 -10z"/>
<path d="M2427 1816 c-4 -10 -1 -13 9 -9 7 3 14 9 14 14 0 14 -17 10 -23 -5z"/>
<path d="M2555 1820 c-3 -5 1 -10 10 -10 9 0 13 5 10 10 -3 6 -8 10 -10 10 -2
0 -7 -4 -10 -10z"/>
<path d="M2677 1819 c7 -7 15 -10 18 -7 3 3 -2 9 -12 12 -14 6 -15 5 -6 -5z"/>
<path d="M2760 1820 c0 -5 5 -10 11 -10 5 0 7 5 4 10 -3 6 -8 10 -11 10 -2 0
-4 -4 -4 -10z"/>
<path d="M2950 1821 c0 -6 5 -13 10 -16 6 -3 10 1 10 9 0 9 -4 16 -10 16 -5 0
-10 -4 -10 -9z"/>
<path d="M605 1809 c-11 -16 -1 -19 13 -3 7 8 8 14 3 14 -5 0 -13 -5 -16 -11z"/>
<path d="M2285 1810 c3 -5 8 -10 11 -10 2 0 4 5 4 10 0 6 -5 10 -11 10 -5 0
-7 -4 -4 -10z"/>
<path d="M2465 1810 c-3 -5 -1 -10 4 -10 6 0 11 5 11 10 0 6 -2 10 -4 10 -3 0
-8 -4 -11 -10z"/>
<path d="M1930 1799 c0 -5 5 -7 10 -4 6 3 10 8 10 11 0 2 -4 4 -10 4 -5 0 -10
-5 -10 -11z"/>
<path d="M2880 1800 c0 -5 7 -10 16 -10 8 0 12 5 9 10 -3 6 -10 10 -16 10 -5
0 -9 -4 -9 -10z"/>
<path d="M783 1785 c-3 -9 -3 -19 1 -22 3 -4 6 1 6 10 0 8 6 18 13 20 9 4 9 6
-1 6 -7 1 -15 -6 -19 -14z"/>
<path d="M1758 1793 c7 -3 16 -2 19 1 4 3 -2 6 -13 5 -11 0 -14 -3 -6 -6z"/>
<path d="M2235 1790 c-3 -5 1 -10 9 -10 9 0 16 5 16 10 0 6 -4 10 -9 10 -6 0
-13 -4 -16 -10z"/>
<path d="M2504 1789 c-3 -6 -2 -15 3 -20 5 -5 9 -1 10 11 2 22 -2 25 -13 9z"/>
<path d="M2716 1785 c4 -8 11 -15 16 -15 6 0 5 6 -2 15 -7 8 -14 15 -16 15 -2
0 -1 -7 2 -15z"/>
<path d="M270 1775 c0 -8 2 -15 4 -15 2 0 6 7 10 15 3 8 1 15 -4 15 -6 0 -10
-7 -10 -15z"/>
<path d="M440 1780 c0 -5 5 -10 11 -10 5 0 7 5 4 10 -3 6 -8 10 -11 10 -2 0
-4 -4 -4 -10z"/>
<path d="M2115 1780 c-8 -13 5 -13 25 0 13 8 13 10 -2 10 -9 0 -20 -4 -23 -10z"/>
<path d="M2457 1783 c-4 -3 -7 -11 -7 -17 0 -6 5 -5 12 2 6 6 9 14 7 17 -3 3
-9 2 -12 -2z"/>
<path d="M2640 1781 c0 -10 19 -25 25 -20 1 2 -3 10 -11 17 -8 7 -14 8 -14 3z"/>
<path d="M382 1768 c-7 -7 -12 -16 -12 -20 0 -15 15 -8 28 12 13 22 3 27 -16
8z"/>
<path d="M517 1759 c4 -13 8 -18 11 -10 2 7 -1 18 -6 23 -8 8 -9 4 -5 -13z"/>
<path d="M2025 1770 c-3 -5 -1 -10 4 -10 6 0 11 5 11 10 0 6 -2 10 -4 10 -3 0
-8 -4 -11 -10z"/>
<path d="M2613 1766 c9 -10 17 -22 17 -27 0 -5 5 -9 11 -9 15 0 -13 42 -32 49
-9 3 -8 -1 4 -13z"/>
<path d="M2945 1770 c-3 -5 -1 -10 4 -10 6 0 11 5 11 10 0 6 -2 10 -4 10 -3 0
-8 -4 -11 -10z"/>
<path d="M668 1763 c6 -2 18 -2 25 0 6 3 1 5 -13 5 -14 0 -19 -2 -12 -5z"/>
<path d="M1250 1758 c-185 -7 -386 -22 -510 -39 -41 -5 -108 -14 -149 -19
-103 -14 -147 -47 -175 -133 -9 -27 -44 -331 -51 -439 -8 -126 -8 -540 0 -621
9 -93 39 -168 78 -194 58 -39 384 -86 755 -109 84 -5 112 -10 112 -21 0 -7 7
-13 16 -13 9 0 14 6 11 12 -3 10 55 13 272 12 369 -1 844 36 897 71 59 38 70
70 93 253 31 249 28 570 -9 931 -6 58 -18 121 -26 140 -29 69 -81 107 -156
115 -112 13 -339 36 -388 40 -30 3 -170 8 -310 11 -140 3 -262 7 -270 8 -8 1
-94 -1 -190 -5z m830 -33 c102 -9 192 -17 200 -20 8 -2 44 -7 80 -10 91 -9
125 -21 156 -58 39 -46 42 -61 59 -260 23 -270 21 -711 -5 -906 -9 -66 -40
-113 -83 -127 -14 -5 -16 -8 -7 -14 16 -10 -4 -16 -82 -25 -32 -3 -58 -11 -58
-16 0 -6 8 -8 18 -6 9 3 39 8 67 12 48 7 107 35 75 35 -9 1 -4 7 10 15 17 9
28 10 35 4 14 -15 -49 -69 -80 -69 -14 0 -25 -3 -25 -7 0 -5 -30 -8 -68 -8
-100 -1 -250 -17 -229 -24 10 -4 -30 -6 -90 -5 -59 1 -112 -1 -118 -4 -5 -3
-97 -5 -205 -4 -117 1 -189 -2 -181 -7 10 -7 7 -9 -12 -8 -15 1 -27 5 -27 10
0 4 -16 7 -35 7 -19 0 -35 -4 -35 -10 0 -5 -13 -8 -30 -7 -16 1 -30 5 -30 8 0
4 -9 9 -21 12 -16 4 -19 2 -15 -10 6 -14 4 -14 -18 0 -26 17 -236 33 -236 17
0 -11 -43 0 -52 14 -5 7 -12 5 -21 -7 -12 -17 -14 -17 -26 -3 -15 18 -41 22
-41 6 0 -15 -27 -12 -44 6 -17 16 -169 37 -160 22 9 -14 -7 -9 -23 8 -11 11
-31 15 -68 13 -28 -1 -56 0 -61 3 -5 4 -32 15 -61 26 -56 21 -119 65 -134 94
-16 30 -23 145 -23 388 -1 277 16 523 49 712 15 85 35 120 80 142 49 23 341
58 630 76 193 12 721 3 945 -15z m-1556 -1410 c19 -15 19 -15 -1 -15 -11 0
-26 7 -33 15 -17 20 7 20 34 0z m319 -52 c-7 -2 -19 -2 -25 0 -7 3 -2 5 12 5
14 0 19 -2 13 -5z m444 -39 c-3 -3 -12 -4 -19 -1 -8 3 -5 6 6 6 11 1 17 -2 13
-5z m320 -10 c-3 -3 -12 -4 -19 -1 -8 3 -5 6 6 6 11 1 17 -2 13 -5z m140 0
c-3 -3 -12 -4 -19 -1 -8 3 -5 6 6 6 11 1 17 -2 13 -5z"/>
<path d="M2200 1365 c-46 -103 -44 -106 43 -103 67 3 72 4 70 25 -3 31 -56
136 -71 141 -7 2 -24 -23 -42 -63z m97 -81 c-3 -3 -30 -4 -61 -2 l-56 3 31 65
31 65 30 -63 c16 -35 27 -66 25 -68z"/>
<path d="M1413 1411 c-77 -5 -107 -10 -119 -23 -14 -14 -18 -45 -22 -180 -6
-228 -38 -207 318 -213 157 -3 290 -2 297 2 9 6 8 16 -4 41 l-15 32 -109 0
c-108 0 -124 -5 -113 -34 8 -21 21 -20 28 2 5 13 15 18 36 17 33 -2 52 -15 33
-22 -7 -3 -13 -11 -13 -19 0 -8 -4 -14 -10 -14 -5 0 -7 6 -4 14 8 21 -17 32
-30 13 -11 -14 -48 -21 -103 -18 -17 1 -23 8 -26 34 l-4 32 -1 -30 -2 -30 -80
-3 -80 -3 -1 28 c-2 27 -2 27 -7 3 l-5 -25 -8 25 c-7 24 -7 24 -8 3 -1 -27
-29 -27 -55 -1 -14 15 -16 39 -14 178 2 101 7 159 13 157 6 -2 11 -16 13 -31
4 -28 23 -31 30 -5 3 11 2 11 -7 -1 -9 -12 -11 -11 -11 8 0 13 4 20 10 17 6
-3 10 -1 10 4 0 6 -8 12 -17 13 -57 5 182 16 347 16 222 0 364 -8 379 -23 9
-9 16 -173 12 -295 -1 -40 -4 -47 -31 -58 -34 -15 -50 -9 -50 18 0 14 9 20 38
23 20 2 1 4 -43 4 -44 0 -63 -2 -42 -4 32 -4 37 -8 37 -29 0 -15 -4 -23 -11
-19 -6 4 -8 13 -5 21 3 8 -1 14 -9 14 -8 0 -14 -3 -14 -7 3 -21 -2 -33 -12
-28 -6 4 -8 13 -5 21 6 15 -9 19 -18 5 -16 -26 6 -36 81 -36 104 0 105 1 101
207 -3 130 -6 160 -19 174 -29 28 -367 41 -656 25z m257 -361 c0 -5 -4 -10
-10 -10 -5 0 -10 5 -10 10 0 6 5 10 10 10 6 0 10 -4 10 -10z m130 -14 c0 -17
-7 -25 -23 -28 -21 -4 -24 -1 -23 24 1 22 6 28 24 28 17 0 22 -6 22 -24z m60
0 c0 -18 -5 -23 -25 -23 -20 0 -25 5 -25 23 0 19 5 24 25 24 20 0 25 -5 25
-24z m17 -18 c-3 -8 -6 -5 -6 6 -1 11 2 17 5 13 3 -3 4 -12 1 -19z m-167 3 c0
-6 -4 -13 -10 -16 -5 -3 -10 1 -10 9 0 9 5 16 10 16 6 0 10 -4 10 -9z"/>
<path d="M1577 1373 c-2 -5 -1 -19 4 -33 7 -23 7 -23 8 8 1 31 -3 40 -12 25z"/>
<path d="M1606 1373 c-12 -13 -6 -53 9 -53 9 0 15 9 15 24 0 26 -12 40 -24 29z
m11 -35 c-3 -8 -6 -5 -6 6 -1 11 2 17 5 13 3 -3 4 -12 1 -19z"/>
<path d="M1660 1371 c0 -6 5 -11 12 -11 9 0 9 -3 0 -12 -16 -16 -15 -28 2 -28
17 0 16 52 -1 58 -7 2 -13 -1 -13 -7z"/>
<path d="M1744 1354 c-7 -26 11 -49 28 -38 14 9 8 24 -7 18 -10 -4 -15 0 -15
11 0 11 5 15 15 11 8 -3 15 -1 15 3 0 5 -7 11 -15 15 -10 3 -17 -3 -21 -20z"/>
<path d="M1361 1343 c-1 -14 5 -23 14 -23 9 0 15 9 14 23 0 21 -1 21 -8 2 -8
-20 -8 -20 -13 0 -5 18 -6 18 -7 -2z"/>
<path d="M1402 1340 c0 -14 2 -19 5 -12 2 6 2 18 0 25 -3 6 -5 1 -5 -13z"/>
<path d="M1427 1340 c3 -11 7 -20 8 -20 1 0 5 9 8 20 3 12 0 20 -8 20 -8 0
-11 -8 -8 -20z"/>
<path d="M1460 1340 c0 -12 7 -20 18 -20 14 0 15 2 2 10 -13 9 -13 11 0 20 13
8 12 10 -2 10 -11 0 -18 -8 -18 -20z"/>
<path d="M1501 1336 c0 -13 3 -16 6 -7 5 11 7 11 14 0 7 -11 9 -9 9 7 0 12 -6
21 -15 21 -9 0 -15 -9 -14 -21z"/>
<path d="M1991 1328 c1 -18 2 -19 6 -5 2 9 9 14 15 11 7 -4 8 -2 4 4 -12 20
-26 13 -25 -10z"/>
<path d="M2030 1330 c0 -11 5 -20 10 -20 6 0 10 9 10 20 0 11 -4 20 -10 20 -5
0 -10 -9 -10 -20z"/>
<path d="M1328 1303 c12 -2 30 -2 40 0 9 3 -1 5 -23 4 -22 0 -30 -2 -17 -4z"/>
<path d="M1408 1303 c12 -2 30 -2 40 0 9 3 -1 5 -23 4 -22 0 -30 -2 -17 -4z"/>
<path d="M1523 1303 c15 -2 37 -2 50 0 12 2 0 4 -28 4 -27 0 -38 -2 -22 -4z"/>
<path d="M1628 1303 c7 -3 16 -2 19 1 4 3 -2 6 -13 5 -11 0 -14 -3 -6 -6z"/>
<path d="M1700 1306 c0 -2 11 -6 25 -8 13 -3 22 -1 19 3 -5 9 -44 13 -44 5z"/>
<path d="M1775 1300 c-3 -6 1 -7 9 -4 18 7 21 14 7 14 -6 0 -13 -4 -16 -10z"/>
<path d="M1413 1273 c-15 -5 -18 -43 -3 -43 5 0 7 6 4 14 -4 9 3 13 24 12 36
-1 32 -18 -15 -59 -48 -42 -44 -57 17 -57 41 0 48 3 43 16 -3 8 -11 13 -17 11
-40 -15 -56 -17 -56 -7 0 6 8 13 18 17 23 8 62 44 62 57 -1 30 -44 52 -77 39z"/>
<path d="M1518 1269 c-18 -10 -23 -96 -7 -115 14 -17 51 -18 67 -2 13 13 17
117 5 119 -5 0 -18 2 -30 3 -12 1 -28 -1 -35 -5z m50 -24 c5 -53 3 -67 -14
-80 -25 -19 -33 -18 -30 3 2 9 -2 21 -8 25 -8 6 -8 10 1 13 7 3 9 12 6 20 -3
8 4 17 18 23 13 5 24 10 25 10 0 1 1 -6 2 -14z"/>
<path d="M1602 1269 c2 -6 8 -10 13 -10 5 0 11 4 13 10 2 6 -4 11 -13 11 -9 0
-15 -5 -13 -11z"/>
<path d="M1641 1258 c-5 -13 -7 -26 -4 -30 6 -12 33 -9 33 3 0 5 -4 7 -10 4
-6 -3 -10 4 -10 17 0 18 2 20 10 8 6 -9 10 -10 10 -3 0 23 -20 24 -29 1z"/>
<path d="M1690 1261 c0 -12 5 -21 10 -21 6 0 10 6 10 14 0 8 -4 18 -10 21 -5
3 -10 -3 -10 -14z"/>
<path d="M1722 1260 c0 -14 2 -19 5 -12 2 6 2 18 0 25 -3 6 -5 1 -5 -13z"/>
<path d="M1822 1260 c0 -14 2 -19 5 -12 2 6 2 18 0 25 -3 6 -5 1 -5 -13z"/>
<path d="M1740 1255 c0 -8 4 -15 8 -15 5 0 9 7 9 15 0 8 -4 15 -9 15 -4 0 -8
-7 -8 -15z"/>
<path d="M1777 1263 c-13 -12 -7 -23 13 -23 13 0 18 5 14 15 -7 16 -17 19 -27
8z"/>
<path d="M1696 1205 c-6 -17 9 -21 19 -5 4 6 11 8 16 4 5 -3 -2 -15 -16 -26
-33 -26 -32 -43 5 -44 17 -1 30 3 30 7 0 5 -7 9 -15 9 -8 0 -15 4 -15 9 0 5 7
11 15 15 8 3 15 15 15 26 0 24 -45 29 -54 5z"/>
<path d="M1766 1204 c-17 -45 8 -94 35 -67 13 13 19 50 12 68 -7 20 -39 19
-47 -1z m34 -30 c0 -26 -17 -33 -26 -9 -8 20 3 48 16 40 5 -3 10 -17 10 -31z"/>
<path d="M1614 1188 c-4 -6 1 -17 10 -24 12 -8 13 -13 5 -16 -10 -3 -10 -6 -1
-12 7 -4 15 0 19 9 3 10 0 21 -8 26 -10 6 -10 9 -1 9 6 0 12 5 12 10 0 14 -27
13 -36 -2z"/>
<path d="M1842 1155 c3 -33 16 -33 14 0 0 14 -4 25 -8 25 -4 0 -7 -11 -6 -25z"/>
<path d="M2168 1145 c-8 -8 48 -145 67 -164 13 -13 18 -6 45 52 17 37 31 77
33 90 2 21 -2 22 -68 25 -39 1 -74 0 -77 -3z m128 -28 c-3 -13 -16 -48 -30
-78 -23 -52 -24 -53 -34 -29 -6 14 -20 47 -31 73 -12 27 -21 51 -21 53 0 2 27
4 61 4 59 0 61 -1 55 -23z"/>
<path d="M1310 1119 c0 -5 5 -7 10 -4 6 3 10 2 10 -4 0 -5 -6 -12 -12 -14 -8
-3 -6 -6 5 -6 11 -1 17 6 17 19 0 11 -7 20 -15 20 -8 0 -15 -5 -15 -11z"/>
<path d="M1370 1110 c0 -11 7 -20 15 -20 8 0 15 9 15 20 0 11 -7 20 -15 20 -8
0 -15 -9 -15 -20z"/>
<path d="M1417 1123 c-13 -13 -7 -33 11 -33 14 0 15 2 2 10 -13 9 -13 11 0 20
8 5 10 10 4 10 -6 0 -14 -3 -17 -7z"/>
<path d="M1460 1104 c0 -8 5 -12 10 -9 6 3 10 10 10 16 0 5 -4 9 -10 9 -5 0
-10 -7 -10 -16z"/>
<path d="M1501 1103 c0 -13 2 -14 6 -4 4 11 7 11 14 0 4 -7 11 -10 14 -7 10
10 -4 28 -21 28 -8 0 -14 -8 -13 -17z"/>
<path d="M1880 1100 c0 -15 6 -19 30 -17 35 2 40 22 8 31 -35 9 -38 8 -38 -14z
m30 0 c0 -5 -4 -10 -10 -10 -5 0 -10 5 -10 10 0 6 5 10 10 10 6 0 10 -4 10
-10z"/>
<path d="M1956 1113 c-12 -13 -6 -33 12 -32 12 0 13 2 3 6 -10 4 -10 7 -1 13
7 4 8 10 2 13 -5 4 -12 4 -16 0z"/>
<path d="M1328 1073 c17 -2 47 -2 65 0 17 2 3 4 -33 4 -36 0 -50 -2 -32 -4z"/>
<path d="M1448 1073 c12 -2 30 -2 40 0 9 3 -1 5 -23 4 -22 0 -30 -2 -17 -4z"/>
<path d="M1586 1063 c7 -4 14 -19 17 -33 4 -22 5 -21 4 4 -1 17 -9 31 -17 33
-10 3 -11 2 -4 -4z"/>
<path d="M1405 1050 c-9 -14 0 -23 25 -27 15 -2 20 3 19 20 0 12 -3 16 -6 9
-4 -9 -8 -10 -18 -2 -10 8 -15 8 -20 0z"/>
<path d="M1468 1053 c10 -4 10 -8 0 -21 -11 -13 -11 -14 2 -10 23 7 25 38 3
37 -11 0 -13 -3 -5 -6z"/>
<path d="M1621 1034 c0 -11 3 -14 6 -6 3 7 2 16 -1 19 -3 4 -6 -2 -5 -13z"/>
<path d="M2105 1010 c-3 -5 -1 -10 4 -10 6 0 11 5 11 10 0 6 -2 10 -4 10 -3 0
-8 -4 -11 -10z"/>
<path d="M1095 1001 c4 -8 64 -5 72 3 2 2 -14 4 -37 4 -22 0 -38 -3 -35 -7z"/>
<path d="M1240 1000 c20 -13 33 -13 25 0 -3 6 -14 10 -23 10 -15 0 -15 -2 -2
-10z"/>
<path d="M1301 913 c-18 -9 -38 -27 -44 -41 -10 -21 -8 -27 18 -49 24 -21 35
-24 67 -19 49 8 81 29 96 61 25 55 -61 85 -137 48z m113 -6 c40 -29 -21 -87
-92 -87 -64 0 -67 58 -4 84 46 19 73 20 96 3z"/>
<path d="M1640 922 c-65 -22 -90 -77 -48 -106 71 -50 201 27 159 93 -9 14 -83
23 -111 13z m94 -18 c27 -10 18 -43 -16 -64 -60 -37 -149 -20 -132 24 13 35
100 58 148 40z"/>
<path d="M1918 891 c-18 -16 -30 -33 -26 -37 4 -4 17 5 28 19 35 44 150 47
150 3 0 -45 -118 -86 -152 -52 -20 20 -29 21 -22 2 3 -8 19 -19 36 -25 59 -21
148 23 148 72 0 35 -19 47 -77 47 -44 0 -58 -5 -85 -29z"/>
<path d="M1980 890 c-13 -8 -12 -10 3 -10 9 0 17 5 17 10 0 12 -1 12 -20 0z"/>
<path d="M2320 639 c-156 -18 -407 -26 -725 -24 -307 3 -334 2 -389 -17 -101
-33 -182 -101 -227 -189 -31 -63 -17 -69 19 -8 56 96 113 146 207 178 54 19
76 20 235 15 96 -3 180 -5 185 -6 18 -1 397 12 495 18 202 11 237 14 304 23
38 6 72 8 76 6 3 -2 12 0 20 6 19 11 -94 10 -200 -2z"/>
<path d="M2440 530 c-27 -6 -29 -8 -10 -8 14 -1 43 3 65 7 33 7 35 9 10 9 -16
-1 -46 -4 -65 -8z"/>
<path d="M2363 513 c9 -2 23 -2 30 0 6 3 -1 5 -18 5 -16 0 -22 -2 -12 -5z"/>
<path d="M2203 503 c15 -2 37 -2 50 0 12 2 0 4 -28 4 -27 0 -38 -2 -22 -4z"/>
<path d="M2038 493 c23 -2 61 -2 85 0 23 2 4 4 -43 4 -47 0 -66 -2 -42 -4z"/>
<path d="M1756 482 c-3 -4 4 -9 15 -9 23 -2 25 3 4 10 -8 4 -16 3 -19 -1z"/>
<path d="M1878 483 c23 -2 59 -2 80 0 20 2 1 4 -43 4 -44 0 -61 -2 -37 -4z"/>
<path d="M1373 473 c20 -2 54 -2 75 0 20 2 3 4 -38 4 -41 0 -58 -2 -37 -4z"/>
<path d="M1653 473 c15 -2 39 -2 55 0 15 2 2 4 -28 4 -30 0 -43 -2 -27 -4z"/>
<path d="M1255 450 c-16 -11 -25 -20 -20 -20 10 0 64 39 55 40 -3 0 -18 -9
-35 -20z"/>
<path d="M1493 448 c-6 -7 -16 -24 -22 -38 l-12 -25 20 25 c11 14 21 28 21 32
0 4 12 9 28 11 l27 4 -26 2 c-15 0 -31 -5 -36 -11z"/>
<path d="M1610 456 c0 -2 7 -7 16 -10 8 -3 12 -2 9 4 -6 10 -25 14 -25 6z"/>
<path d="M2133 435 c-3 -9 -3 -18 -1 -21 3 -3 8 4 11 16 6 23 -1 27 -10 5z"/>
<path d="M2188 443 c6 -2 18 -2 25 0 6 3 1 5 -13 5 -14 0 -19 -2 -12 -5z"/>
<path d="M1556 423 c-6 -14 -5 -15 5 -6 7 7 10 15 7 18 -3 3 -9 -2 -12 -12z"/>
<path d="M1990 433 c0 -5 11 -8 24 -8 13 0 22 3 19 8 -2 4 -13 7 -24 7 -10 0
-19 -3 -19 -7z"/>
<path d="M2068 433 c6 -2 18 -2 25 0 6 3 1 5 -13 5 -14 0 -19 -2 -12 -5z"/>
<path d="M1740 420 c0 -5 7 -6 17 -3 12 5 14 3 8 -7 -5 -9 -4 -11 3 -6 19 11
14 26 -8 26 -11 0 -20 -4 -20 -10z"/>
<path d="M1817 423 c-3 -5 5 -8 18 -8 13 0 21 3 18 8 -2 4 -10 7 -18 7 -8 0
-16 -3 -18 -7z"/>
<path d="M1495 389 c-4 -6 -5 -12 -2 -15 2 -3 7 2 10 11 7 17 1 20 -8 4z"/>
<path d="M1526 363 c-6 -14 -5 -15 5 -6 7 7 10 15 7 18 -3 3 -9 -2 -12 -12z"/>
<path d="M651 346 c12 -10 60 -16 54 -6 -3 5 -18 10 -32 10 -15 0 -24 -2 -22
-4z"/>
<path d="M2525 339 c-4 -6 -5 -12 -2 -15 2 -3 7 2 10 11 7 17 1 20 -8 4z"/>
<path d="M561 336 c2 -2 18 -6 34 -10 22 -5 26 -4 15 4 -14 9 -59 15 -49 6z"/>
<path d="M2380 330 c-244 -25 -318 -31 -554 -41 -232 -10 -457 -9 -878 5 -65
2 -118 3 -118 1 0 -4 248 -28 335 -32 247 -11 526 -13 521 -4 -8 12 82 10 102
-3 17 -10 426 10 447 23 6 3 -3 9 -20 13 -27 6 -26 7 7 3 20 -2 67 3 105 11
37 8 83 14 100 14 18 0 33 5 33 10 0 6 -1 9 -2 9 -2 -1 -37 -5 -78 -9z m-205
-39 c-6 -6 -80 -12 -165 -15 l-155 -5 125 9 c128 10 192 15 200 18 2 1 0 -2
-5 -7z m-698 -27 c-3 -3 -12 -4 -19 -1 -8 3 -5 6 6 6 11 1 17 -2 13 -5z m80 0
c-3 -3 -12 -4 -19 -1 -8 3 -5 6 6 6 11 1 17 -2 13 -5z m50 0 c-3 -3 -12 -4
-19 -1 -8 3 -5 6 6 6 11 1 17 -2 13 -5z m56 -1 c-7 -2 -21 -2 -30 0 -10 3 -4
5 12 5 17 0 24 -2 18 -5z"/>
<path d="M711 316 c10 -11 109 -24 109 -15 0 5 -11 9 -24 9 -13 0 -39 3 -57 6
-19 4 -31 4 -28 0z"/>
<path d="M916 258 c3 -4 9 -8 15 -8 5 0 9 4 9 8 0 5 -7 9 -15 9 -8 0 -12 -4
-9 -9z"/>
<path d="M2080 1759 c0 -5 5 -7 10 -4 6 3 10 8 10 11 0 2 -4 4 -10 4 -5 0 -10
-5 -10 -11z"/>
<path d="M2280 1759 c0 -5 5 -7 10 -4 6 3 10 8 10 11 0 2 -4 4 -10 4 -5 0 -10
-5 -10 -11z"/>
<path d="M2325 1759 c-4 -6 -5 -12 -2 -15 2 -3 7 2 10 11 7 17 1 20 -8 4z"/>
<path d="M2790 1766 c0 -2 7 -9 15 -16 13 -11 14 -10 9 4 -5 14 -24 23 -24 12z"/>
<path d="M2830 1761 c0 -6 6 -11 13 -11 8 0 7 -4 -3 -10 -9 -6 -10 -10 -3 -10
19 0 24 17 8 30 -10 9 -15 9 -15 1z"/>
<path d="M1 1744 c0 -11 3 -14 6 -6 3 7 2 16 -1 19 -3 4 -6 -2 -5 -13z"/>
<path d="M490 1753 c0 -15 18 -35 27 -32 5 2 1 12 -9 22 -10 9 -18 14 -18 10z"/>
<path d="M730 1750 c0 -5 5 -10 10 -10 6 0 10 5 10 10 0 6 -4 10 -10 10 -5 0
-10 -4 -10 -10z"/>
<path d="M2550 1752 c0 -4 10 -13 23 -21 22 -14 22 -14 3 8 -20 22 -26 25 -26
13z"/>
<path d="M2700 1750 c0 -5 5 -10 10 -10 6 0 10 5 10 10 0 6 -4 10 -10 10 -5 0
-10 -4 -10 -10z"/>
<path d="M2740 1749 c0 -5 5 -7 10 -4 6 3 10 8 10 11 0 2 -4 4 -10 4 -5 0 -10
-5 -10 -11z"/>
<path d="M2985 1750 c3 -5 8 -10 11 -10 2 0 4 5 4 10 0 6 -5 10 -11 10 -5 0
-7 -4 -4 -10z"/>
<path d="M2420 1740 c0 -5 5 -10 11 -10 5 0 7 5 4 10 -3 6 -8 10 -11 10 -2 0
-4 -4 -4 -10z"/>
<path d="M2770 1740 c0 -5 7 -10 16 -10 8 0 12 5 9 10 -3 6 -10 10 -16 10 -5
0 -9 -4 -9 -10z"/>
<path d="M2915 1731 c-3 -5 -1 -12 5 -16 5 -3 10 1 10 9 0 18 -6 21 -15 7z"/>
<path d="M261 1714 c0 -11 3 -14 6 -6 3 7 2 16 -1 19 -3 4 -6 -2 -5 -13z"/>
<path d="M214 1699 c-19 -22 -19 -22 4 -8 12 8 22 17 22 21 0 12 -6 9 -26 -13z"/>
<path d="M2620 1706 c0 -9 30 -14 35 -6 4 6 -3 10 -14 10 -12 0 -21 -2 -21 -4z"/>
<path d="M60 1689 c0 -5 5 -7 10 -4 6 3 10 8 10 11 0 2 -4 4 -10 4 -5 0 -10
-5 -10 -11z"/>
<path d="M290 1691 c0 -5 5 -13 10 -16 6 -3 10 -2 10 4 0 5 -4 13 -10 16 -5 3
-10 2 -10 -4z"/>
<path d="M2550 1690 c0 -5 5 -10 11 -10 5 0 7 5 4 10 -3 6 -8 10 -11 10 -2 0
-4 -4 -4 -10z"/>
<path d="M2752 1683 c-7 -7 -9 -13 -4 -13 4 0 16 6 26 13 14 10 15 14 4 14 -7
0 -19 -6 -26 -14z"/>
<path d="M2815 1690 c3 -5 8 -10 11 -10 2 0 4 5 4 10 0 6 -5 10 -11 10 -5 0
-7 -4 -4 -10z"/>
<path d="M130 1675 c0 -8 4 -15 10 -15 5 0 7 7 4 15 -4 8 -8 15 -10 15 -2 0
-4 -7 -4 -15z"/>
<path d="M413 1675 c-3 -9 -3 -18 -1 -21 3 -3 8 4 11 16 6 23 -1 27 -10 5z"/>
<path d="M2880 1681 c0 -9 30 -24 36 -18 2 1 -6 8 -16 15 -11 7 -20 8 -20 3z"/>
<path d="M2985 1680 c-3 -5 -1 -10 4 -10 6 0 11 5 11 10 0 6 -2 10 -4 10 -3 0
-8 -4 -11 -10z"/>
<path d="M340 1670 c0 -5 5 -10 11 -10 5 0 7 5 4 10 -3 6 -8 10 -11 10 -2 0
-4 -4 -4 -10z"/>
<path d="M2940 1669 c0 -5 5 -7 10 -4 6 3 10 8 10 11 0 2 -4 4 -10 4 -5 0 -10
-5 -10 -11z"/>
<path d="M2830 1655 c0 -8 4 -15 10 -15 5 0 7 7 4 15 -4 8 -8 15 -10 15 -2 0
-4 -7 -4 -15z"/>
<path d="M377 1653 c-4 -3 -7 -11 -7 -17 0 -6 5 -5 12 2 6 6 9 14 7 17 -3 3
-9 2 -12 -2z"/>
<path d="M2616 1647 c3 -10 9 -15 12 -12 3 3 0 11 -7 18 -10 9 -11 8 -5 -6z"/>
<path d="M2876 1635 c7 -27 5 -28 -8 -17 -10 8 -19 9 -22 4 -6 -9 15 -22 35
-22 12 0 11 31 -1 50 -8 11 -9 7 -4 -15z"/>
<path d="M17 1631 c-4 -17 -3 -21 5 -13 5 5 8 16 6 23 -3 8 -7 3 -11 -10z"/>
<path d="M2700 1641 c0 -5 5 -13 10 -16 6 -3 10 -2 10 4 0 5 -4 13 -10 16 -5
3 -10 2 -10 -4z"/>
<path d="M2950 1646 c0 -2 7 -7 16 -10 8 -3 12 -2 9 4 -6 10 -25 14 -25 6z"/>
<path d="M170 1615 c-11 -13 -10 -14 4 -9 9 3 16 10 16 15 0 13 -6 11 -20 -6z"/>
<path d="M2780 1620 c0 -5 5 -10 10 -10 6 0 10 5 10 10 0 6 -4 10 -10 10 -5 0
-10 -4 -10 -10z"/>
<path d="M371 1594 c0 -11 3 -14 6 -6 3 7 2 16 -1 19 -3 4 -6 -2 -5 -13z"/>
<path d="M2740 1599 c0 -5 5 -7 10 -4 6 3 10 8 10 11 0 2 -4 4 -10 4 -5 0 -10
-5 -10 -11z"/>
<path d="M2945 1600 c-3 -5 -2 -10 4 -10 5 0 13 5 16 10 3 6 2 10 -4 10 -5 0
-13 -4 -16 -10z"/>
<path d="M2991 1594 c0 -11 3 -14 6 -6 3 7 2 16 -1 19 -3 4 -6 -2 -5 -13z"/>
<path d="M262 1572 c-11 -25 -11 -25 4 -10 9 9 15 21 13 27 -2 6 -10 -2 -17
-17z"/>
<path d="M87 1571 c-4 -17 -3 -21 5 -13 5 5 8 16 6 23 -3 8 -7 3 -11 -10z"/>
<path d="M176 1573 c6 -4 14 -15 17 -23 5 -11 6 -9 4 4 -1 11 -9 21 -17 23
-10 3 -11 2 -4 -4z"/>
<path d="M2700 1570 c0 -5 5 -10 11 -10 5 0 7 5 4 10 -3 6 -8 10 -11 10 -2 0
-4 -4 -4 -10z"/>
<path d="M2757 1560 c3 -11 7 -20 9 -20 2 0 4 9 4 20 0 11 -4 20 -9 20 -5 0
-7 -9 -4 -20z"/>
<path d="M2825 1570 c3 -5 8 -10 11 -10 2 0 4 5 4 10 0 6 -5 10 -11 10 -5 0
-7 -4 -4 -10z"/>
<path d="M2950 1566 c0 -2 7 -6 15 -10 8 -3 15 -1 15 4 0 6 -7 10 -15 10 -8 0
-15 -2 -15 -4z"/>
<path d="M220 1545 c-11 -13 -10 -14 4 -9 9 3 16 10 16 15 0 13 -6 11 -20 -6z"/>
<path d="M2810 1540 c0 -5 5 -10 10 -10 6 0 10 5 10 10 0 6 -4 10 -10 10 -5 0
-10 -4 -10 -10z"/>
<path d="M105 1530 c-3 -5 -1 -10 4 -10 6 0 11 5 11 10 0 6 -2 10 -4 10 -3 0
-8 -4 -11 -10z"/>
<path d="M286 1532 c-3 -6 -1 -14 5 -17 14 -9 20 -2 10 14 -6 8 -11 9 -15 3z"/>
<path d="M2986 1527 c3 -10 9 -15 12 -12 3 3 0 11 -7 18 -10 9 -11 8 -5 -6z"/>
<path d="M2895 1519 c-11 -17 1 -21 15 -4 8 9 8 15 2 15 -6 0 -14 -5 -17 -11z"/>
<path d="M2966 1517 c3 -10 9 -15 12 -12 3 3 0 11 -7 18 -10 9 -11 8 -5 -6z"/>
<path d="M156 1503 c-6 -14 -5 -15 5 -6 7 7 10 15 7 18 -3 3 -9 -2 -12 -12z"/>
<path d="M231 1496 c-9 -10 -8 -16 3 -25 12 -10 13 -8 9 10 -5 19 -3 20 18 14
18 -5 21 -4 9 4 -20 14 -25 14 -39 -3z"/>
<path d="M344 1487 c-8 -17 -7 -24 1 -24 6 0 12 11 13 24 2 29 0 29 -14 0z"/>
<path d="M2744 1477 c3 -10 6 -21 6 -23 0 -2 10 -4 23 -3 15 0 17 2 7 6 -8 4
-21 13 -28 22 -12 14 -13 14 -8 -2z"/>
<path d="M2815 1480 c-3 -5 -1 -10 4 -10 6 0 11 5 11 10 0 6 -2 10 -4 10 -3 0
-8 -4 -11 -10z"/>
<path d="M47 1473 c-4 -3 -7 -11 -7 -17 0 -6 5 -5 12 2 6 6 9 14 7 17 -3 3 -9
2 -12 -2z"/>
<path d="M2664 1464 c3 -8 6 -18 6 -20 0 -3 5 -2 10 1 15 9 12 22 -6 29 -12 5
-15 2 -10 -10z"/>
<path d="M2940 1460 c-13 -8 -12 -10 3 -10 9 0 17 5 17 10 0 12 -1 12 -20 0z"/>
<path d="M2836 1445 c4 -8 8 -15 10 -15 2 0 4 7 4 15 0 8 -4 15 -10 15 -5 0
-7 -7 -4 -15z"/>
<path d="M260 1441 c0 -6 4 -13 10 -16 6 -3 7 1 4 9 -7 18 -14 21 -14 7z"/>
<path d="M26 1423 c-6 -14 -5 -15 5 -6 7 7 10 15 7 18 -3 3 -9 -2 -12 -12z"/>
<path d="M173 1428 c3 -9 1 -19 -6 -22 -9 -3 -9 -5 0 -5 18 -1 27 19 13 32
-10 9 -12 8 -7 -5z"/>
<path d="M2726 1425 c-3 -9 -6 -22 -5 -28 0 -7 5 -1 10 12 5 13 8 26 5 28 -2
2 -6 -3 -10 -12z"/>
<path d="M320 1420 c-9 -6 -10 -10 -3 -10 6 0 15 5 18 10 8 12 4 12 -15 0z"/>
<path d="M2680 1420 c0 -5 5 -10 11 -10 5 0 7 5 4 10 -3 6 -8 10 -11 10 -2 0
-4 -4 -4 -10z"/>
<path d="M56 1403 c-6 -14 -5 -15 5 -6 7 7 10 15 7 18 -3 3 -9 -2 -12 -12z"/>
<path d="M260 1396 c0 -8 4 -17 9 -20 5 -4 7 3 4 14 -6 23 -13 26 -13 6z"/>
<path d="M2790 1406 c0 -2 7 -7 16 -10 8 -3 12 -2 9 4 -6 10 -25 14 -25 6z"/>
<path d="M345 1390 c-3 -6 1 -7 9 -4 18 7 21 14 7 14 -6 0 -13 -4 -16 -10z"/>
<path d="M2635 1390 c-3 -5 1 -10 9 -10 9 0 16 5 16 10 0 6 -4 10 -9 10 -6 0
-13 -4 -16 -10z"/>
<path d="M2980 1390 c0 -5 5 -10 10 -10 6 0 10 5 10 10 0 6 -4 10 -10 10 -5 0
-10 -4 -10 -10z"/>
<path d="M2875 1371 c-6 -11 13 -26 22 -17 4 3 1 6 -6 6 -7 0 -9 5 -6 10 3 6
4 10 1 10 -3 0 -7 -4 -11 -9z"/>
<path d="M60 1350 c-6 -11 -7 -20 -2 -20 6 0 12 9 15 20 3 11 3 20 1 20 -2 0
-8 -9 -14 -20z"/>
<path d="M2695 1360 c3 -5 11 -10 16 -10 6 0 7 5 4 10 -3 6 -11 10 -16 10 -6
0 -7 -4 -4 -10z"/>
<path d="M316 1333 c-6 -14 -5 -15 5 -6 7 7 10 15 7 18 -3 3 -9 -2 -12 -12z"/>
<path d="M2646 1341 c-3 -4 6 -13 20 -20 14 -6 22 -16 19 -21 -3 -6 -1 -10 4
-10 16 0 13 17 -6 40 -19 22 -29 25 -37 11z"/>
<path d="M2750 1334 c0 -8 5 -12 10 -9 6 4 8 11 5 16 -9 14 -15 11 -15 -7z"/>
<path d="M2960 1340 c0 -5 5 -10 10 -10 6 0 10 5 10 10 0 6 -4 10 -10 10 -5 0
-10 -4 -10 -10z"/>
<path d="M160 1328 c0 -4 4 -8 9 -8 6 0 12 4 15 8 3 5 -1 9 -9 9 -8 0 -15 -4
-15 -9z"/>
<path d="M2822 1309 c-7 -11 -17 -17 -22 -14 -5 3 -11 1 -15 -5 -3 -5 0 -10 8
-10 15 0 53 37 46 45 -3 2 -10 -5 -17 -16z"/>
<path d="M2860 1319 c0 -5 5 -7 10 -4 6 3 10 8 10 11 0 2 -4 4 -10 4 -5 0 -10
-5 -10 -11z"/>
<path d="M285 1300 c-3 -5 -1 -10 4 -10 6 0 11 5 11 10 0 6 -2 10 -4 10 -3 0
-8 -4 -11 -10z"/>
<path d="M2750 1299 c0 -5 5 -7 10 -4 6 3 10 8 10 11 0 2 -4 4 -10 4 -5 0 -10
-5 -10 -11z"/>
<path d="M2900 1295 c0 -8 4 -15 10 -15 5 0 7 7 4 15 -4 8 -8 15 -10 15 -2 0
-4 -7 -4 -15z"/>
<path d="M2940 1300 c0 -5 5 -10 10 -10 6 0 10 5 10 10 0 6 -4 10 -10 10 -5 0
-10 -4 -10 -10z"/>
<path d="M2970 1290 c0 -5 5 -10 11 -10 5 0 7 5 4 10 -3 6 -8 10 -11 10 -2 0
-4 -4 -4 -10z"/>
<path d="M2875 1280 c-3 -5 -1 -10 4 -10 6 0 11 5 11 10 0 6 -2 10 -4 10 -3 0
-8 -4 -11 -10z"/>
<path d="M195 1271 c-3 -5 -1 -12 5 -16 5 -3 10 1 10 9 0 18 -6 21 -15 7z"/>
<path d="M2686 1265 c-9 -26 -7 -32 5 -12 6 10 9 21 6 23 -2 3 -7 -2 -11 -11z"/>
<path d="M2725 1270 c-3 -5 1 -10 10 -10 9 0 13 5 10 10 -3 6 -8 10 -10 10 -2
0 -7 -4 -10 -10z"/>
<path d="M120 1259 c0 -5 5 -7 10 -4 6 3 10 8 10 11 0 2 -4 4 -10 4 -5 0 -10
-5 -10 -11z"/>
<path d="M231 1239 c-7 -17 -11 -32 -8 -35 2 -3 10 9 17 26 17 40 8 48 -9 9z"/>
<path d="M270 1249 c0 -5 5 -7 10 -4 6 3 10 8 10 11 0 2 -4 4 -10 4 -5 0 -10
-5 -10 -11z"/>
<path d="M2925 1250 c3 -5 8 -10 11 -10 2 0 4 5 4 10 0 6 -5 10 -11 10 -5 0
-7 -4 -4 -10z"/>
<path d="M2965 1250 c3 -5 8 -10 11 -10 2 0 4 5 4 10 0 6 -5 10 -11 10 -5 0
-7 -4 -4 -10z"/>
<path d="M2890 1241 c0 -9 30 -24 36 -18 2 1 -6 8 -16 15 -11 7 -20 8 -20 3z"/>
<path d="M2650 1221 c0 -5 -3 -18 -6 -28 -6 -16 -5 -16 9 2 19 23 21 35 7 35
-5 0 -10 -4 -10 -9z"/>
<path d="M2959 1213 c-13 -15 -12 -15 11 -3 34 17 36 20 18 20 -9 0 -22 -7
-29 -17z"/>
<path d="M2686 1211 c-4 -7 -5 -15 -2 -18 9 -9 19 4 14 18 -4 11 -6 11 -12 0z"/>
<path d="M2760 1210 c0 -5 5 -10 11 -10 5 0 7 5 4 10 -3 6 -8 10 -11 10 -2 0
-4 -4 -4 -10z"/>
<path d="M2870 1205 c0 -8 -4 -15 -8 -15 -4 0 -8 -9 -8 -20 0 -11 4 -20 8 -20
4 0 8 9 8 20 0 11 5 20 10 20 6 0 10 7 10 15 0 8 -4 15 -10 15 -5 0 -10 -7
-10 -15z"/>
<path d="M186 1192 c-3 -5 1 -9 9 -9 8 0 12 4 9 9 -3 4 -7 8 -9 8 -2 0 -6 -4
-9 -8z"/>
<path d="M2800 1190 c0 -5 5 -10 11 -10 5 0 7 5 4 10 -3 6 -8 10 -11 10 -2 0
-4 -4 -4 -10z"/>
<path d="M2730 1180 c0 -5 5 -10 11 -10 5 0 7 5 4 10 -3 6 -8 10 -11 10 -2 0
-4 -4 -4 -10z"/>
<path d="M2905 1180 c3 -5 10 -10 16 -10 5 0 9 5 9 10 0 6 -7 10 -16 10 -8 0
-12 -4 -9 -10z"/>
<path d="M40 1160 c0 -11 4 -20 9 -20 5 0 7 9 4 20 -3 11 -7 20 -9 20 -2 0 -4
-9 -4 -20z"/>
<path d="M110 1170 c0 -5 10 -10 23 -10 18 0 19 2 7 10 -19 13 -30 13 -30 0z"/>
<path d="M228 1149 c-10 -10 -18 -21 -18 -24 0 -9 40 19 44 32 8 19 -6 14 -26
-8z"/>
<path d="M2826 1153 c-6 -14 -5 -15 5 -6 7 7 10 15 7 18 -3 3 -9 -2 -12 -12z"/>
<path d="M2945 1160 c3 -5 8 -10 11 -10 2 0 4 5 4 10 0 6 -5 10 -11 10 -5 0
-7 -4 -4 -10z"/>
<path d="M2883 1145 c0 -7 8 -10 19 -7 28 7 31 20 4 20 -12 0 -23 -6 -23 -13z"/>
<path d="M2950 1130 c0 -5 -6 -10 -14 -10 -8 0 -16 -6 -19 -12 -3 -10 -8 -9
-22 2 -10 8 -16 10 -12 3 4 -7 0 -16 -10 -22 -10 -6 -13 -11 -6 -11 6 0 15 5
19 11 4 8 9 7 15 -2 8 -11 11 -11 20 4 5 9 17 17 24 17 8 0 15 7 15 15 0 8 -2
15 -5 15 -3 0 -5 -4 -5 -10z"/>
<path d="M2800 1130 c-7 -18 -5 -49 3 -41 5 5 7 17 4 27 -3 11 -6 17 -7 14z"/>
<path d="M125 1109 c-4 -6 -5 -12 -2 -15 2 -3 7 2 10 11 7 17 1 20 -8 4z"/>
<path d="M325 1099 c-4 -6 -5 -12 -2 -15 2 -3 7 2 10 11 7 17 1 20 -8 4z"/>
<path d="M2646 1098 c3 -4 9 -8 15 -8 5 0 9 4 9 8 0 5 -7 9 -15 9 -8 0 -12 -4
-9 -9z"/>
<path d="M2726 1095 c-9 -26 -7 -32 5 -12 6 10 9 21 6 23 -2 3 -7 -2 -11 -11z"/>
<path d="M2835 1100 c-3 -5 -1 -10 4 -10 6 0 11 5 11 10 0 6 -2 10 -4 10 -3 0
-8 -4 -11 -10z"/>
<path d="M2970 1089 c0 -5 5 -7 10 -4 6 3 10 8 10 11 0 2 -4 4 -10 4 -5 0 -10
-5 -10 -11z"/>
<path d="M2812 1064 c-7 -8 -8 -14 -3 -14 10 0 25 19 20 25 -2 1 -10 -3 -17
-11z"/>
<path d="M275 1050 c-3 -5 -1 -10 4 -10 6 0 11 5 11 10 0 6 -2 10 -4 10 -3 0
-8 -4 -11 -10z"/>
<path d="M2857 1046 c-4 -10 -1 -13 9 -9 7 3 14 9 14 14 0 14 -17 10 -23 -5z"/>
<path d="M2676 1033 c-6 -14 -5 -15 5 -6 7 7 10 15 7 18 -3 3 -9 -2 -12 -12z"/>
<path d="M2715 1030 c3 -5 8 -10 11 -10 2 0 4 5 4 10 0 6 -5 10 -11 10 -5 0
-7 -4 -4 -10z"/>
<path d="M2775 994 c-22 -34 -15 -39 12 -8 12 13 18 26 13 29 -4 3 -15 -7 -25
-21z"/>
<path d="M135 999 c-4 -6 -5 -12 -2 -15 2 -3 7 2 10 11 7 17 1 20 -8 4z"/>
<path d="M2855 1001 c-4 -7 0 -8 11 -4 12 4 15 3 10 -5 -4 -7 -2 -12 4 -12 14
0 8 22 -7 27 -6 2 -14 -1 -18 -6z"/>
<path d="M90 991 c0 -6 4 -12 8 -15 5 -3 9 1 9 9 0 8 -4 15 -9 15 -4 0 -8 -4
-8 -9z"/>
<path d="M2725 990 c3 -5 8 -10 11 -10 2 0 4 5 4 10 0 6 -5 10 -11 10 -5 0 -7
-4 -4 -10z"/>
<path d="M2904 989 c-4 -7 -3 -9 4 -5 5 3 13 0 15 -6 4 -9 6 -10 6 -1 1 17
-16 25 -25 12z"/>
<path d="M165 980 c3 -5 8 -10 11 -10 2 0 4 5 4 10 0 6 -5 10 -11 10 -5 0 -7
-4 -4 -10z"/>
<path d="M2813 975 c0 -8 4 -12 9 -9 4 3 8 9 8 15 0 5 -4 9 -8 9 -5 0 -9 -7
-9 -15z"/>
<path d="M31 964 c0 -11 3 -14 6 -6 3 7 2 16 -1 19 -3 4 -6 -2 -5 -13z"/>
<path d="M211 958 c0 -16 2 -18 6 -8 3 8 11 18 17 22 7 5 4 8 -6 8 -12 0 -18
-7 -17 -22z"/>
<path d="M2940 965 c0 -8 2 -15 4 -15 2 0 6 7 10 15 3 8 1 15 -4 15 -6 0 -10
-7 -10 -15z"/>
<path d="M2975 970 c-3 -5 1 -10 10 -10 9 0 13 5 10 10 -3 6 -8 10 -10 10 -2
0 -7 -4 -10 -10z"/>
<path d="M2880 960 c0 -5 5 -10 10 -10 6 0 10 5 10 10 0 6 -4 10 -10 10 -5 0
-10 -4 -10 -10z"/>
<path d="M112 935 c0 -16 2 -22 5 -12 2 9 2 23 0 30 -3 6 -5 -1 -5 -18z"/>
<path d="M150 950 c0 -5 5 -10 11 -10 5 0 7 5 4 10 -3 6 -8 10 -11 10 -2 0 -4
-4 -4 -10z"/>
<path d="M251 944 c0 -11 3 -14 6 -6 3 7 2 16 -1 19 -3 4 -6 -2 -5 -13z"/>
<path d="M2916 924 c-8 -20 0 -32 14 -18 5 5 5 15 1 22 -6 11 -10 10 -15 -4z"/>
<path d="M2957 921 c-4 -17 -3 -21 5 -13 5 5 8 16 6 23 -3 8 -7 3 -11 -10z"/>
<path d="M10 919 c0 -5 5 -7 10 -4 6 3 10 8 10 11 0 2 -4 4 -10 4 -5 0 -10 -5
-10 -11z"/>
<path d="M2670 915 c0 -8 2 -15 4 -15 2 0 6 7 10 15 3 8 1 15 -4 15 -6 0 -10
-7 -10 -15z"/>
<path d="M2813 908 c1 -16 5 -28 9 -28 10 0 9 9 -2 35 -8 17 -8 16 -7 -7z"/>
<path d="M72 900 c0 -14 2 -19 5 -12 2 6 2 18 0 25 -3 6 -5 1 -5 -13z"/>
<path d="M2765 911 c-3 -5 -1 -12 5 -16 5 -3 10 1 10 9 0 18 -6 21 -15 7z"/>
<path d="M2860 899 c0 -5 5 -7 10 -4 6 3 10 8 10 11 0 2 -4 4 -10 4 -5 0 -10
-5 -10 -11z"/>
<path d="M2695 880 c3 -5 11 -10 16 -10 6 0 7 5 4 10 -3 6 -11 10 -16 10 -6 0
-7 -4 -4 -10z"/>
<path d="M2900 879 c0 -5 5 -7 10 -4 6 3 10 8 10 11 0 2 -4 4 -10 4 -5 0 -10
-5 -10 -11z"/>
<path d="M2941 868 c0 -14 -7 -29 -13 -31 -10 -4 -10 -6 0 -6 16 -1 25 22 19
46 -3 12 -5 9 -6 -9z"/>
<path d="M2840 865 c0 -8 4 -15 10 -15 5 0 7 7 4 15 -4 8 -8 15 -10 15 -2 0
-4 -7 -4 -15z"/>
<path d="M140 855 c-10 -12 -10 -15 4 -15 9 0 16 7 16 15 0 8 -2 15 -4 15 -2
0 -9 -7 -16 -15z"/>
<path d="M2760 860 c0 -5 5 -10 10 -10 6 0 10 5 10 10 0 6 -4 10 -10 10 -5 0
-10 -4 -10 -10z"/>
<path d="M2643 845 c0 -8 4 -12 9 -9 5 3 6 10 3 15 -9 13 -12 11 -12 -6z"/>
<path d="M2790 842 c0 -4 9 -13 20 -20 23 -14 26 -7 6 14 -16 15 -26 18 -26 6z"/>
<path d="M2985 840 c3 -5 8 -10 11 -10 2 0 4 5 4 10 0 6 -5 10 -11 10 -5 0 -7
-4 -4 -10z"/>
<path d="M286 824 c-4 -9 -4 -19 -1 -22 2 -3 7 3 11 12 4 9 4 19 1 22 -2 3 -7
-3 -11 -12z"/>
<path d="M2677 821 c-4 -17 -3 -21 5 -13 5 5 8 16 6 23 -3 8 -7 3 -11 -10z"/>
<path d="M158 818 c-3 -7 4 -21 14 -30 15 -15 18 -15 18 -3 0 8 -5 15 -11 15
-6 0 -9 7 -5 15 3 8 1 15 -3 15 -5 0 -11 -6 -13 -12z"/>
<path d="M2880 819 c0 -5 5 -7 10 -4 6 3 10 8 10 11 0 2 -4 4 -10 4 -5 0 -10
-5 -10 -11z"/>
<path d="M2850 800 c0 -5 5 -10 11 -10 5 0 7 5 4 10 -3 6 -8 10 -11 10 -2 0
-4 -4 -4 -10z"/>
<path d="M2945 800 c-3 -5 1 -10 10 -10 9 0 13 5 10 10 -3 6 -8 10 -10 10 -2
0 -7 -4 -10 -10z"/>
<path d="M2710 790 c-13 -8 -12 -10 3 -10 9 0 17 5 17 10 0 12 -1 12 -20 0z"/>
<path d="M2991 774 c0 -11 3 -14 6 -6 3 7 2 16 -1 19 -3 4 -6 -2 -5 -13z"/>
<path d="M97 769 c7 -7 15 -10 18 -7 3 3 -2 9 -12 12 -14 6 -15 5 -6 -5z"/>
<path d="M2790 769 c0 -5 5 -7 10 -4 6 3 10 8 10 11 0 2 -4 4 -10 4 -5 0 -10
-5 -10 -11z"/>
<path d="M251 754 c0 -11 3 -14 6 -6 3 7 2 16 -1 19 -3 4 -6 -2 -5 -13z"/>
<path d="M2645 760 c-3 -5 -1 -10 4 -10 6 0 11 5 11 10 0 6 -2 10 -4 10 -3 0
-8 -4 -11 -10z"/>
<path d="M190 745 c0 -8 5 -15 10 -15 6 0 10 -7 10 -17 0 -9 3 -14 6 -10 4 3
3 14 -1 24 -5 10 -7 21 -7 26 1 4 -2 7 -8 7 -5 0 -10 -7 -10 -15z"/>
<path d="M2717 753 c-4 -3 -7 -11 -7 -17 0 -6 5 -5 12 2 6 6 9 14 7 17 -3 3
-9 2 -12 -2z"/>
<path d="M2901 738 c0 -13 3 -18 5 -11 3 7 11 10 18 7 7 -3 19 3 27 13 13 17
13 17 -5 3 -15 -11 -20 -12 -23 -2 -8 21 -23 13 -22 -10z"/>
<path d="M285 740 c3 -5 8 -10 11 -10 2 0 4 5 4 10 0 6 -5 10 -11 10 -5 0 -7
-4 -4 -10z"/>
<path d="M90 710 c-9 -6 -10 -10 -3 -10 6 0 15 5 18 10 8 12 4 12 -15 0z"/>
<path d="M260 710 c0 -5 5 -10 10 -10 6 0 10 5 10 10 0 6 -4 10 -10 10 -5 0
-10 -4 -10 -10z"/>
<path d="M175 700 c-3 -5 -1 -10 4 -10 6 0 11 5 11 10 0 6 -2 10 -4 10 -3 0
-8 -4 -11 -10z"/>
<path d="M2730 701 c0 -5 7 -11 14 -14 10 -4 13 -1 9 9 -6 15 -23 19 -23 5z"/>
<path d="M2933 694 c-15 -16 -16 -24 -4 -24 8 0 24 30 19 35 -2 2 -9 -3 -15
-11z"/>
<path d="M127 682 c3 -12 9 -25 14 -28 14 -8 11 10 -6 32 -13 18 -14 18 -8 -4z"/>
<path d="M2684 689 c-3 -6 -1 -15 6 -19 9 -6 8 -10 -5 -17 -12 -7 -14 -13 -6
-17 6 -4 11 -2 11 4 0 7 7 10 15 6 13 -4 14 -2 5 14 -6 11 -8 25 -5 30 3 6 2
10 -4 10 -5 0 -13 -5 -17 -11z"/>
<path d="M71 674 c0 -11 3 -14 6 -6 3 7 2 16 -1 19 -3 4 -6 -2 -5 -13z"/>
<path d="M209 666 c12 -14 10 -50 -2 -62 -10 -10 -9 -24 2 -24 13 0 24 55 16
80 -3 11 -11 20 -17 20 -7 0 -7 -5 1 -14z"/>
<path d="M2792 666 c7 -8 15 -12 17 -11 5 6 -10 25 -20 25 -5 0 -4 -6 3 -14z"/>
<path d="M167 663 c-4 -3 -7 -11 -7 -17 0 -6 5 -5 12 2 6 6 9 14 7 17 -3 3 -9
2 -12 -2z"/>
<path d="M2826 662 c-4 -7 -2 -12 4 -12 6 0 8 -4 5 -10 -3 -6 1 -7 9 -4 9 3
16 10 16 16 0 5 -4 7 -9 4 -5 -4 -11 -1 -13 6 -3 9 -6 9 -12 0z"/>
<path d="M2886 658 c3 -4 9 -8 15 -8 5 0 9 4 9 8 0 5 -7 9 -15 9 -8 0 -12 -4
-9 -9z"/>
<path d="M2776 643 c-6 -14 -5 -15 5 -6 7 7 10 15 7 18 -3 3 -9 -2 -12 -12z"/>
<path d="M2935 639 c-11 -17 1 -21 15 -4 8 9 8 15 2 15 -6 0 -14 -5 -17 -11z"/>
<path d="M2635 630 c-3 -6 1 -7 9 -4 18 7 21 14 7 14 -6 0 -13 -4 -16 -10z"/>
<path d="M2893 624 c-20 -21 -16 -42 3 -22 9 9 15 21 13 26 -2 6 -9 4 -16 -4z"/>
<path d="M150 621 c0 -5 5 -13 10 -16 6 -3 10 -2 10 4 0 5 -4 13 -10 16 -5 3
-10 2 -10 -4z"/>
<path d="M2731 613 c4 -23 -3 -35 -16 -29 -8 3 -15 1 -15 -4 0 -18 29 -11 40
9 13 25 13 31 0 31 -5 0 -9 -3 -9 -7z"/>
<path d="M2980 609 c0 -5 5 -7 10 -4 6 3 10 8 10 11 0 2 -4 4 -10 4 -5 0 -10
-5 -10 -11z"/>
<path d="M2640 599 c0 -5 5 -7 10 -4 6 3 10 8 10 11 0 2 -4 4 -10 4 -5 0 -10
-5 -10 -11z"/>
<path d="M2945 600 c-8 -13 -1 -24 14 -19 6 3 7 10 2 18 -6 10 -10 10 -16 1z"/>
<path d="M55 590 c3 -5 8 -10 11 -10 2 0 4 5 4 10 0 6 -5 10 -11 10 -5 0 -7
-4 -4 -10z"/>
<path d="M115 590 c-8 -13 5 -13 25 0 13 8 13 10 -2 10 -9 0 -20 -4 -23 -10z"/>
<path d="M2764 585 c-18 -14 -18 -14 4 -8 12 3 22 9 22 14 0 12 -3 11 -26 -6z"/>
<path d="M2857 583 c-4 -3 -7 -11 -7 -17 0 -6 5 -5 12 2 6 6 9 14 7 17 -3 3
-9 2 -12 -2z"/>
<path d="M2646 565 c-11 -8 -15 -15 -9 -15 6 0 16 7 23 15 16 19 11 19 -14 0z"/>
<path d="M2895 570 c3 -5 8 -10 11 -10 2 0 4 5 4 10 0 6 -5 10 -11 10 -5 0 -7
-4 -4 -10z"/>
<path d="M51 561 c-10 -6 -10 -10 -1 -16 13 -8 24 -1 19 14 -3 6 -10 7 -18 2z"/>
<path d="M100 560 c0 -5 5 -10 11 -10 5 0 7 5 4 10 -3 6 -8 10 -11 10 -2 0 -4
-4 -4 -10z"/>
<path d="M174 546 c-10 -8 -16 -18 -11 -22 4 -4 7 -2 7 5 0 7 4 10 9 7 5 -3
11 1 15 9 7 19 5 19 -20 1z"/>
<path d="M2766 549 c3 -6 0 -15 -7 -20 -7 -4 -10 -11 -6 -16 9 -8 27 15 27 35
0 6 -5 12 -11 12 -5 0 -7 -5 -3 -11z"/>
<path d="M2951 544 c0 -11 3 -14 6 -6 3 7 2 16 -1 19 -3 4 -6 -2 -5 -13z"/>
<path d="M325 539 c-4 -6 -5 -12 -2 -15 2 -3 7 2 10 11 7 17 1 20 -8 4z"/>
<path d="M2680 545 c0 -5 4 -16 9 -23 6 -10 11 -9 22 4 11 14 11 16 0 10 -8
-5 -17 -3 -22 5 -5 8 -9 10 -9 4z"/>
<path d="M2798 545 c-4 -4 -4 -13 -1 -21 3 -8 0 -14 -6 -14 -6 0 -11 -5 -11
-12 0 -8 6 -7 16 4 9 8 14 23 12 33 -1 9 -6 14 -10 10z"/>
<path d="M2855 537 c20 -15 5 -34 -17 -21 -6 4 -8 3 -4 -4 3 -6 2 -13 -4 -17
-5 -3 -10 -11 -10 -16 0 -5 12 2 27 16 15 14 31 25 35 25 5 0 8 5 8 11 0 5 -4
8 -9 4 -5 -3 -12 -1 -16 5 -3 5 -11 10 -18 10 -6 0 -3 -6 8 -13z"/>
<path d="M246 531 c-4 -5 3 -7 14 -4 23 6 26 13 6 13 -8 0 -17 -4 -20 -9z"/>
<path d="M2917 521 c-3 -14 -1 -18 9 -14 16 6 18 19 5 27 -5 3 -11 -3 -14 -13z"/>
<path d="M140 515 c0 -8 4 -15 10 -15 5 0 7 7 4 15 -4 8 -8 15 -10 15 -2 0 -4
-7 -4 -15z"/>
<path d="M2654 509 c0 -10 4 -19 8 -19 4 0 8 6 8 14 0 8 -4 17 -8 20 -4 2 -8
-4 -8 -15z"/>
<path d="M172 490 c-9 -15 -9 -20 -1 -20 7 0 25 -14 41 -31 27 -28 29 -29 23
-7 -4 12 -8 23 -9 23 -14 0 -40 27 -38 39 4 21 -1 20 -16 -4z"/>
<path d="M305 500 c3 -5 8 -10 11 -10 2 0 4 5 4 10 0 6 -5 10 -11 10 -5 0 -7
-4 -4 -10z"/>
<path d="M56 487 c3 -10 9 -15 12 -12 3 3 0 11 -7 18 -10 9 -11 8 -5 -6z"/>
<path d="M2880 491 c0 -6 5 -13 10 -16 6 -3 10 1 10 9 0 9 -4 16 -10 16 -5 0
-10 -4 -10 -9z"/>
<path d="M2930 479 c0 -5 5 -7 10 -4 6 3 10 8 10 11 0 2 -4 4 -10 4 -5 0 -10
-5 -10 -11z"/>
<path d="M260 476 c0 -2 8 -10 18 -17 15 -13 16 -12 3 4 -13 16 -21 21 -21 13z"/>
<path d="M2860 470 c0 -5 5 -10 10 -10 6 0 10 5 10 10 0 6 -4 10 -10 10 -5 0
-10 -4 -10 -10z"/>
<path d="M2955 470 c-3 -5 -1 -10 4 -10 6 0 11 5 11 10 0 6 -2 10 -4 10 -3 0
-8 -4 -11 -10z"/>
<path d="M94 454 c9 -8 16 -23 17 -32 0 -14 2 -13 8 3 10 22 -4 45 -26 45 -12
0 -12 -3 1 -16z"/>
<path d="M2633 460 c1 -3 -4 -15 -11 -27 -17 -30 -12 -29 21 6 24 26 25 30 8
28 -11 0 -19 -4 -18 -7z"/>
<path d="M2843 444 c0 -25 3 -29 12 -20 7 6 9 13 5 16 -4 3 -9 12 -12 20 -3 8
-6 1 -5 -16z"/>
<path d="M40 450 c0 -5 5 -10 11 -10 5 0 7 5 4 10 -3 6 -8 10 -11 10 -2 0 -4
-4 -4 -10z"/>
<path d="M2760 450 c0 -5 5 -10 10 -10 6 0 10 5 10 10 0 6 -4 10 -10 10 -5 0
-10 -4 -10 -10z"/>
<path d="M2805 451 c-3 -5 -1 -12 5 -16 5 -3 10 1 10 9 0 18 -6 21 -15 7z"/>
<path d="M2930 452 c0 -7 -10 -13 -22 -13 -19 -1 -20 -2 -4 -6 20 -5 44 12 33
24 -4 3 -7 1 -7 -5z"/>
<path d="M255 440 c-3 -5 -1 -10 4 -10 6 0 11 5 11 10 0 6 -2 10 -4 10 -3 0
-8 -4 -11 -10z"/>
<path d="M2981 441 c-8 -5 -9 -11 -3 -15 5 -3 12 1 16 9 6 17 6 18 -13 6z"/>
<path d="M2670 429 c0 -5 5 -7 10 -4 6 3 10 8 10 11 0 2 -4 4 -10 4 -5 0 -10
-5 -10 -11z"/>
<path d="M30 411 c0 -6 4 -13 10 -16 6 -3 7 1 4 9 -7 18 -14 21 -14 7z"/>
<path d="M200 410 c0 -5 5 -10 10 -10 6 0 10 5 10 10 0 6 -4 10 -10 10 -5 0
-10 -4 -10 -10z"/>
<path d="M2795 410 c-3 -5 -1 -10 4 -10 6 0 11 5 11 10 0 6 -2 10 -4 10 -3 0
-8 -4 -11 -10z"/>
<path d="M299 389 c13 -11 26 -17 29 -15 7 8 -25 36 -40 36 -7 -1 -3 -9 11
-21z"/>
<path d="M2655 400 c-3 -5 -1 -10 4 -10 6 0 11 5 11 10 0 6 -2 10 -4 10 -3 0
-8 -4 -11 -10z"/>
<path d="M2941 378 c-10 -30 -9 -31 4 -14 8 11 15 26 15 33 0 22 -8 14 -19
-19z"/>
<path d="M80 386 c0 -8 4 -17 9 -20 5 -4 7 3 4 14 -6 23 -13 26 -13 6z"/>
<path d="M110 391 c0 -6 5 -11 10 -11 13 0 13 -37 0 -43 -6 -3 -5 -4 2 -3 19
4 21 41 3 56 -10 8 -15 9 -15 1z"/>
<path d="M171 384 c0 -11 3 -14 6 -6 3 7 2 16 -1 19 -3 4 -6 -2 -5 -13z"/>
<path d="M245 381 c-3 -5 -1 -12 5 -16 5 -3 10 1 10 9 0 18 -6 21 -15 7z"/>
<path d="M2720 380 c0 -13 11 -13 30 0 12 8 11 10 -7 10 -13 0 -23 -4 -23 -10z"/>
<path d="M2640 365 c-8 -9 -8 -15 -2 -15 12 0 26 19 19 26 -2 2 -10 -2 -17
-11z"/>
<path d="M2856 353 c-6 -14 -5 -15 5 -6 7 7 10 15 7 18 -3 3 -9 -2 -12 -12z"/>
<path d="M185 350 c3 -5 8 -10 11 -10 2 0 4 5 4 10 0 6 -5 10 -11 10 -5 0 -7
-4 -4 -10z"/>
<path d="M220 350 c0 -5 5 -10 11 -10 5 0 7 5 4 10 -3 6 -8 10 -11 10 -2 0 -4
-4 -4 -10z"/>
<path d="M340 349 c0 -5 5 -7 10 -4 6 3 10 8 10 11 0 2 -4 4 -10 4 -5 0 -10
-5 -10 -11z"/>
<path d="M2700 339 c0 -5 5 -7 10 -4 6 3 10 8 10 11 0 2 -4 4 -10 4 -5 0 -10
-5 -10 -11z"/>
<path d="M2960 340 c0 -5 7 -10 15 -10 8 0 15 5 15 10 0 6 -7 10 -15 10 -8 0
-15 -4 -15 -10z"/>
<path d="M150 331 c0 -6 4 -13 10 -16 6 -3 7 1 4 9 -7 18 -14 21 -14 7z"/>
<path d="M210 320 c0 -5 5 -10 11 -10 5 0 7 5 4 10 -3 6 -8 10 -11 10 -2 0 -4
-4 -4 -10z"/>
<path d="M2853 323 c9 -2 23 -2 30 0 6 3 -1 5 -18 5 -16 0 -22 -2 -12 -5z"/>
<path d="M2936 315 c-3 -8 -1 -15 4 -15 6 0 10 7 10 15 0 8 -2 15 -4 15 -2 0
-6 -7 -10 -15z"/>
<path d="M117 313 c-3 -5 1 -14 8 -20 11 -10 13 -9 12 7 -1 20 -12 26 -20 13z"/>
<path d="M248 313 c6 -2 18 -2 25 0 6 3 1 5 -13 5 -14 0 -19 -2 -12 -5z"/>
<path d="M2715 311 c-6 -11 9 -23 19 -14 9 9 7 23 -3 23 -6 0 -12 -4 -16 -9z"/>
<path d="M2661 286 c-8 -9 -8 -16 -2 -20 5 -4 12 -2 16 4 3 5 3 10 -2 10 -4 0
-1 5 7 10 8 5 10 10 4 10 -6 0 -17 -6 -23 -14z"/>
<path d="M310 280 c0 -5 5 -10 10 -10 6 0 10 5 10 10 0 6 -4 10 -10 10 -5 0
-10 -4 -10 -10z"/>
<path d="M350 281 c0 -17 18 -21 24 -6 3 9 0 15 -9 15 -8 0 -15 -4 -15 -9z"/>
<path d="M190 268 c0 -18 29 -57 30 -41 0 6 -5 15 -10 18 -6 4 -8 10 -5 15 3
5 1 11 -5 15 -5 3 -10 0 -10 -7z"/>
<path d="M2750 269 c0 -5 -5 -7 -12 -3 -7 4 -8 3 -4 -5 6 -9 11 -9 22 0 17 14
18 19 4 19 -5 0 -10 -5 -10 -11z"/>
<path d="M70 260 c0 -5 5 -10 10 -10 6 0 10 5 10 10 0 6 -4 10 -10 10 -5 0
-10 -4 -10 -10z"/>
<path d="M2936 263 c-11 -11 -6 -23 8 -23 8 0 17 4 20 9 7 10 -19 23 -28 14z"/>
<path d="M2775 250 c-3 -5 -1 -10 4 -10 6 0 11 5 11 10 0 6 -2 10 -4 10 -3 0
-8 -4 -11 -10z"/>
<path d="M2880 249 c-13 -9 -13 -10 1 -6 9 3 22 0 29 -6 10 -9 12 -9 8 2 -6
20 -20 23 -38 10z"/>
<path d="M260 239 c0 -5 5 -7 10 -4 6 3 10 8 10 11 0 2 -4 4 -10 4 -5 0 -10
-5 -10 -11z"/>
<path d="M2816 235 c-25 -19 -9 -19 24 0 14 8 19 14 10 14 -8 0 -24 -6 -34
-14z"/>
<path d="M455 230 c-3 -5 -1 -10 4 -10 6 0 11 5 11 10 0 6 -2 10 -4 10 -3 0
-8 -4 -11 -10z"/>
<path d="M2630 233 c8 -3 22 -9 31 -14 10 -5 16 -4 16 5 0 8 -13 13 -31 13
-17 1 -24 -2 -16 -4z"/>
<path d="M2975 230 c-3 -5 -1 -10 4 -10 6 0 11 5 11 10 0 6 -2 10 -4 10 -3 0
-8 -4 -11 -10z"/>
<path d="M170 215 c0 -8 7 -15 16 -15 14 0 14 3 4 15 -7 8 -14 15 -16 15 -2 0
-4 -7 -4 -15z"/>
<path d="M510 219 c0 -5 5 -7 10 -4 6 3 10 8 10 11 0 2 -4 4 -10 4 -5 0 -10
-5 -10 -11z"/>
<path d="M2565 220 c-3 -5 -1 -10 4 -10 6 0 11 5 11 10 0 6 -2 10 -4 10 -3 0
-8 -4 -11 -10z"/>
<path d="M2738 223 c6 -2 18 -2 25 0 6 3 1 5 -13 5 -14 0 -19 -2 -12 -5z"/>
<path d="M253 195 c-9 -21 -9 -25 4 -25 8 0 12 4 8 9 -3 5 -1 12 5 16 12 7 14
25 3 25 -5 0 -13 -11 -20 -25z"/>
<path d="M330 210 c0 -5 5 -10 10 -10 6 0 10 5 10 10 0 6 -4 10 -10 10 -5 0
-10 -4 -10 -10z"/>
<path d="M2535 210 c-3 -5 -1 -10 4 -10 6 0 11 5 11 10 0 6 -2 10 -4 10 -3 0
-8 -4 -11 -10z"/>
<path d="M2880 209 c0 -5 5 -7 10 -4 6 3 10 8 10 11 0 2 -4 4 -10 4 -5 0 -10
-5 -10 -11z"/>
<path d="M2910 210 c0 -5 5 -10 11 -10 5 0 7 5 4 10 -3 6 -8 10 -11 10 -2 0
-4 -4 -4 -10z"/>
<path d="M2945 210 c-3 -5 -1 -10 4 -10 6 0 11 5 11 10 0 6 -2 10 -4 10 -3 0
-8 -4 -11 -10z"/>
<path d="M485 199 c-9 -14 -2 -20 14 -10 8 6 9 11 3 15 -6 3 -14 1 -17 -5z"/>
<path d="M2356 195 c-3 -8 -1 -15 4 -15 6 0 10 7 10 15 0 8 -2 15 -4 15 -2 0
-6 -7 -10 -15z"/>
<path d="M2456 201 c-3 -5 1 -11 9 -14 9 -4 12 -1 8 9 -6 16 -10 17 -17 5z"/>
<path d="M2810 195 c-7 -8 -17 -12 -23 -8 -6 4 -7 1 -2 -7 4 -7 2 -16 -6 -21
-8 -5 -9 -9 -3 -9 12 0 58 50 51 56 -2 3 -10 -2 -17 -11z"/>
<path d="M2846 198 c3 -4 9 -8 15 -8 5 0 9 4 9 8 0 5 -7 9 -15 9 -8 0 -12 -4
-9 -9z"/>
<path d="M411 184 c0 -11 3 -14 6 -6 3 7 2 16 -1 19 -3 4 -6 -2 -5 -13z"/>
<path d="M550 181 c0 -5 7 -22 15 -37 9 -18 15 -23 15 -12 0 9 -5 20 -11 23
-6 4 -8 13 -5 21 3 8 1 14 -4 14 -6 0 -10 -4 -10 -9z"/>
<path d="M2210 179 c0 -5 -5 -7 -11 -3 -8 5 -8 1 0 -13 6 -11 7 -23 4 -27 -3
-3 -2 -6 4 -6 6 0 14 7 17 16 4 9 2 13 -5 8 -8 -4 -9 1 -4 15 3 11 4 21 1 21
-3 0 -6 -5 -6 -11z"/>
<path d="M2378 178 c-8 -21 -9 -28 0 -28 4 0 7 4 7 9 0 18 12 21 39 12 17 -7
26 -7 26 -1 0 6 -6 10 -12 10 -7 0 -23 3 -34 6 -13 3 -23 0 -26 -8z"/>
<path d="M2886 174 c-4 -9 -4 -19 -1 -22 2 -3 7 3 11 12 4 9 4 19 1 22 -2 3
-7 -3 -11 -12z"/>
<path d="M375 171 c-3 -5 -1 -12 5 -16 5 -3 10 1 10 9 0 18 -6 21 -15 7z"/>
<path d="M1995 170 c-3 -5 -1 -10 4 -10 6 0 11 5 11 10 0 6 -2 10 -4 10 -3 0
-8 -4 -11 -10z"/>
<path d="M2315 170 c3 -5 10 -10 16 -10 5 0 9 5 9 10 0 6 -7 10 -16 10 -8 0
-12 -4 -9 -10z"/>
<path d="M2525 170 c-3 -5 1 -10 10 -10 9 0 13 5 10 10 -3 6 -8 10 -10 10 -2
0 -7 -4 -10 -10z"/>
<path d="M2565 170 c3 -5 8 -10 11 -10 2 0 4 5 4 10 0 6 -5 10 -11 10 -5 0 -7
-4 -4 -10z"/>
<path d="M2697 173 c-4 -3 -7 -13 -7 -22 1 -13 3 -13 11 2 11 19 8 33 -4 20z"/>
<path d="M2735 170 c-3 -5 -1 -10 4 -10 6 0 11 5 11 10 0 6 -2 10 -4 10 -3 0
-8 -4 -11 -10z"/>
<path d="M2960 170 c-12 -8 -11 -10 8 -10 12 0 22 5 22 10 0 13 -11 13 -30 0z"/>
<path d="M107 146 c20 -26 27 -28 17 -3 -3 8 -12 18 -20 21 -11 4 -10 0 3 -18z"/>
<path d="M1020 155 c-8 -9 -8 -15 -2 -15 12 0 26 19 19 26 -2 2 -10 -2 -17
-11z"/>
<path d="M1134 161 c4 -5 0 -11 -6 -14 -7 -2 -9 -8 -5 -13 4 -5 12 -2 17 6 13
20 12 30 -1 30 -5 0 -8 -4 -5 -9z"/>
<path d="M1525 160 c-3 -5 -1 -10 4 -10 6 0 11 5 11 10 0 6 -2 10 -4 10 -3 0
-8 -4 -11 -10z"/>
<path d="M1630 161 c0 -5 7 -11 14 -14 10 -4 13 -1 9 9 -6 15 -23 19 -23 5z"/>
<path d="M1858 163 c-10 -2 -18 -9 -18 -14 0 -6 8 -5 20 1 11 6 20 13 20 15 0
3 -1 4 -2 4 -2 -1 -11 -3 -20 -6z"/>
<path d="M2090 160 c-9 -6 -10 -10 -3 -10 6 0 15 5 18 10 8 12 4 12 -15 0z"/>
<path d="M2598 142 c-14 -24 -15 -29 -3 -29 8 0 12 4 10 8 -3 3 2 12 10 19 16
13 20 30 7 30 -4 0 -15 -13 -24 -28z"/>
<path d="M2650 163 c0 -5 5 -15 10 -23 7 -12 9 -10 7 8 -1 19 -17 33 -17 15z"/>
<path d="M2922 150 c0 -14 2 -19 5 -12 2 6 2 18 0 25 -3 6 -5 1 -5 -13z"/>
<path d="M305 150 c3 -5 8 -10 11 -10 2 0 4 5 4 10 0 6 -5 10 -11 10 -5 0 -7
-4 -4 -10z"/>
<path d="M490 150 c0 -5 5 -10 11 -10 5 0 7 5 4 10 -3 6 -8 10 -11 10 -2 0 -4
-4 -4 -10z"/>
<path d="M660 149 c0 -5 5 -7 10 -4 6 3 10 8 10 11 0 2 -4 4 -10 4 -5 0 -10
-5 -10 -11z"/>
<path d="M695 150 c3 -5 8 -10 11 -10 2 0 4 5 4 10 0 6 -5 10 -11 10 -5 0 -7
-4 -4 -10z"/>
<path d="M830 149 c0 -5 5 -7 10 -4 6 3 10 8 10 11 0 2 -4 4 -10 4 -5 0 -10
-5 -10 -11z"/>
<path d="M1095 151 c-3 -5 -1 -12 5 -16 5 -3 10 1 10 9 0 18 -6 21 -15 7z"/>
<path d="M1810 150 c0 -5 5 -10 10 -10 6 0 10 5 10 10 0 6 -4 10 -10 10 -5 0
-10 -4 -10 -10z"/>
<path d="M2456 153 c-11 -11 -7 -20 9 -20 8 0 15 4 15 8 0 11 -16 20 -24 12z"/>
<path d="M2815 150 c-3 -5 -1 -10 4 -10 6 0 11 5 11 10 0 6 -2 10 -4 10 -3 0
-8 -4 -11 -10z"/>
<path d="M211 134 c0 -11 3 -14 6 -6 3 7 2 16 -1 19 -3 4 -6 -2 -5 -13z"/>
<path d="M1585 140 c-3 -5 -1 -10 4 -10 6 0 11 5 11 10 0 6 -2 10 -4 10 -3 0
-8 -4 -11 -10z"/>
<path d="M1960 140 c0 -5 5 -10 10 -10 6 0 10 5 10 10 0 6 -4 10 -10 10 -5 0
-10 -4 -10 -10z"/>
<path d="M2889 133 c-13 -16 -12 -17 4 -4 16 13 21 21 13 21 -2 0 -10 -8 -17
-17z"/>
<path d="M333 108 c-1 -17 1 -28 4 -24 10 10 14 44 5 50 -4 2 -8 -10 -9 -26z"/>
<path d="M730 125 c0 -8 2 -15 4 -15 2 0 6 7 10 15 3 8 1 15 -4 15 -6 0 -10
-7 -10 -15z"/>
<path d="M1180 130 c0 -5 5 -10 11 -10 5 0 7 5 4 10 -3 6 -8 10 -11 10 -2 0
-4 -4 -4 -10z"/>
<path d="M1690 135 c0 -2 10 -10 23 -16 20 -11 21 -11 8 4 -13 16 -31 23 -31
12z"/>
<path d="M1894 124 c4 -14 -1 -30 -14 -47 -30 -38 -24 -42 10 -7 35 36 35 36
14 58 -15 15 -16 15 -10 -4z"/>
<path d="M2318 133 c7 -3 16 -2 19 1 4 3 -2 6 -13 5 -11 0 -14 -3 -6 -6z"/>
<path d="M2552 124 c-7 -8 -17 -12 -23 -9 -5 4 -9 1 -9 -5 0 -7 8 -9 23 -4 27
8 30 10 26 22 -2 6 -10 4 -17 -4z"/>
<path d="M2745 130 c3 -5 8 -10 11 -10 2 0 4 5 4 10 0 6 -5 10 -11 10 -5 0 -7
-4 -4 -10z"/>
<path d="M2957 134 c-4 -4 -7 -14 -7 -23 0 -11 3 -12 11 -4 6 6 10 16 7 23 -2
6 -7 8 -11 4z"/>
<path d="M620 121 c0 -6 4 -13 10 -16 6 -3 7 1 4 9 -7 18 -14 21 -14 7z"/>
<path d="M1285 120 c4 -6 11 -8 16 -5 14 9 11 15 -7 15 -8 0 -12 -5 -9 -10z"/>
<path d="M1500 124 c0 -3 7 -12 15 -20 16 -17 18 -14 9 10 -6 15 -24 23 -24
10z"/>
<path d="M2395 120 c-3 -6 1 -7 9 -4 18 7 21 14 7 14 -6 0 -13 -4 -16 -10z"/>
<path d="M2848 123 c7 -3 16 -2 19 1 4 3 -2 6 -13 5 -11 0 -14 -3 -6 -6z"/>
<path d="M291 104 c0 -11 3 -14 6 -6 3 7 2 16 -1 19 -3 4 -6 -2 -5 -13z"/>
<path d="M535 110 c3 -5 8 -10 11 -10 2 0 4 5 4 10 0 6 -5 10 -11 10 -5 0 -7
-4 -4 -10z"/>
<path d="M2183 113 c4 -3 2 -12 -4 -20 -9 -10 -8 -13 1 -13 7 0 10 -7 7 -15
-4 -8 -2 -17 2 -20 5 -3 12 3 15 12 4 9 2 19 -4 23 -6 4 -8 14 -4 23 4 11 1
17 -7 17 -7 0 -9 -3 -6 -7z"/>
<path d="M2257 100 c-3 -11 -1 -20 4 -20 5 0 9 9 9 20 0 11 -2 20 -4 20 -2 0
-6 -9 -9 -20z"/>
<path d="M2299 100 c-13 -10 -20 -19 -16 -20 4 0 17 9 29 20 28 26 17 26 -13
0z"/>
<path d="M2480 106 c7 -7 14 -6 21 1 9 9 7 12 -9 10 -14 -1 -18 -5 -12 -11z"/>
<path d="M2675 110 c3 -5 8 -10 11 -10 2 0 4 5 4 10 0 6 -5 10 -11 10 -5 0 -7
-4 -4 -10z"/>
<path d="M53 96 c4 -10 7 -22 7 -27 0 -5 4 -9 9 -9 14 0 7 43 -8 48 -10 3 -12
0 -8 -12z"/>
<path d="M430 103 c1 -4 12 -21 26 -38 22 -26 24 -27 13 -5 -14 27 -39 56 -39
43z"/>
<path d="M707 94 c6 -16 19 -18 27 -5 3 5 -3 11 -13 14 -14 3 -18 1 -14 -9z"/>
<path d="M935 101 c-3 -5 -1 -12 5 -16 5 -3 10 1 10 9 0 18 -6 21 -15 7z"/>
<path d="M1065 101 c-3 -5 -1 -12 5 -16 5 -3 10 1 10 9 0 18 -6 21 -15 7z"/>
<path d="M1570 99 c0 -5 5 -7 10 -4 6 3 10 8 10 11 0 2 -4 4 -10 4 -5 0 -10
-5 -10 -11z"/>
<path d="M1845 100 c3 -5 8 -10 11 -10 2 0 4 5 4 10 0 6 -5 10 -11 10 -5 0 -7
-4 -4 -10z"/>
<path d="M2130 100 c-24 -15 -7 -19 20 -5 15 8 19 14 10 14 -8 1 -22 -3 -30
-9z"/>
<path d="M2440 100 c-8 -5 -12 -12 -9 -15 4 -3 12 1 19 10 14 17 11 19 -10 5z"/>
<path d="M2634 99 c-3 -6 -3 -13 0 -16 3 -4 6 -1 6 6 0 7 4 10 9 7 10 -7 -9
-56 -22 -56 -5 0 -5 -5 -1 -11 4 -8 14 1 25 22 10 19 18 37 19 40 0 12 -29 18
-36 8z"/>
<path d="M2740 100 c0 -5 5 -10 10 -10 6 0 10 5 10 10 0 6 -4 10 -10 10 -5 0
-10 -4 -10 -10z"/>
<path d="M2870 94 c-9 -10 -9 -14 -1 -14 6 0 11 4 11 10 0 5 7 7 15 4 8 -4 15
-4 15 -1 0 13 -30 14 -40 1z"/>
<path d="M2920 100 c0 -5 5 -10 10 -10 6 0 10 5 10 10 0 6 -4 10 -10 10 -5 0
-10 -4 -10 -10z"/>
<path d="M120 90 c0 -5 7 -10 16 -10 8 0 12 5 9 10 -3 6 -10 10 -16 10 -5 0
-9 -4 -9 -10z"/>
<path d="M566 85 c4 -8 11 -15 16 -15 6 0 5 6 -2 15 -7 8 -14 15 -16 15 -2 0
-1 -7 2 -15z"/>
<path d="M840 90 c0 -5 7 -7 15 -4 8 4 15 8 15 10 0 2 -7 4 -15 4 -8 0 -15 -4
-15 -10z"/>
<path d="M1140 89 c0 -5 5 -7 10 -4 6 3 10 8 10 11 0 2 -4 4 -10 4 -5 0 -10
-5 -10 -11z"/>
<path d="M1641 97 c2 -2 12 -9 22 -16 14 -11 17 -11 17 1 0 7 -10 14 -21 15
-12 1 -20 1 -18 0z"/>
<path d="M1770 89 c0 -5 5 -7 10 -4 6 3 10 8 10 11 0 2 -4 4 -10 4 -5 0 -10
-5 -10 -11z"/>
<path d="M1826 85 c10 -8 23 -15 28 -15 6 0 1 7 -10 15 -10 8 -23 15 -28 15
-6 0 -1 -7 10 -15z"/>
<path d="M2330 90 c-8 -5 -10 -10 -5 -10 6 0 17 5 25 10 8 5 11 10 5 10 -5 0
-17 -5 -25 -10z"/>
<path d="M2701 77 c0 -16 -5 -26 -10 -22 -5 3 -12 1 -16 -5 -3 -5 1 -10 10
-10 18 0 29 21 22 47 -3 12 -5 8 -6 -10z"/>
<path d="M270 85 c0 -5 5 -17 10 -25 5 -8 10 -10 10 -5 0 6 -5 17 -10 25 -5 8
-10 11 -10 5z"/>
<path d="M770 75 c14 -17 30 -20 30 -4 0 5 -4 7 -10 4 -5 -3 -10 -1 -10 4 0 6
-5 11 -11 11 -8 0 -8 -5 1 -15z"/>
<path d="M1968 83 c7 -3 16 -2 19 1 4 3 -2 6 -13 5 -11 0 -14 -3 -6 -6z"/>
<path d="M2545 79 c-4 -6 -5 -12 -2 -15 2 -3 7 2 10 11 7 17 1 20 -8 4z"/>
<path d="M2570 79 c0 -5 5 -7 10 -4 6 3 10 8 10 11 0 2 -4 4 -10 4 -5 0 -10
-5 -10 -11z"/>
<path d="M2795 80 c-3 -5 -1 -10 4 -10 6 0 11 5 11 10 0 6 -2 10 -4 10 -3 0
-8 -4 -11 -10z"/>
<path d="M2830 80 c0 -5 5 -10 11 -10 5 0 7 5 4 10 -3 6 -8 10 -11 10 -2 0 -4
-4 -4 -10z"/>
<path d="M205 70 c3 -5 8 -10 11 -10 2 0 4 5 4 10 0 6 -5 10 -11 10 -5 0 -7
-4 -4 -10z"/>
<path d="M345 70 c-3 -5 -1 -10 4 -10 6 0 11 5 11 10 0 6 -2 10 -4 10 -3 0 -8
-4 -11 -10z"/>
<path d="M393 55 c7 -13 14 -20 15 -15 2 6 8 8 13 4 14 -8 11 6 -5 22 -23 23
-35 17 -23 -11z"/>
<path d="M1705 70 c-20 -9 -20 -9 0 -9 11 0 27 4 35 9 13 9 13 10 0 9 -8 0
-24 -4 -35 -9z"/>
<path d="M2005 70 c3 -5 8 -10 11 -10 2 0 4 5 4 10 0 6 -5 10 -11 10 -5 0 -7
-4 -4 -10z"/>
<path d="M2146 64 c-9 -23 -8 -24 12 -23 9 0 12 3 5 5 -7 3 -9 12 -6 20 3 8 3
14 0 14 -3 0 -8 -7 -11 -16z"/>
<path d="M2360 66 c-6 -9 -10 -21 -8 -28 3 -8 9 -4 17 10 15 28 9 39 -9 18z"/>
<path d="M2400 70 c0 -5 5 -10 11 -10 5 0 7 5 4 10 -3 6 -8 10 -11 10 -2 0 -4
-4 -4 -10z"/>
<path d="M2735 63 c-8 -23 -6 -29 5 -13 8 12 11 13 19 1 6 -9 11 -10 15 -2 4
6 2 11 -4 11 -6 0 -9 4 -6 8 3 5 -1 9 -9 9 -8 0 -17 -7 -20 -14z"/>
<path d="M1370 59 c0 -5 5 -7 10 -4 6 3 10 8 10 11 0 2 -4 4 -10 4 -5 0 -10
-5 -10 -11z"/>
<path d="M1813 63 c-15 -5 -17 -23 -4 -23 5 0 11 7 15 15 3 8 4 15 3 14 -1 0
-8 -3 -14 -6z"/>
<path d="M2476 58 c3 -4 9 -8 15 -8 5 0 9 4 9 8 0 5 -7 9 -15 9 -8 0 -12 -4
-9 -9z"/>
<path d="M2605 60 c-3 -5 -1 -10 4 -10 6 0 11 5 11 10 0 6 -2 10 -4 10 -3 0
-8 -4 -11 -10z"/>
<path d="M2971 54 c0 -11 3 -14 6 -6 3 7 2 16 -1 19 -3 4 -6 -2 -5 -13z"/>
<path d="M1050 49 c0 -5 5 -7 10 -4 6 3 10 8 10 11 0 2 -4 4 -10 4 -5 0 -10
-5 -10 -11z"/>
<path d="M1295 50 c-3 -5 1 -10 10 -10 9 0 13 5 10 10 -3 6 -8 10 -10 10 -2 0
-7 -4 -10 -10z"/>
<path d="M2055 50 c-3 -5 -2 -10 4 -10 5 0 13 5 16 10 3 6 2 10 -4 10 -5 0
-13 -4 -16 -10z"/>
<path d="M2290 49 c0 -5 5 -7 10 -4 6 3 10 8 10 11 0 2 -4 4 -10 4 -5 0 -10
-5 -10 -11z"/>
<path d="M2835 50 c-16 -7 -17 -9 -3 -9 9 -1 20 4 23 9 7 11 7 11 -20 0z"/>
<path d="M170 41 c0 -5 5 -13 10 -16 6 -3 10 -2 10 4 0 5 -4 13 -10 16 -5 3
-10 2 -10 -4z"/>
<path d="M225 39 c-4 -6 -5 -12 -2 -15 2 -3 7 2 10 11 7 17 1 20 -8 4z"/>
<path d="M311 34 c0 -11 3 -14 6 -6 3 7 2 16 -1 19 -3 4 -6 -2 -5 -13z"/>
<path d="M620 30 c6 -11 13 -20 16 -20 2 0 0 9 -6 20 -6 11 -13 20 -16 20 -2
0 0 -9 6 -20z"/>
<path d="M1100 41 c0 -6 4 -13 10 -16 6 -3 7 1 4 9 -7 18 -14 21 -14 7z"/>
<path d="M1390 34 c-24 -13 -24 -14 -4 -14 12 0 24 7 28 15 3 8 4 15 3 14 -1
-1 -13 -7 -27 -15z"/>
<path d="M1576 33 c-6 -14 -5 -15 5 -6 7 7 10 15 7 18 -3 3 -9 -2 -12 -12z"/>
<path d="M2790 39 c0 -5 5 -7 10 -4 6 3 10 8 10 11 0 2 -4 4 -10 4 -5 0 -10
-5 -10 -11z"/>
<path d="M2865 40 c-3 -5 -1 -10 4 -10 6 0 11 5 11 10 0 6 -2 10 -4 10 -3 0
-8 -4 -11 -10z"/>
<path d="M1010 31 c0 -5 7 -11 15 -15 8 -3 15 -1 15 3 0 5 -7 11 -15 15 -8 3
-15 1 -15 -3z"/>
<path d="M1890 31 c0 -5 5 -13 10 -16 6 -3 10 -2 10 4 0 5 -4 13 -10 16 -5 3
-10 2 -10 -4z"/>
<path d="M2085 30 c3 -5 8 -10 11 -10 2 0 4 5 4 10 0 6 -5 10 -11 10 -5 0 -7
-4 -4 -10z"/>
<path d="M2406 23 c-6 -14 -5 -15 5 -6 7 7 10 15 7 18 -3 3 -9 -2 -12 -12z"/>
<path d="M2476 23 c-6 -14 -5 -15 5 -6 7 7 10 15 7 18 -3 3 -9 -2 -12 -12z"/>
<path d="M740 20 c-9 -6 -10 -10 -3 -10 6 0 15 5 18 10 8 12 4 12 -15 0z"/>
<path d="M1500 15 c-7 -9 -8 -15 -2 -15 5 0 12 7 16 15 7 19 2 19 -14 0z"/>
<path d="M1930 22 c0 -4 9 -8 20 -9 11 -1 20 2 20 8 0 5 -9 9 -20 9 -11 0 -20
-4 -20 -8z"/>
<path d="M2050 20 c0 -5 5 -10 11 -10 5 0 7 5 4 10 -3 6 -8 10 -11 10 -2 0 -4
-4 -4 -10z"/>
<path d="M2756 13 c-6 -14 -5 -15 5 -6 7 7 10 15 7 18 -3 3 -9 -2 -12 -12z"/>
<path d="M2811 14 c0 -11 3 -14 6 -6 3 7 2 16 -1 19 -3 4 -6 -2 -5 -13z"/>
<path d="M2945 20 c3 -5 10 -10 16 -10 5 0 9 5 9 10 0 6 -7 10 -16 10 -8 0
-12 -4 -9 -10z"/>
<path d="M2890 10 c0 -5 5 -10 11 -10 5 0 7 5 4 10 -3 6 -8 10 -11 10 -2 0 -4
-4 -4 -10z"/>
</g>
</svg>
