<?xml version="1.0" standalone="no"?>
<!DOCTYPE svg PUBLIC "-//W3C//DTD SVG 20010904//EN"
 "http://www.w3.org/TR/2001/REC-SVG-20010904/DTD/svg10.dtd">
<svg version="1.0" xmlns="http://www.w3.org/2000/svg"
 width="500.000000pt" height="500.000000pt" viewBox="0 0 500.000000 500.000000"
 preserveAspectRatio="xMidYMid meet">
<metadata>
Created by potrace 1.15, written by Peter Selinger 2001-2017
</metadata>
<g transform="translate(0.000000,500.000000) scale(0.100000,-0.100000)"
fill="#000000" stroke="none">
<path d="M2210 3270 c-107 -4 -204 -8 -216 -9 -12 0 -33 -12 -47 -25 -21 -19
-26 -35 -31 -97 -11 -145 -15 -363 -9 -471 6 -98 9 -113 30 -134 18 -18 35
-24 71 -25 26 0 56 -2 67 -5 35 -7 468 -21 489 -16 39 11 -22 20 -135 21 -150
1 -167 6 -171 45 -2 22 -7 30 -18 26 -30 -8 -115 -7 -127 3 -9 6 -13 6 -13 -2
0 -7 -9 -9 -25 -5 -21 5 -25 3 -25 -15 0 -18 -6 -21 -40 -21 -31 0 -43 5 -56
25 -8 13 -13 29 -9 35 4 6 2 16 -3 23 -22 27 -15 515 9 557 6 11 8 8 9 -11 0
-15 7 -32 15 -39 13 -10 15 -9 15 9 0 27 14 27 33 -1 19 -30 34 -16 19 18 -9
18 -9 31 -2 45 6 11 8 24 5 29 -3 6 1 10 10 10 9 0 57 4 108 9 51 6 231 12
401 15 170 3 311 8 314 11 7 7 -416 3 -668 -5z"/>
<path d="M1505 1213 c17 -16 418 -59 685 -73 251 -14 999 -13 1245 0 263 15
365 30 160 24 -754 -21 -1305 -15 -1605 16 -52 5 -158 15 -235 21 -77 6 -167
13 -200 16 -39 3 -56 2 -50 -4z"/>
</g>
</svg>
