<?xml version="1.0" standalone="no"?>
<!DOCTYPE svg PUBLIC "-//W3C//DTD SVG 20010904//EN"
 "http://www.w3.org/TR/2001/REC-SVG-20010904/DTD/svg10.dtd">
<svg version="1.0" xmlns="http://www.w3.org/2000/svg"
 width="767.000000pt" height="500.000000pt" viewBox="0 0 767.000000 500.000000"
 preserveAspectRatio="xMidYMid meet">
<metadata>
Created by potrace 1.15, written by Peter Selinger 2001-2017
</metadata>
<g transform="translate(0.000000,500.000000) scale(0.100000,-0.100000)"
fill="#000000" stroke="none">
<path d="M0 3735 c1 -716 5 -1267 10 -1270 8 -5 40 20 40 31 0 3 -5 14 -10 25
-9 16 -7 19 13 19 13 0 26 -3 30 -6 6 -6 -10 -50 -27 -73 -6 -8 -10 -26 -9
-40 2 -14 0 -20 -3 -13 -3 6 -12 12 -19 12 -7 0 -16 6 -18 13 -3 6 -6 -70 -6
-171 -1 -192 3 -212 44 -212 12 0 15 -5 11 -16 -3 -9 -6 -24 -6 -35 0 -10 -4
-19 -10 -19 -5 0 -10 14 -10 30 0 20 -5 30 -15 30 -12 0 -15 -16 -15 -88 0
-55 4 -92 12 -100 9 -9 9 -12 1 -12 -9 0 -12 -239 -12 -920 l-1 -920 94 0 c90
0 95 1 99 23 l4 22 2 -22 1 -23 299 0 c230 0 300 3 304 13 4 10 7 10 18 0 7
-7 38 -13 68 -13 53 0 54 0 37 19 -14 16 -23 18 -43 10 -13 -5 -26 -9 -27 -9
-6 0 0 86 8 98 4 6 14 12 21 12 11 0 12 -6 5 -26 -12 -32 -12 -34 1 -34 6 0
25 -11 43 -25 18 -14 36 -22 39 -18 4 3 7 -1 7 -10 0 -10 8 -17 20 -17 11 0
20 7 20 15 0 19 16 19 24 0 3 -9 19 -15 41 -15 37 0 44 10 20 30 -17 14 -20
30 -6 30 5 0 12 -8 15 -18 10 -29 56 -40 179 -41 96 0 117 2 117 14 0 8 -10
20 -22 26 -13 7 -27 18 -31 25 -14 24 -45 15 -64 -16 -18 -31 -40 -42 -29 -15
3 9 0 15 -9 15 -21 0 -21 76 0 84 17 6 20 37 5 52 -14 14 15 84 34 84 19 0 29
59 14 77 -7 8 -11 28 -10 43 3 34 -11 46 -28 25 -14 -17 -9 -61 8 -58 7 2 12
-8 12 -22 0 -18 -5 -25 -20 -25 -13 0 -20 -7 -20 -18 0 -10 -11 -29 -25 -42
l-25 -23 -6 31 c-4 21 -17 38 -40 51 -19 11 -34 16 -34 11 0 -6 -7 -10 -15
-10 -8 0 -15 -7 -15 -16 0 -11 -6 -14 -20 -9 -11 4 -20 2 -20 -4 0 -15 -21
-13 -44 4 -19 14 -13 41 7 28 16 -10 47 -14 47 -7 0 4 -7 12 -16 19 -19 14
-34 112 -15 101 8 -5 10 -19 6 -38 -5 -20 -4 -28 3 -24 6 3 16 0 24 -7 30 -31
76 -10 74 33 -1 19 5 26 21 28 17 3 21 -1 17 -12 -3 -8 -2 -21 2 -28 5 -7 7
-23 5 -35 -1 -13 3 -23 9 -23 8 0 10 8 7 21 -4 15 1 23 19 31 31 14 30 21 -4
53 -21 20 -33 24 -56 19 -19 -4 -31 -2 -37 7 -6 10 -9 11 -9 2 0 -7 -5 -13
-11 -13 -5 0 -7 5 -3 12 4 6 -1 17 -11 24 -10 7 -15 20 -12 28 8 19 -16 38
-37 30 -15 -6 -20 -16 -17 -39 1 -12 -46 -35 -71 -35 -10 0 -18 5 -18 10 0 6
11 10 25 10 19 0 25 5 25 23 0 12 -4 17 -8 12 -4 -6 -22 -12 -39 -13 -31 -3
-33 -1 -33 27 0 17 -4 31 -10 31 -5 0 -10 7 -10 16 0 14 3 14 15 4 9 -7 17
-11 18 -9 37 51 39 79 7 79 -27 0 -62 -39 -85 -96 -20 -48 -20 -49 -2 -67 13
-13 15 -22 8 -31 -8 -10 -6 -17 7 -28 31 -27 40 -29 35 -8 -3 11 -12 20 -20
20 -8 0 -11 5 -8 11 5 6 16 4 33 -7 39 -25 114 -105 107 -113 -4 -3 -15 4 -26
17 -20 26 -52 26 -57 0 -2 -9 8 -27 22 -41 17 -17 23 -31 19 -47 -4 -13 0 -26
8 -31 12 -8 12 -11 -1 -19 -30 -20 -48 -11 -55 28 -5 20 -7 49 -6 65 1 15 -2
27 -8 27 -6 0 -11 6 -11 13 0 7 -11 23 -25 35 -14 12 -25 29 -25 37 0 9 -9 15
-22 15 -20 0 -23 6 -25 40 -2 28 2 43 12 46 10 4 11 12 5 28 -5 15 -4 31 5 47
8 13 17 30 21 37 9 17 -16 45 -30 34 -6 -5 -21 -12 -34 -15 -18 -4 -23 0 -28
21 -10 47 -13 52 -33 52 -10 0 -21 8 -25 18 -3 9 -9 23 -12 30 -4 8 5 12 30
12 34 0 35 0 30 37 l-5 38 20 -24 c20 -22 26 -46 21 -80 -1 -11 2 -11 14 2 22
22 59 32 64 18 7 -21 30 -11 36 15 4 15 5 29 1 32 -3 3 -5 -2 -5 -11 0 -10 -4
-17 -10 -17 -5 0 -10 11 -10 23 0 28 -31 60 -52 52 -10 -4 -17 6 -24 37 -7 34
-13 43 -29 41 -11 -1 -23 4 -28 10 -5 7 -6 3 -2 -10 8 -28 -6 -30 -29 -4 -17
18 -17 20 1 30 16 9 16 12 3 21 -9 5 -10 10 -3 10 6 0 18 3 27 6 9 3 24 -4 38
-19 13 -13 32 -26 43 -29 15 -2 20 -11 20 -34 0 -33 16 -53 58 -72 27 -11 29
-10 38 18 13 36 19 37 44 8 17 -20 20 -21 23 -5 2 9 9 17 15 17 18 0 52 -69
49 -96 -2 -13 1 -25 7 -25 6 -1 16 -3 21 -4 6 -1 26 -3 45 -4 24 -1 42 -9 58
-27 18 -21 28 -25 57 -20 46 7 65 -6 65 -45 0 -41 22 -50 27 -12 3 24 8 28 39
31 35 3 36 2 31 -24 -4 -20 -1 -25 9 -22 8 3 13 12 11 21 -2 14 4 16 45 11 26
-4 55 -13 65 -21 11 -10 18 -11 23 -4 14 23 137 3 132 -22 -4 -19 36 -20 50
-1 8 10 13 13 13 5 0 -8 7 -10 19 -6 10 3 38 1 62 -4 24 -6 80 -13 124 -16 44
-3 81 -10 83 -15 2 -6 11 -6 23 1 14 7 37 6 77 -2 31 -6 114 -19 183 -28 69
-9 134 -22 142 -30 14 -11 18 -11 23 4 5 13 14 15 48 10 22 -4 46 -11 53 -17
7 -5 12 -5 15 1 2 6 22 6 53 1 28 -5 89 -11 137 -13 47 -3 92 -8 99 -13 7 -4
50 -7 95 -5 50 1 85 -2 89 -8 3 -6 16 -11 29 -11 12 0 27 -5 34 -12 9 -9 12
-8 12 4 0 14 12 16 78 13 89 -3 112 -10 112 -34 0 -23 37 -39 75 -32 24 5 31
12 33 35 l4 29 111 -7 c132 -8 179 -8 230 0 33 5 39 3 44 -15 3 -12 10 -21 15
-21 6 0 8 7 4 15 -5 13 19 15 177 16 100 1 267 3 371 5 160 3 191 1 204 -13
14 -14 17 -14 28 1 11 15 12 15 19 -1 6 -17 7 -17 19 -1 10 14 44 17 226 23
118 4 238 11 267 14 47 7 55 5 68 -13 l14 -21 7 23 c8 27 24 29 24 2 0 -30 36
-26 44 5 6 24 10 25 76 25 38 0 72 -5 75 -11 5 -7 14 -4 26 7 13 12 45 20 97
24 42 4 80 5 84 3 12 -6 4 -47 -14 -71 -11 -17 -22 -22 -36 -18 -12 4 -24 2
-28 -6 -4 -6 -2 -14 4 -16 7 -2 12 -12 12 -23 0 -28 35 -24 48 6 6 14 18 25
27 25 18 0 19 12 3 28 -9 9 -8 12 5 12 9 0 17 4 17 9 0 5 3 16 6 25 4 11 0 16
-12 16 -11 0 -14 3 -8 9 5 4 77 13 161 20 83 6 174 16 202 22 27 6 62 9 78 7
l28 -3 -21 -20 c-25 -24 -38 -55 -23 -55 6 0 13 9 16 20 6 21 28 27 38 10 3
-6 10 -10 15 -10 13 0 21 33 10 44 -5 5 -10 13 -10 17 0 10 92 17 116 8 11 -4
27 -3 35 2 11 7 10 9 -6 9 -17 1 -15 3 8 16 15 8 37 12 48 9 11 -4 26 -1 34 5
11 9 18 10 29 1 10 -9 16 -8 26 4 7 9 20 13 27 10 13 -4 93 69 93 86 0 14 -53
-5 -57 -21 -6 -21 -53 -34 -53 -15 0 13 28 30 43 27 4 -1 7 6 7 17 0 16 7 18
55 17 30 0 50 -3 45 -4 -13 -5 -13 -32 0 -33 29 -5 35 -2 40 21 4 17 12 24 24
22 10 -2 15 1 12 6 -3 6 11 24 32 42 30 25 33 31 15 27 -19 -4 -23 -1 -23 19
0 13 6 24 13 24 8 0 24 11 36 24 19 20 21 28 12 44 -14 27 -14 32 4 32 17 0
39 36 30 50 -10 17 -34 11 -46 -11 -8 -16 -18 -20 -42 -17 l-32 3 2 -52 c1
-35 -3 -53 -12 -57 -14 -5 -29 20 -20 34 3 4 -2 11 -10 14 -14 5 -14 8 1 31
13 20 14 26 3 29 -48 15 -47 13 -39 51 4 19 6 44 3 54 -3 11 0 28 6 38 7 14 7
23 0 30 -7 7 -7 23 0 49 6 22 11 51 11 65 0 16 6 26 15 26 8 0 15 -3 15 -7 0
-4 7 -7 15 -7 8 0 15 6 15 14 0 7 -4 13 -10 13 -5 0 -10 7 -10 16 0 11 -6 15
-20 11 -17 -4 -19 -1 -14 21 4 15 13 37 21 50 7 12 11 27 7 33 -11 18 6 79 22
79 8 0 17 8 21 18 12 33 36 53 56 46 11 -3 22 -2 26 4 4 7 22 3 50 -10 l44
-20 23 28 c29 33 29 35 7 55 -10 9 -23 24 -29 35 -10 17 -12 16 -25 -11 -8
-16 -23 -31 -34 -34 -11 -2 -24 -9 -30 -17 -6 -8 -19 -11 -32 -8 -17 5 -23 14
-24 38 -1 29 -2 30 -8 5 -3 -14 -16 -38 -28 -55 -19 -25 -22 -27 -28 -11 -4
10 0 28 9 42 9 14 14 30 11 35 -3 5 0 12 6 15 5 4 7 14 4 24 -4 9 -9 25 -10
36 -2 11 -7 35 -11 53 -8 40 12 45 22 5 4 -15 15 -36 25 -47 18 -19 19 -19 30
10 7 18 8 38 2 54 -7 21 -15 25 -46 24 -44 -2 -48 16 -17 70 l21 34 -21 7
c-12 4 -17 11 -13 18 4 7 6 64 4 129 -3 110 -2 116 18 123 25 7 27 23 6 31 -8
4 -15 16 -15 29 0 18 4 21 25 17 18 -3 25 0 25 11 0 17 -24 29 -44 21 -11 -4
-12 3 -6 37 5 24 5 52 0 63 -12 33 0 84 26 109 33 31 33 55 -1 33 -18 -12 -25
-13 -25 -4 -1 7 -5 32 -9 56 -6 32 -5 47 5 57 19 18 18 42 -2 53 -9 5 -14 18
-12 28 5 23 48 22 61 -1 4 -8 17 -15 27 -15 16 0 20 7 20 31 0 26 -3 29 -20
24 -25 -8 -37 18 -22 48 14 30 25 97 15 97 -5 0 -14 -9 -21 -20 -7 -11 -20
-20 -30 -20 -23 0 -26 -37 -7 -67 19 -29 19 -33 -4 -33 -24 0 -27 16 -21 94 4
54 8 61 28 64 13 2 26 11 29 20 3 9 18 33 32 52 18 24 26 48 26 75 0 38 2 40
29 40 23 0 31 6 36 25 10 39 11 180 2 180 -5 0 -25 13 -43 30 -19 16 -37 30
-41 30 -5 0 -8 6 -8 14 0 14 -29 31 -38 21 -3 -2 0 -10 6 -18 13 -15 4 -31
-20 -40 -11 -4 -15 -12 -12 -22 7 -18 35 -20 52 -3 9 9 12 8 12 -4 0 -9 9 -20
20 -23 23 -7 44 -41 35 -56 -4 -5 -2 -16 4 -22 14 -17 7 -68 -10 -77 -8 -5
-22 -2 -33 6 -11 8 -14 14 -8 14 15 0 16 36 2 45 -6 3 -10 14 -10 25 0 16 -3
17 -25 7 -28 -13 -30 -20 -15 -48 8 -13 7 -19 0 -19 -6 0 0 -15 14 -33 30 -39
32 -47 10 -47 -11 0 -14 -8 -12 -32 3 -29 0 -33 -19 -31 -13 2 -23 -2 -23 -7
0 -19 -18 -10 -25 13 -9 27 -12 87 -4 87 3 0 14 7 25 16 18 15 18 15 -8 11
-17 -3 -29 1 -32 10 -12 30 -5 71 15 94 19 22 19 24 3 36 -10 7 -21 13 -26 13
-4 0 -7 12 -7 28 0 15 -2 68 -5 118 -6 81 -4 92 14 112 12 12 30 22 42 22 18
0 19 4 14 34 -7 37 13 69 38 60 23 -9 25 -41 5 -60 -13 -11 -16 -21 -9 -29 14
-16 0 -57 -27 -79 -33 -25 -26 -50 14 -52 21 -1 38 5 50 18 17 19 17 20 -7 39
-21 16 -23 20 -10 29 21 14 30 12 30 -5 0 -8 8 -16 18 -17 51 -5 82 -3 83 7 0
5 6 -6 13 -25 14 -39 46 -54 46 -21 0 11 5 23 11 27 6 3 9 15 6 25 -7 26 6 24
18 -3 6 -13 19 -23 30 -23 11 0 21 -8 23 -19 3 -14 0 -17 -13 -12 -14 5 -16 2
-11 -16 20 -69 19 -78 -3 -78 -17 0 -21 6 -21 35 0 29 -3 33 -17 28 -10 -4
-21 -11 -24 -16 -9 -13 0 -69 13 -84 6 -7 8 -20 4 -28 -3 -10 1 -15 12 -15 9
0 24 -5 32 -10 13 -9 13 -12 -2 -20 -23 -14 -11 -40 18 -40 26 0 33 27 13 47
-18 18 -1 53 27 53 14 0 24 -6 24 -14 0 -8 9 -18 21 -21 25 -8 20 -29 -9 -33
-18 -3 -22 -10 -22 -36 0 -19 6 -39 14 -45 17 -14 9 -52 -9 -45 -18 7 -24 -7
-14 -35 6 -15 14 -21 24 -17 10 3 15 -1 15 -13 0 -11 6 -22 13 -24 7 -3 4 -6
-7 -6 -13 -1 -16 -6 -11 -18 10 -26 10 -26 -5 -57 -12 -24 -12 -30 1 -40 8 -6
18 -19 22 -28 3 -10 16 -18 27 -18 16 0 20 -6 20 -35 0 -31 3 -35 25 -35 20 0
27 6 31 29 7 33 32 49 41 25 5 -13 9 -12 29 7 20 19 24 20 30 6 10 -27 -14
-57 -46 -57 -35 0 -44 -11 -27 -34 13 -17 47 -13 47 5 0 5 5 9 10 9 6 0 10
-14 10 -30 0 -28 -2 -30 -27 -24 -16 4 -38 10 -49 15 -25 9 -44 -6 -44 -34 0
-30 -32 -75 -62 -88 -17 -7 -28 -19 -28 -30 0 -11 -4 -19 -10 -19 -18 0 -11
29 10 42 30 19 26 42 -5 34 -37 -9 -60 -37 -63 -74 -2 -28 1 -32 22 -32 13 0
27 -7 30 -16 8 -22 8 -26 -4 -19 -6 4 -13 -7 -16 -24 -4 -17 -12 -31 -19 -31
-13 0 -27 -24 -29 -47 -1 -7 -10 -19 -21 -27 -25 -18 -18 -26 18 -19 18 4 37
19 54 44 24 37 67 62 108 64 14 0 21 8 23 28 4 33 -24 49 -43 23 -11 -15 -13
-13 -18 16 -4 27 -1 37 21 56 15 12 37 25 50 28 13 4 25 17 29 33 3 14 12 35
20 46 14 19 14 18 8 -12 -4 -19 -2 -33 3 -33 22 0 71 23 76 36 10 26 27 15 20
-12 -6 -25 -5 -26 20 -20 21 5 26 3 26 -11 -1 -25 -27 -58 -32 -42 -3 8 -29
14 -72 16 -68 3 -68 3 -62 -21 4 -15 1 -30 -8 -39 -14 -13 -15 -71 -3 -84 4
-3 2 -12 -3 -18 -18 -22 0 -42 43 -50 23 -4 46 -7 52 -6 5 1 2 -6 -7 -16 -20
-21 -14 -58 9 -68 18 -6 61 19 70 41 5 13 7 13 14 2 6 -10 11 -10 21 0 18 18
28 15 28 -9 0 -16 -4 -19 -20 -14 -16 5 -20 2 -20 -14 0 -12 -5 -21 -11 -21
-6 0 -9 -5 -7 -11 2 -7 -5 -22 -16 -35 -20 -21 -22 -22 -39 -6 -16 14 -19 14
-27 2 -7 -10 -10 -11 -10 -2 0 6 -8 12 -17 12 -15 0 -16 2 -3 9 8 6 18 7 22 5
20 -13 5 27 -17 44 -15 12 -21 23 -15 27 24 15 9 35 -25 35 -28 0 -35 -4 -35
-19 0 -14 -5 -18 -20 -14 -20 5 -27 27 -11 37 12 8 20 55 10 62 -19 11 -49 -8
-49 -30 0 -15 -12 -32 -35 -47 -41 -28 -44 -51 -10 -73 28 -18 33 -41 10 -50
-23 -8 -18 -43 6 -49 18 -5 21 -11 15 -41 -5 -27 -3 -37 11 -45 14 -8 15 -12
6 -22 -10 -10 -16 -9 -31 4 -17 16 -21 16 -32 2 -8 -9 -10 -27 -6 -50 7 -37
15 -42 34 -23 10 10 15 10 22 -2 5 -8 10 -22 10 -31 0 -9 9 -19 20 -22 17 -4
19 -11 14 -31 -7 -29 4 -33 38 -15 26 14 34 5 20 -26 -13 -28 -37 -33 -46 -9
-4 11 -14 15 -31 12 -14 -3 -30 1 -36 8 -6 8 -20 14 -30 14 -23 0 -25 16 -4
36 15 15 10 44 -7 44 -6 0 -16 -8 -23 -17 -12 -16 -15 -16 -34 7 -21 24 -21
25 -36 6 -20 -27 -20 -60 1 -52 8 3 26 3 39 0 23 -6 23 -7 9 -29 -9 -13 -25
-25 -37 -27 -29 -4 -28 -30 1 -35 17 -2 25 3 29 16 3 11 13 21 24 24 15 4 19
0 19 -18 0 -26 16 -35 45 -25 13 5 25 0 37 -14 14 -18 20 -19 37 -9 10 7 29
10 40 8 13 -2 25 3 31 14 5 10 19 21 30 24 19 5 20 3 8 -11 -7 -9 -21 -23 -30
-30 -22 -16 -23 -38 -2 -46 27 -10 34 -7 34 18 0 34 36 42 44 10 4 -13 4 -35
0 -48 -4 -16 -1 -25 11 -30 9 -3 20 -4 24 -2 4 3 12 -4 19 -14 16 -26 -4 -37
-27 -16 -10 9 -26 16 -35 16 -12 0 -16 5 -12 15 3 8 2 15 -3 15 -5 0 -11 -14
-15 -32 -6 -29 -7 -30 -24 -15 -27 25 -49 21 -56 -10 -7 -27 5 -43 35 -43 8 0
21 -6 27 -12 10 -10 14 -8 18 10 4 12 13 22 21 22 18 0 7 -18 -25 -44 l-25
-20 23 -18 c12 -10 28 -18 35 -18 17 0 25 -23 18 -48 -3 -15 -12 -20 -31 -19
-25 2 -27 -1 -30 -40 -3 -35 -7 -43 -23 -43 -23 0 -25 28 -8 96 15 57 -1 105
-27 83 -13 -10 -16 -9 -20 9 -8 28 -35 37 -51 17 -11 -16 -14 -15 -35 4 -19
18 -21 25 -10 41 10 16 9 21 -9 31 -18 9 -21 17 -16 53 7 48 -4 72 -27 63 -12
-5 -15 -14 -10 -32 6 -24 5 -26 -22 -19 -16 4 -33 11 -38 15 -16 15 -24 10
-19 -11 3 -11 9 -17 14 -14 5 3 16 -2 24 -10 9 -8 23 -12 31 -9 9 3 4 -6 -11
-21 -34 -34 -28 -52 16 -48 l34 3 -23 -18 c-18 -15 -20 -21 -10 -31 9 -9 9
-15 1 -23 -6 -6 -9 -18 -6 -26 3 -8 -3 -20 -12 -27 -21 -15 -14 -46 10 -46 9
0 15 -9 15 -25 0 -14 -5 -25 -11 -25 -22 0 -70 -60 -64 -80 5 -15 0 -19 -22
-22 -32 -3 -47 -38 -16 -38 19 1 49 19 51 33 1 4 3 9 3 12 1 3 2 11 3 18 1 7
13 11 33 9 24 -2 34 2 43 18 6 11 8 24 5 29 -9 15 50 38 84 33 17 -2 31 -9 31
-14 0 -5 -9 -6 -20 -3 -25 8 -38 -19 -20 -40 10 -12 9 -15 -4 -15 -23 0 -55
-30 -49 -46 7 -18 -25 -30 -40 -15 -6 6 -21 11 -34 11 -19 0 -23 -5 -23 -31 0
-17 -7 -38 -16 -47 -15 -14 -17 -14 -26 1 -11 21 -28 13 -28 -13 0 -24 12 -31
63 -35 23 -2 41 -8 40 -13 -1 -5 7 -18 17 -27 16 -15 22 -15 35 -5 8 7 15 18
15 24 0 6 10 16 23 21 22 10 37 55 18 55 -22 0 -10 42 21 70 28 26 33 27 43
13 10 -13 8 -20 -7 -35 -22 -22 -23 -38 -3 -39 8 -1 21 -2 28 -3 6 0 13 -13
15 -29 3 -21 -1 -27 -17 -27 -11 0 -24 8 -30 17 -8 14 -12 15 -25 4 -9 -7 -16
-24 -16 -36 0 -12 -6 -28 -14 -34 -21 -18 -5 -65 23 -69 17 -3 22 -9 18 -23
-3 -10 -1 -19 4 -19 5 0 9 -10 9 -21 0 -18 -2 -19 -15 -9 -8 7 -15 21 -15 31
0 10 -9 21 -20 24 -11 3 -20 13 -20 21 0 19 -35 18 -55 -2 -20 -21 -45 -11
-45 18 0 15 -9 27 -26 35 -33 15 -52 6 -27 -13 16 -13 16 -13 -7 -5 -17 5 -26
17 -28 35 -4 35 -37 36 -40 1 -1 -14 2 -25 7 -25 4 0 6 -11 4 -24 -3 -16 -10
-23 -19 -19 -24 9 -124 -72 -124 -101 0 -18 26 -21 64 -6 17 6 26 6 26 0 0 -6
6 -10 14 -10 8 0 18 -9 21 -21 5 -15 10 -18 18 -10 16 16 27 13 27 -8 0 -10
-18 -38 -40 -62 -22 -24 -40 -47 -40 -51 0 -11 94 3 103 16 5 7 7 3 5 -9 -3
-13 -10 -19 -23 -17 -15 2 -12 -2 9 -17 l30 -20 -26 -10 c-15 -5 -29 -19 -32
-29 -4 -11 -19 -25 -34 -31 -15 -6 -34 -26 -41 -43 -13 -28 -15 -30 -22 -12
-11 27 -10 42 1 24 8 -12 10 -11 10 8 0 26 -26 40 -43 23 -17 -17 -27 -13 -27
10 0 11 -4 17 -10 14 -16 -10 -12 -47 7 -60 20 -15 11 -30 -27 -50 -24 -13
-33 -13 -50 -3 -11 7 -20 18 -20 25 0 7 -11 2 -25 -11 -14 -13 -25 -31 -25
-41 0 -13 -6 -16 -24 -11 -19 5 -25 1 -30 -17 -3 -13 1 -28 10 -37 14 -13 17
-13 28 2 7 10 20 18 29 18 8 0 17 5 19 12 5 13 58 3 58 -12 0 -6 -6 -9 -12 -8
-8 2 -12 -6 -11 -22 3 -24 2 -24 -12 -6 -14 18 -45 17 -45 -2 0 -17 39 -44 56
-38 11 4 18 -1 21 -15 5 -17 11 -20 34 -15 22 4 31 1 39 -14 6 -11 19 -20 29
-20 10 0 26 -9 35 -19 17 -19 17 -20 -3 -30 -27 -15 -34 -14 -27 4 3 10 -1 18
-11 22 -10 4 -19 1 -21 -6 -3 -8 -8 -7 -17 6 -11 15 -15 15 -29 4 -20 -17 -21
-31 -1 -31 8 0 15 -4 15 -10 0 -5 -7 -10 -15 -10 -8 0 -15 -7 -15 -17 0 -33
-13 -2 -14 33 -1 32 -5 39 -30 47 -20 7 -35 6 -48 -2 -26 -16 -51 -14 -44 4
15 37 18 50 8 37 -5 -8 -12 -13 -16 -13 -22 3 -33 -1 -44 -19 -11 -18 -10 -21
7 -28 14 -5 18 -11 11 -21 -7 -12 -12 -12 -23 -3 -19 16 -27 5 -27 -36 0 -29
2 -33 15 -22 16 14 35 6 35 -16 0 -13 -4 -16 -32 -18 -18 -1 -37 -28 -31 -42
3 -8 -2 -11 -16 -7 -14 3 -23 0 -27 -11 -5 -13 -9 -14 -20 -5 -11 9 -18 8 -29
-1 -12 -10 -18 -8 -33 10 l-18 23 -22 -28 c-21 -27 -23 -27 -36 -10 -13 18
-13 18 -23 0 -8 -13 -16 -16 -29 -10 -11 4 -25 7 -31 6 -7 -1 -13 3 -13 9 0 5
-7 10 -15 10 -8 0 -15 -9 -15 -20 0 -11 -4 -20 -10 -20 -14 0 -12 -32 4 -53
14 -19 36 -23 36 -7 0 6 9 10 20 10 10 0 24 9 30 20 12 23 25 25 44 8 11 -11
9 -19 -10 -50 -13 -20 -21 -44 -18 -53 3 -8 1 -15 -5 -15 -6 0 -11 9 -11 20 0
24 -35 28 -44 4 -8 -22 3 -37 22 -29 8 3 19 0 24 -7 6 -11 10 -10 17 1 6 9 16
11 32 6 21 -7 21 -9 6 -20 -9 -7 -17 -18 -17 -26 0 -12 -2 -12 -9 -1 -6 10
-10 8 -14 -9 -3 -13 -1 -29 5 -37 10 -11 8 -13 -12 -10 -15 2 -30 16 -43 41
-18 35 -56 55 -44 22 4 -8 2 -17 -3 -20 -6 -4 -10 0 -10 8 0 26 -23 37 -49 23
-14 -8 -19 -16 -13 -20 13 -8 4 -43 -13 -50 -7 -2 -16 2 -19 10 -3 8 -15 14
-26 14 -11 0 -23 7 -27 15 -8 22 4 30 22 15 12 -10 15 -10 15 4 0 9 8 16 19
16 11 0 22 9 26 20 5 15 19 21 56 26 27 4 49 11 49 16 0 5 -9 6 -20 3 -13 -4
-20 -2 -20 7 0 13 -51 58 -65 58 -3 0 -5 -7 -5 -16 0 -12 -8 -14 -44 -9 l-43
7 -22 -44 c-11 -24 -21 -50 -21 -56 0 -7 -5 -12 -11 -12 -6 0 -8 9 -3 23 l6
22 -25 -24 c-23 -20 -29 -22 -43 -11 -9 8 -14 23 -11 37 2 13 1 25 -3 28 -9 6
-70 -33 -70 -45 0 -5 -9 -10 -19 -10 -11 0 -23 -5 -26 -10 -10 -15 -35 -12
-35 5 0 9 -9 15 -21 15 -19 0 -20 -2 -8 -17 8 -9 9 -14 2 -10 -16 10 -43 -2
-43 -20 0 -11 -7 -13 -30 -8 -23 5 -32 3 -36 -9 -5 -13 -9 -14 -21 -4 -17 14
-33 -4 -33 -39 l0 -22 219 -1 c135 0 222 4 226 10 3 6 11 10 16 10 6 0 7 -4 4
-10 -4 -6 27 -10 85 -10 58 0 89 4 85 10 -3 5 -1 10 4 10 6 0 11 -4 11 -10 0
-12 147 -12 175 0 16 7 17 9 3 9 -20 1 -32 17 -23 31 5 8 12 7 22 -2 12 -10
17 -9 24 5 13 22 35 22 43 1 5 -13 16 -15 49 -11 23 2 50 8 60 12 11 5 17 3
17 -7 0 -11 -18 -17 -71 -22 -39 -3 -75 -4 -80 -1 -5 4 -9 -1 -9 -9 0 -13 16
-16 96 -16 61 0 93 4 89 10 -3 5 -1 10 4 10 6 0 11 -4 11 -10 0 -7 732 -9 880
-2 8 1 48 -1 88 -4 l72 -6 0 358 c-1 241 -4 362 -12 371 -7 9 -7 13 1 13 7 0
11 25 11 73 0 50 -3 67 -10 57 -8 -12 -10 -11 -10 8 0 12 5 22 10 22 13 0 13
117 0 125 -13 8 -13 105 0 105 12 0 12 148 -1 172 -6 10 -5 19 1 23 5 3 10 31
10 61 0 37 -4 53 -11 48 -6 -3 -9 -15 -6 -25 3 -11 1 -19 -4 -19 -5 0 -9 20
-9 45 0 25 -4 45 -9 45 -5 0 -11 9 -14 20 -3 11 -11 19 -18 18 -7 -2 -15 6
-17 17 -4 17 -2 18 12 6 19 -16 64 -7 73 15 3 8 -1 22 -9 32 -9 9 -17 27 -20
38 -4 17 -2 20 13 17 18 -5 19 2 19 91 0 75 -3 96 -14 96 -7 0 -19 -7 -26 -15
-9 -10 -9 -15 -1 -15 17 0 13 -30 -5 -37 -8 -3 -13 -12 -10 -19 4 -10 -3 -14
-20 -14 -14 0 -23 4 -19 9 3 5 1 12 -4 16 -6 3 -8 11 -6 18 7 17 -6 33 -32 41
-22 7 -29 -5 -24 -37 2 -12 -29 -21 -40 -10 -9 9 56 113 71 113 4 0 12 -11 18
-25 11 -25 32 -34 32 -15 0 6 5 9 12 8 6 -2 14 8 18 22 5 18 12 24 28 23 21
-3 22 1 22 72 0 108 -27 98 -33 -13 -1 -31 -7 -44 -20 -48 -24 -7 -34 3 -19
18 15 15 16 75 1 80 -9 3 -9 9 0 25 10 19 8 22 -17 26 -37 7 -115 3 -128 -5
-6 -4 -19 1 -28 11 -13 14 -14 21 -6 26 9 5 9 9 1 14 -6 4 -14 28 -17 53 -6
46 -6 47 29 62 27 11 38 23 45 48 5 21 15 34 28 36 15 3 17 1 7 -9 -15 -15
-17 -59 -3 -59 13 0 13 -37 0 -45 -6 -4 -8 -10 -5 -15 3 -5 -9 -18 -26 -30
-39 -29 -25 -49 19 -26 38 20 52 20 52 2 0 -22 33 -29 47 -10 10 14 10 19 -4
29 -10 7 -23 10 -31 7 -10 -3 -13 1 -10 14 2 14 10 18 31 16 30 -4 37 17 13
37 -11 10 -17 8 -25 -6 -9 -15 -10 -12 -11 20 0 42 -1 41 35 25 18 -8 25 -18
22 -30 -4 -13 0 -18 14 -18 21 0 26 -16 6 -22 -8 -3 -12 -26 -12 -67 -1 -57 1
-62 20 -59 19 3 20 11 23 122 2 89 -1 121 -10 127 -10 7 -11 12 -1 29 17 27
17 93 1 88 -7 -3 -15 -13 -16 -24 -6 -29 -19 -38 -35 -23 -12 12 -12 15 2 27
14 12 13 13 -9 8 -14 -2 -36 -8 -50 -12 -25 -7 -25 -7 -7 14 11 11 16 25 13
30 -3 5 1 15 9 22 8 7 15 18 15 26 0 17 -38 28 -53 16 -9 -8 -13 2 -14 39 -3
47 -2 48 21 40 12 -5 31 -9 41 -8 12 1 24 -9 33 -25 14 -29 20 -32 46 -22 11
4 16 19 16 45 0 32 -3 39 -20 39 -23 0 -26 17 -6 39 8 9 17 40 21 69 6 46 5
51 -10 46 -13 -5 -16 -2 -13 12 2 10 10 18 16 16 7 -1 12 8 12 19 0 18 -2 19
-15 9 -20 -17 -21 9 0 36 20 26 20 114 0 114 -19 0 -20 19 0 26 12 5 14 64 15
401 0 265 -3 392 -10 388 -5 -3 -10 1 -10 9 0 9 5 16 10 16 7 0 10 205 10 595
l0 595 -1447 0 c-1043 0 -1450 -3 -1460 -11 -9 -8 -17 -8 -26 0 -10 8 -285 11
-967 11 -897 0 -953 -1 -966 -17 -12 -17 -13 -17 -19 0 -7 16 -83 17 -1396 17
l-1389 0 0 -1265z m3434 865 c5 -32 10 -40 27 -40 12 0 23 8 26 20 3 11 11 20
19 20 7 0 16 11 20 25 8 31 39 33 55 4 8 -15 18 -20 35 -16 19 3 24 1 20 -10
-3 -8 -6 -19 -6 -25 0 -7 -4 -7 -12 0 -9 7 -23 6 -45 -3 -36 -15 -38 -18 -23
-46 10 -17 7 -19 -20 -19 -16 0 -29 3 -29 8 4 21 -3 23 -20 8 -12 -11 -21 -14
-26 -7 -3 6 -25 11 -49 11 -32 0 -48 6 -65 24 -22 23 -22 25 -7 55 20 38 24
38 37 4 l10 -28 16 33 c19 39 28 35 37 -18z m1491 -2 c-3 -90 -4 -90 -107 -82
-89 7 -90 6 -83 -15 8 -26 -21 -30 -40 -4 -10 14 -17 15 -37 6 -24 -11 -154
-10 -165 1 -4 3 5 6 20 6 17 0 28 7 32 21 6 17 9 18 22 7 12 -10 17 -9 28 5
22 31 213 28 223 -2 2 -6 16 -11 32 -11 31 0 46 30 30 60 -11 20 -4 31 16 23
9 -3 14 2 14 16 0 12 4 21 8 21 5 0 8 -24 7 -52z m-1135 -202 c22 -8 34 -19
32 -28 -3 -18 24 -32 33 -17 4 5 -1 16 -10 25 -19 20 -12 32 9 15 8 -7 20 -10
25 -6 6 3 19 1 30 -4 14 -8 25 -6 44 9 31 24 74 26 99 4 14 -13 21 -14 32 -5
8 7 20 10 26 6 6 -4 17 -2 25 5 10 8 24 8 51 1 27 -7 42 -7 51 1 7 6 14 8 14
4 1 -3 3 -10 4 -16 1 -5 3 -13 4 -17 1 -5 6 0 11 9 9 14 24 16 108 12 53 -3
148 -6 211 -7 83 -1 115 -5 118 -14 4 -10 9 -11 18 -3 9 7 21 7 40 -2 21 -9
28 -9 34 1 6 9 20 11 50 6 23 -4 39 -11 36 -16 -4 -5 1 -6 9 -3 11 4 16 -3 19
-28 l3 -33 9 33 c9 37 17 45 38 36 9 -3 13 -12 10 -21 -4 -11 -2 -14 8 -11 8
3 13 12 13 21 -1 12 3 14 21 7 13 -5 26 -6 29 -3 3 4 6 1 6 -5 0 -6 6 -9 14
-6 8 3 17 -3 20 -14 4 -11 13 -26 21 -32 13 -11 14 -8 9 19 -7 35 -1 37 54 22
27 -8 32 -7 32 7 1 16 2 16 13 0 10 -12 27 -16 71 -14 40 1 60 -2 63 -11 3 -7
9 -10 14 -7 18 11 71 -7 65 -22 -3 -8 -1 -14 4 -14 6 0 10 7 10 15 0 11 11 15
39 15 33 0 40 -4 43 -22 2 -13 8 -22 13 -20 6 2 9 12 7 22 -2 13 2 20 13 20
10 0 15 -5 12 -13 -9 -25 8 -40 31 -28 28 15 59 14 65 -1 3 -10 11 -10 35 -2
32 12 42 9 42 -13 0 -16 -75 -19 -85 -3 -3 6 -10 10 -16 10 -5 0 -9 -4 -9 -10
0 -5 7 -10 15 -10 8 0 15 -4 15 -10 0 -12 -27 -13 -34 -1 -3 5 -22 9 -41 9
-19 0 -35 -4 -35 -9 0 -5 9 -9 20 -9 11 0 20 -4 20 -8 0 -4 10 -8 22 -9 11 -1
24 -7 28 -13 4 -6 14 -8 23 -4 12 4 17 1 18 -12 0 -14 2 -15 6 -5 3 8 -2 20
-12 27 -16 12 -16 13 8 19 14 4 35 1 47 -5 18 -9 24 -9 30 0 4 7 13 10 19 6 5
-4 16 2 23 14 13 20 38 28 38 12 0 -5 9 -18 20 -30 12 -12 16 -23 10 -27 -13
-8 -13 -45 0 -45 5 0 13 -15 18 -32 8 -27 11 -30 17 -15 5 11 1 24 -9 36 -18
19 -22 51 -6 51 5 0 12 16 16 35 6 36 18 45 27 23 3 -7 6 -1 6 15 1 17 6 27
16 27 11 0 15 -11 15 -39 0 -36 -3 -40 -27 -43 -24 -2 -25 -4 -10 -11 14 -5
26 1 47 23 24 25 36 30 75 30 32 0 52 5 60 16 10 15 13 15 27 0 9 -9 22 -16
28 -16 6 0 10 -8 8 -17 -2 -14 4 -17 37 -15 33 1 36 0 18 -8 -25 -10 -26 -11
-17 -34 9 -24 23 -19 34 10 10 26 33 24 28 -3 -2 -9 3 -18 11 -21 9 -3 12 0 9
9 -18 49 -19 59 -4 59 9 0 16 -7 16 -15 0 -8 6 -12 14 -9 9 3 15 -5 20 -27 4
-21 10 -29 20 -26 17 7 28 -16 20 -38 -4 -8 -1 -15 5 -15 20 0 12 -27 -11 -38
l-23 -11 22 0 c12 -1 24 -9 26 -18 3 -10 5 -1 6 20 0 20 6 37 11 37 9 0 15
-22 11 -43 -1 -5 8 -24 20 -43 17 -29 18 -34 5 -34 -18 0 -19 -2 -7 -53 7 -30
6 -40 -5 -44 -20 -7 -17 -20 5 -26 24 -6 30 -47 37 -242 9 -259 5 -616 -10
-865 -2 -25 2 -49 8 -53 6 -5 0 -5 -12 -2 -22 6 -23 5 -12 -15 9 -16 9 -25 1
-33 -15 -15 -14 -27 4 -27 19 0 19 -9 0 -34 -8 -10 -12 -23 -8 -29 3 -5 0 -27
-8 -49 -11 -33 -10 -41 1 -48 11 -7 12 -13 2 -32 -6 -13 -13 -47 -14 -75 -2
-29 -5 -53 -8 -53 -3 0 -6 -33 -7 -73 -1 -39 -3 -81 -3 -92 -1 -11 -6 -23 -13
-27 -9 -6 -9 -10 2 -17 10 -6 11 -13 2 -29 -6 -12 -10 -25 -9 -29 1 -4 -4 -29
-11 -55 -11 -38 -11 -51 -1 -63 8 -9 10 -28 6 -50 -4 -22 -3 -35 4 -35 16 0
12 -32 -7 -45 -15 -11 -15 -15 -4 -29 11 -14 11 -16 -3 -16 -9 0 -16 -4 -16
-10 0 -13 -95 -28 -230 -36 -60 -3 -222 -17 -345 -29 -27 -3 -86 -7 -130 -10
-44 -3 -141 -10 -215 -16 -74 -5 -214 -13 -310 -17 -173 -7 -1177 -9 -1670 -4
-202 2 -265 0 -305 -12 -104 -31 -130 -39 -145 -44 -8 -3 -20 -6 -26 -7 -15
-1 -208 -116 -212 -126 -2 -5 -9 -9 -15 -9 -7 0 -34 -23 -62 -50 -27 -28 -58
-58 -69 -67 -10 -10 -32 -38 -49 -63 -17 -25 -37 -51 -44 -58 -8 -8 -20 -26
-27 -40 -18 -33 -76 -90 -76 -74 0 7 -5 12 -11 12 -6 0 -9 -7 -5 -15 3 -8 3
-15 0 -15 -17 0 -140 35 -144 41 -3 4 -16 9 -30 11 -14 2 -24 9 -23 16 4 16
-14 16 -20 0 -4 -10 -7 -10 -18 0 -18 17 -30 15 -23 -3 4 -8 18 -16 33 -16 25
-1 25 -2 -4 -8 -22 -4 -35 -1 -48 12 -13 13 -27 17 -43 13 -19 -5 -24 -3 -24
13 0 15 -5 19 -16 14 -9 -3 -19 -1 -23 6 -5 8 -38 12 -90 13 -69 0 -85 -3 -96
-18 -9 -12 -14 -14 -15 -6 0 7 -5 10 -10 7 -6 -4 -19 -4 -28 0 -14 6 -13 9 8
18 l25 10 -24 5 c-13 2 -26 0 -30 -5 -8 -11 -72 -11 -89 1 -9 5 -18 2 -26 -10
-9 -12 -15 -14 -20 -6 -4 7 -16 12 -27 12 -10 0 -19 4 -19 10 0 5 -7 7 -15 4
-8 -4 -15 -1 -15 5 0 6 8 11 18 11 15 1 15 2 -2 15 -13 10 -23 12 -30 5 -14
-14 -26 -13 -26 3 0 8 -15 14 -42 16 -24 1 -44 6 -46 12 -5 13 -40 11 -44 -3
-3 -9 -12 -9 -37 1 -23 10 -29 17 -21 25 8 8 13 7 20 -4 8 -13 10 -12 10 4 0
13 -5 17 -17 13 -10 -3 -33 -10 -50 -15 -20 -7 -33 -7 -33 -1 0 5 -9 9 -19 9
-11 0 -23 5 -26 10 -5 8 -11 7 -21 -1 -11 -9 -14 -8 -15 2 -1 8 -3 25 -6 39
-2 14 -4 40 -4 58 -1 17 -6 32 -12 32 -8 0 -7 4 1 12 8 8 8 15 1 24 -7 9 -7
19 1 33 7 14 7 21 0 21 -14 0 -13 27 3 33 9 3 9 9 -1 26 -18 31 -15 61 11 81
21 17 21 18 2 17 -15 -2 -19 3 -17 21 2 13 -3 25 -12 28 -11 4 -15 20 -14 62
0 32 5 63 11 69 6 9 2 24 -12 48 -13 23 -16 35 -8 35 8 0 7 3 -2 9 -10 7 -7 9
12 10 15 1 39 1 54 2 41 1 6 19 -39 19 l-37 0 0 90 c1 50 4 88 9 85 9 -6 60
17 60 28 0 4 -11 7 -24 7 -13 0 -29 7 -36 15 -10 13 -9 15 11 16 13 0 18 3 12
6 -7 2 -13 11 -13 18 0 7 -5 15 -12 17 -19 7 -1 38 22 38 22 0 23 1 14 25 -6
14 -10 13 -31 -7 l-25 -23 3 53 c2 28 2 52 -2 52 -3 0 -5 16 -6 35 -1 19 3 35
8 35 5 0 9 7 9 15 0 8 -4 15 -9 15 -14 0 -24 39 -14 53 5 7 8 27 6 45 -1 18 2
32 8 32 6 0 8 13 5 33 -5 26 -4 28 4 12 8 -15 9 -9 6 27 -4 35 -2 47 10 52 12
4 13 10 4 26 -6 11 -8 20 -5 20 4 0 3 4 0 10 -8 14 -34 -11 -28 -27 6 -16 -13
-17 -23 -2 -3 6 -1 16 4 21 8 8 8 17 0 32 -9 17 -8 19 3 9 7 -7 33 -13 57 -13
38 0 43 -2 32 -15 -10 -12 -10 -15 4 -15 9 0 16 8 16 20 0 11 -7 20 -15 20
-29 0 -14 18 22 27 35 8 36 9 18 27 -12 12 -21 14 -23 7 -5 -16 -22 -14 -22 4
0 8 5 15 10 15 6 0 8 11 4 25 -6 23 -3 25 25 25 17 0 31 -4 31 -10 0 -5 6 -10
14 -10 8 0 16 -5 18 -11 2 -6 10 1 17 14 20 37 8 58 -27 51 -21 -4 -31 -2 -35
9 -3 9 1 18 9 21 8 3 14 12 14 21 0 8 5 15 11 15 7 0 9 11 6 30 -5 22 -3 30 8
30 11 0 15 -11 15 -37 0 -53 15 -74 24 -33 3 18 6 45 6 61 0 16 5 29 10 29 14
0 13 -117 -2 -122 -6 -2 -8 -10 -4 -16 10 -17 26 -15 26 3 0 8 5 15 10 15 6 0
10 14 10 30 0 30 13 40 25 19 5 -7 14 -4 26 7 17 15 25 16 51 6 37 -14 47 -8
31 17 -9 14 -8 22 5 35 13 13 14 18 3 28 -10 11 -11 10 -6 -4 5 -12 2 -18 -7
-18 -7 0 -14 9 -14 20 0 11 7 20 14 20 8 0 12 6 8 15 -3 8 -2 14 2 14 4 -1 17
2 30 6 22 7 26 17 22 67 -1 14 3 29 9 33 6 3 11 -1 11 -9 0 -10 6 -13 15 -10
17 7 21 -11 5 -21 -15 -9 -12 -25 5 -25 8 0 20 -10 26 -22 10 -18 8 -24 -7
-35 -10 -7 -21 -13 -26 -13 -4 0 -8 -11 -8 -25 0 -25 25 -36 32 -14 2 6 15 9
28 7 l25 -3 -23 -13 c-12 -7 -41 -14 -62 -15 -43 -1 -54 -23 -25 -47 8 -7 19
-27 23 -44 10 -37 39 -47 44 -15 2 18 11 23 48 26 51 5 63 12 50 33 -7 12 -13
12 -37 0 -15 -7 -36 -12 -45 -11 -10 1 -26 -3 -38 -9 -17 -9 -20 -8 -20 10 0
11 7 21 15 21 8 1 20 3 25 4 6 1 14 3 19 4 17 2 41 32 41 51 0 10 -9 22 -20
25 -11 3 -20 13 -20 22 0 8 5 12 13 9 6 -3 20 -9 30 -12 9 -4 17 -10 17 -15 0
-5 5 -9 10 -9 6 0 10 6 9 13 -1 6 2 20 6 31 5 11 3 26 -4 37 -9 15 -8 19 4 19
8 0 15 -5 15 -11 0 -5 5 -7 12 -3 8 5 6 11 -6 19 -13 10 -14 18 -7 36 l10 24
0 -22 c1 -24 15 -30 27 -12 3 6 1 16 -5 22 -15 15 -14 24 3 30 9 4 13 1 11 -6
-3 -7 0 -19 5 -27 9 -13 12 -13 21 3 15 26 31 21 77 -23 40 -39 42 -40 42 -17
0 14 -7 30 -15 37 -9 7 -14 19 -11 27 3 8 1 11 -4 8 -6 -3 -10 4 -10 15 0 16
4 20 16 16 9 -4 22 -1 30 5 7 6 20 9 29 7 15 -3 14 -7 -5 -31 -12 -15 -19 -31
-16 -35 4 -3 11 0 15 7 5 7 14 10 20 6 9 -5 11 7 10 43 -2 44 -4 49 -23 44
-12 -3 -25 -11 -31 -19 -17 -22 -32 0 -27 40 4 35 22 53 22 22 0 -8 5 -15 10
-15 6 0 10 5 10 10 0 17 18 11 23 -7 3 -12 7 -8 12 15 4 17 11 32 15 32 20 0
40 -13 40 -26 0 -8 9 -13 23 -11 18 2 21 -2 19 -21 -3 -20 0 -23 20 -18 13 3
17 3 10 0 -6 -3 -9 -10 -6 -15 13 -21 33 12 27 43 -4 22 -3 29 5 24 13 -8 12
28 -1 40 -13 14 -7 65 9 71 11 4 14 13 10 29 -5 17 -2 24 9 24 8 0 15 -7 15
-15 0 -18 12 -19 28 -3 16 16 85 19 95 4 4 -6 5 7 1 29 -4 22 -7 49 -6 60 0
11 -4 23 -11 28 -9 6 -8 7 3 4 8 -2 18 -23 23 -46 8 -42 9 -43 45 -39 20 3 52
1 70 -3 33 -7 54 4 27 15 -23 8 -18 28 5 21 14 -4 20 -2 20 8 0 8 -9 17 -21
20 -15 4 -19 11 -14 26 4 14 0 23 -15 31 -11 6 -18 15 -15 21 4 6 13 5 24 -1
10 -5 21 -7 24 -4 3 3 8 1 12 -5 3 -6 1 -11 -4 -11 -6 0 -11 -5 -11 -11 0 -6
9 -8 23 -4 16 5 18 4 8 -3 -17 -12 -7 -42 14 -42 20 0 19 -17 -2 -29 -15 -9
-13 -10 13 -11 23 0 33 5 37 20 3 11 2 22 -2 25 -10 5 -1 65 9 65 4 0 11 -8
14 -17 5 -11 10 -13 17 -6 8 8 8 17 0 32 -10 17 -9 21 4 21 8 0 15 -7 15 -15
0 -15 19 -22 21 -7 3 29 11 58 19 66 6 6 10 18 10 28 0 11 7 18 19 18 14 0 21
9 26 31 4 17 3 34 -1 38 -5 3 -10 19 -12 35 -3 25 -1 28 11 17 8 -6 13 -21 10
-31 -4 -14 0 -20 11 -20 11 0 16 7 15 23 -3 37 0 57 11 57 6 0 10 -7 10 -15 0
-8 6 -15 14 -15 8 0 16 7 20 15 3 8 1 15 -4 15 -6 0 -9 12 -9 28 1 16 3 20 6
10 7 -29 23 -20 23 12 0 17 5 30 10 30 6 0 10 -18 10 -39 0 -29 5 -41 18 -45
9 -3 5 -4 -10 -2 -19 2 -28 -1 -28 -10 0 -8 9 -13 21 -11 12 1 24 -4 26 -10 3
-8 -5 -13 -21 -13 -26 0 -36 -23 -16 -35 6 -3 10 -1 10 5 0 6 6 10 13 9 28 -3
39 2 34 16 -7 17 9 30 18 15 12 -19 35 -11 32 13 -1 16 -12 25 -37 32 -31 9
-35 15 -42 55 -8 45 5 100 23 100 5 0 9 7 9 15 0 8 7 15 15 15 9 0 15 -9 15
-25 0 -20 -5 -25 -25 -25 -20 0 -25 -5 -25 -25 l0 -25 35 17 c33 16 36 16 49
-2 10 -14 17 -17 27 -9 8 6 26 14 40 18 21 4 28 14 33 41 4 19 12 37 18 41 8
5 9 -3 5 -26 -6 -29 -5 -31 9 -19 15 12 15 34 -1 73 -7 16 -5 18 8 13 9 -3 19
-1 23 5 4 7 3 8 -4 4 -8 -5 -12 1 -12 14 0 14 6 21 18 19 9 -1 26 2 36 6 12 5
21 5 23 -1 8 -23 23 -38 30 -30 4 5 2 11 -4 13 -15 5 -17 33 -3 33 6 0 10 -4
10 -10 0 -14 33 -13 48 2 9 9 12 9 12 0 0 -17 27 -15 34 3 3 8 15 15 27 15 16
0 20 -5 16 -20 -3 -11 -1 -23 4 -26 5 -3 9 6 9 20 0 17 6 26 16 26 10 0 13 6
9 19 -7 24 32 31 111 20 31 -4 66 -4 78 0 12 5 31 4 44 -2 17 -8 25 -8 30 0
14 22 83 27 132 9z m3386 -628 c4 -13 7 -36 6 -51 0 -15 5 -30 13 -33 10 -4
11 -13 4 -37 -6 -22 -5 -33 4 -39 17 -11 35 -10 42 2 3 5 15 15 26 20 23 13
26 -2 4 -23 -13 -13 -13 -19 1 -46 16 -31 48 -42 57 -18 8 21 15 3 10 -24 -5
-26 -16 -31 -40 -16 -6 4 -18 4 -27 1 -11 -4 -21 4 -33 27 -22 39 -61 79 -76
76 -7 -1 -10 12 -8 36 1 21 -2 37 -8 37 -12 0 -16 92 -4 103 12 13 22 7 29
-15z m-6255 -883 c-5 -11 -12 -29 -16 -40 -5 -13 -9 -15 -12 -7 -7 18 -40 15
-71 -8 -23 -17 -27 -27 -24 -55 2 -20 10 -35 17 -35 8 0 16 -13 20 -29 5 -22
1 -35 -14 -50 -12 -12 -21 -18 -21 -13 0 4 -5 0 -10 -8 -9 -13 -11 -13 -20 0
-9 13 -11 13 -21 0 -8 -12 -9 -9 -3 10 4 14 6 43 6 64 -1 22 2 44 7 50 4 6 11
34 15 62 6 46 4 53 -16 66 -13 8 -35 15 -50 16 -23 1 -31 -5 -48 -40 -11 -23
-20 -53 -20 -67 0 -13 -3 -21 -7 -18 -17 17 -6 78 25 149 20 44 28 47 44 13
14 -32 28 -32 28 -1 0 37 12 86 21 86 13 0 23 -44 10 -48 -6 -2 -11 -10 -11
-18 0 -14 7 -26 40 -62 8 -10 14 -25 12 -35 -5 -25 23 -21 41 6 12 18 18 20
28 10 21 -21 26 -15 33 35 4 26 10 65 14 87 6 36 7 34 10 -30 2 -38 -1 -79 -7
-90z m6713 6 c-4 -9 -7 -26 -7 -38 1 -18 -5 -23 -23 -23 -23 0 -44 -25 -44
-54 0 -9 14 -22 32 -29 l32 -13 -27 -25 c-25 -22 -26 -26 -13 -51 17 -32 8
-46 -11 -18 -8 11 -20 20 -28 20 -7 0 -17 9 -20 20 -4 11 -17 27 -29 35 -31
20 -34 80 -6 95 16 9 22 7 26 -4 5 -12 15 -6 46 26 22 23 35 44 29 46 -25 8
-10 31 19 30 25 -1 29 -4 24 -17z m-6858 -320 c1 -18 -3 -31 -10 -31 -22 0
-16 -46 10 -73 18 -20 21 -27 9 -27 -11 0 -15 -12 -15 -50 0 -30 4 -50 11 -50
7 0 8 -7 4 -17 -12 -31 -14 -53 -5 -53 37 0 52 33 28 59 -11 10 -8 17 15 35
19 16 27 31 27 55 0 25 4 32 18 29 27 -5 29 -80 2 -123 l-21 -34 20 -18 c23
-19 28 -48 10 -58 -7 -5 -4 -15 6 -32 16 -25 16 -26 -19 -59 -30 -28 -35 -39
-30 -61 5 -19 2 -30 -11 -40 -14 -9 -16 -16 -8 -24 16 -16 63 35 63 68 0 37
13 20 17 -22 2 -22 -1 -35 -8 -35 -10 0 -9 -19 7 -73 4 -13 0 -16 -18 -15 -17
2 -24 -3 -26 -20 -4 -25 15 -55 29 -46 15 9 18 -13 23 -160 4 -94 2 -144 -6
-153 -7 -9 -7 -13 1 -13 17 0 14 -131 -4 -174 -8 -20 -21 -36 -28 -36 -17 0
-15 33 2 54 15 18 11 48 -6 54 -7 2 -16 -5 -19 -15 -4 -10 -16 -28 -27 -40
-11 -12 -17 -29 -14 -37 4 -10 1 -16 -7 -16 -18 0 -23 -15 -18 -52 2 -16 11
-28 18 -28 12 0 12 -4 4 -21 -18 -32 -6 -50 28 -43 19 4 34 1 44 -10 9 -8 19
-12 23 -8 4 4 5 -5 1 -20 -4 -17 -2 -28 6 -30 7 -3 13 -16 13 -31 1 -14 7 -33
14 -41 11 -13 9 -17 -13 -27 -27 -12 -36 -31 -13 -27 7 2 13 -11 15 -32 3 -33
2 -34 -14 -18 -17 16 -19 16 -36 1 -17 -15 -18 -14 -18 32 0 45 -1 47 -25 41
-23 -6 -25 -3 -25 24 0 16 -4 30 -10 30 -5 0 -10 12 -9 28 0 15 3 21 6 15 2
-7 9 -13 14 -13 12 0 11 21 -1 40 -7 12 -12 12 -22 2 -19 -19 -38 -14 -38 11
0 13 -4 27 -9 32 -21 23 -22 54 -2 74 12 12 16 21 11 21 -6 0 -10 8 -10 18 0
10 -5 23 -11 29 -15 15 -1 63 17 56 17 -6 19 18 2 35 -9 9 -7 12 10 12 27 0
28 16 5 43 -18 19 -17 19 14 13 41 -9 50 6 24 43 l-20 28 24 23 c13 12 21 28
18 36 -6 16 13 19 22 4 3 -5 15 -10 26 -10 14 0 19 7 18 28 -1 17 -3 20 -6 9
-2 -9 -9 -15 -14 -12 -14 9 -11 42 6 58 13 13 13 19 -1 47 -22 43 -40 33 -36
-20 2 -33 -1 -41 -11 -37 -27 10 -41 -11 -41 -61 0 -51 -21 -88 -32 -57 -4 8
-4 27 -1 40 2 14 0 28 -5 31 -5 3 -6 14 -3 24 4 14 1 16 -20 12 -31 -6 -34 16
-5 41 18 15 20 27 18 75 -3 53 -5 57 -29 60 -49 6 -65 -59 -18 -71 17 -5 19
-9 9 -26 -14 -28 -26 -26 -34 4 -6 22 -9 24 -26 15 -28 -15 -26 -50 1 -50 20
0 21 -4 16 -61 -4 -43 -2 -62 7 -65 8 -3 10 -18 7 -47 -5 -36 -9 -42 -28 -39
-27 4 -40 -16 -16 -25 10 -3 26 -13 37 -22 17 -15 18 -14 15 19 -3 26 0 35 11
35 8 0 15 9 15 19 0 11 5 21 11 23 13 4 14 -70 2 -83 -5 -4 -8 -21 -8 -37 0
-24 -3 -27 -14 -18 -11 10 -17 7 -30 -11 -22 -31 -20 -45 8 -63 26 -17 40 -51
25 -61 -5 -3 -8 -13 -7 -22 2 -9 -5 -18 -14 -20 -13 -2 -18 3 -18 17 0 12 -9
29 -20 38 -18 16 -18 18 -4 34 9 10 13 23 9 28 -7 12 -34 15 -36 4 -6 -44 -4
-65 7 -74 7 -6 10 -17 8 -24 -7 -16 50 -75 71 -75 28 0 26 -21 -3 -31 -17 -6
-33 -17 -36 -25 -3 -8 -17 -14 -31 -14 -22 0 -25 3 -19 25 4 18 1 32 -11 45
-12 13 -16 30 -13 52 5 32 -9 58 -31 58 -6 0 -11 9 -11 20 0 11 -7 20 -15 20
-8 0 -15 -5 -15 -12 0 -9 -3 -9 -12 0 -16 16 6 40 40 44 29 3 45 38 18 38 -9
0 -16 -7 -16 -15 0 -8 -4 -15 -10 -15 -14 0 -12 26 3 38 15 13 43 10 58 -5 14
-14 39 -5 39 14 0 10 -6 12 -19 8 -23 -7 -52 20 -45 40 4 8 10 15 14 15 5 0
10 10 12 23 2 12 9 21 16 20 15 -4 16 19 1 34 -6 6 -8 17 -3 25 4 7 9 35 9 62
1 39 -2 50 -17 54 -10 2 -18 8 -18 12 0 4 -3 23 -6 41 -6 28 -4 32 7 22 20
-19 39 -16 39 7 0 11 7 20 15 20 17 0 19 13 6 56 -8 27 -6 30 12 30 14 -1 23
6 25 19 2 11 8 24 13 29 12 14 39 -13 39 -39 0 -14 7 -25 21 -28 32 -9 35 20
4 44 -19 15 -23 25 -16 32 6 6 11 19 11 29 0 10 5 18 10 18 6 0 10 -8 10 -18
0 -23 8 -32 25 -26 15 6 3 73 -16 84 -7 5 -8 13 -3 21 23 36 29 74 14 92 -26
30 -48 21 -52 -20 -2 -26 -8 -38 -18 -38 -17 0 -36 98 -20 103 6 2 10 14 10
27 0 36 19 40 26 6 4 -21 12 -29 25 -28 13 1 15 4 8 14 -6 7 -8 25 -4 41 4 21
1 34 -10 46 -10 10 -14 24 -10 36 4 13 2 20 -7 20 -17 0 -59 45 -50 54 4 4 8
22 9 39 1 18 4 49 7 69 3 21 1 40 -4 43 -19 12 -10 26 11 20 19 -6 21 -4 17
13 -4 14 -1 22 11 25 27 6 45 -10 47 -42z m-121 -82 c-3 -18 -11 -39 -20 -49
-8 -9 -15 -28 -15 -43 0 -19 -8 -31 -29 -41 -33 -18 -42 -39 -47 -118 -3 -49
-1 -59 16 -68 18 -10 18 -11 -6 -37 -32 -35 -30 -51 11 -96 19 -21 35 -42 35
-47 0 -4 5 -10 11 -12 6 -2 13 -21 16 -42 4 -34 3 -38 -12 -32 -12 4 -18 0
-22 -14 -6 -23 -8 -24 -34 -10 -11 6 -19 21 -19 36 0 13 -7 27 -15 30 -18 7
-20 40 -2 48 8 3 6 9 -7 20 -13 10 -15 16 -6 16 7 0 2 10 -13 24 -17 16 -24
31 -20 44 3 14 -1 22 -16 27 -28 8 -27 31 2 39 l22 6 -25 16 c-14 10 -27 19
-29 21 -8 6 33 32 50 33 23 0 34 49 15 64 -10 8 -12 17 -5 34 5 13 13 21 17
18 5 -3 7 6 4 19 -3 18 0 25 11 25 9 0 18 -4 22 -10 3 -5 12 -7 21 -3 11 4 13
14 9 34 -5 21 -2 30 14 39 12 6 21 16 21 22 0 11 29 37 42 38 3 0 5 -14 3 -31z
m-408 -354 c8 -8 27 -15 42 -15 22 0 29 -7 40 -35 7 -19 19 -35 27 -35 18 0
18 15 -1 34 -19 19 -19 32 1 40 26 10 36 -4 30 -43 -7 -41 0 -57 29 -62 11 -3
21 -13 23 -24 2 -11 14 -28 25 -38 16 -13 18 -20 9 -24 -8 -3 -10 -9 -4 -16
13 -17 22 -98 11 -91 -15 9 -39 -16 -39 -40 0 -25 17 -46 38 -46 20 0 41 -25
56 -68 17 -48 12 -58 -40 -66 -52 -9 -75 11 -44 39 24 22 26 48 4 66 -15 12
-19 11 -32 -9 -19 -29 -27 -28 -42 8 -11 27 -10 32 11 49 22 18 22 20 9 60 -7
22 -17 41 -22 41 -4 0 -8 11 -8 24 0 35 -10 56 -27 56 -14 0 -14 -33 2 -72 4
-11 3 -18 -4 -18 -7 0 -9 -10 -5 -26 6 -25 5 -26 -20 -22 -30 6 -30 6 -11 -47
18 -51 19 -75 1 -75 -22 0 -41 83 -27 121 14 41 14 39 -9 39 -22 0 -23 1 -14
24 3 9 17 16 30 16 21 0 23 3 13 18 -9 14 -8 25 3 48 16 32 9 81 -11 76 -6 -1
-14 12 -18 29 -5 29 -8 31 -38 26 -30 -5 -33 -3 -38 21 -2 15 -8 36 -12 46 -7
17 -5 18 20 12 15 -4 34 -14 42 -21z m-83 -248 c12 13 26 -20 26 -62 0 -23 -5
-46 -12 -53 -13 -13 -19 -131 -7 -147 4 -5 9 -25 11 -44 2 -26 -1 -34 -14 -36
-14 -3 -17 4 -16 31 1 37 -30 82 -39 56 -3 -6 -9 -10 -13 -7 -11 7 -2 36 17
51 22 18 5 42 -43 60 -25 9 -43 22 -41 27 6 20 23 17 62 -8 44 -30 66 -21 35
15 -23 26 -27 49 -6 31 17 -14 50 -3 38 13 -5 6 -12 20 -14 31 -3 11 -9 29
-14 40 -7 17 -5 18 8 8 8 -7 18 -10 22 -6z m6373 -423 c20 -21 23 -33 19 -72
-3 -26 -8 -85 -11 -131 -6 -85 -24 -171 -36 -171 -4 0 -12 -15 -19 -32 -22
-54 -77 -102 -165 -142 -27 -12 -88 -21 -210 -31 -22 -2 -76 -8 -120 -14 -81
-11 -112 -13 -335 -31 -69 -6 -163 -14 -210 -19 -47 -5 -121 -12 -165 -15 -44
-3 -136 -10 -205 -16 -69 -5 -213 -12 -320 -15 -107 -3 -283 -8 -390 -12 -510
-20 -1628 0 -1646 29 -3 4 2 8 10 8 9 0 16 5 16 10 0 6 -4 10 -10 10 -17 0 2
94 22 109 11 7 17 20 14 28 -3 8 -3 20 1 26 8 13 11 24 20 67 4 26 10 30 37
30 24 0 28 3 16 10 -13 8 -11 11 8 16 12 4 22 13 22 20 0 8 5 14 11 14 5 0 8
4 5 9 -8 12 24 38 57 46 17 5 29 16 33 31 4 14 14 24 24 24 11 0 22 5 25 10 4
6 10 8 15 5 5 -3 18 2 30 12 11 10 22 16 23 14 1 -2 13 2 27 9 14 8 31 13 39
11 7 -1 10 2 7 7 -3 5 1 15 9 22 10 9 15 9 15 1 0 -20 54 -12 68 10 11 17 16
18 29 8 12 -11 17 -11 27 2 8 12 27 15 81 13 90 -3 87 -2 80 -14 -3 -5 1 -10
9 -10 9 0 15 6 14 12 -3 15 105 12 110 -3 5 -14 42 -11 40 3 -2 6 5 14 14 16
12 2 16 -1 12 -11 -8 -21 38 -31 52 -12 17 23 93 20 114 -5 10 -12 21 -17 24
-12 3 6 25 9 48 8 24 -2 51 2 61 8 13 8 20 8 26 -3 5 -8 14 -10 22 -5 7 4 64
9 126 10 62 2 119 3 126 4 17 3 136 2 284 -2 51 -2 93 -1 93 2 0 3 37 6 83 7
45 0 163 3 262 7 99 3 215 6 258 8 42 1 77 4 77 8 0 9 116 6 159 -4 29 -7 33
-6 28 8 -4 10 -1 16 8 16 8 0 15 -7 15 -15 0 -8 5 -15 11 -15 5 0 7 5 4 10 -3
6 2 13 11 17 10 4 19 2 22 -5 2 -7 8 -9 13 -6 5 3 44 8 86 11 41 2 85 8 97 13
11 4 31 4 43 -1 12 -4 24 -5 27 -1 3 5 40 9 82 11 43 1 84 7 90 12 9 7 19 7
33 0 23 -13 62 -15 60 -3 -3 17 3 19 35 12 24 -5 41 -3 55 6 11 8 22 10 25 5
7 -10 57 -8 75 3 6 4 18 3 26 -4 10 -9 21 -7 46 6 26 13 37 14 52 5 15 -10 23
-9 40 3 29 20 26 20 54 -10z m-5887 -459 c0 -8 -9 -20 -20 -27 -24 -15 -25
-26 -4 -49 12 -13 25 -16 45 -12 24 5 29 2 29 -15 0 -11 4 -22 10 -24 5 -1 7
-13 3 -26 -5 -19 -10 -22 -34 -17 -40 9 -66 -9 -74 -51 -5 -29 -2 -40 14 -56
25 -22 28 -50 6 -42 -8 4 -15 13 -15 21 0 10 -6 12 -22 7 -30 -9 -32 -10 -24
-29 4 -11 13 -14 32 -9 24 6 25 5 16 -13 -8 -14 -7 -26 2 -44 l13 -25 -44 14
c-44 15 -45 16 -38 49 5 27 2 38 -12 49 -35 26 -50 17 -56 -32 -5 -47 -24 -71
-42 -53 -6 6 -6 15 1 27 8 12 8 22 0 35 -9 16 -7 22 12 34 12 9 22 22 22 29 0
19 5 18 48 -11 27 -18 38 -21 44 -12 11 17 10 39 -2 32 -5 -3 -10 0 -10 8 0
14 -22 29 -45 31 -9 1 -11 9 -6 36 2 18 31 10 31 -8 0 -11 9 -27 19 -36 18
-16 20 -16 35 6 21 29 20 48 -1 49 -14 0 -14 2 3 9 33 13 35 24 14 65 -15 29
-17 41 -8 46 9 6 8 13 -5 27 -25 27 -21 32 23 32 29 0 40 -4 40 -15z m6500
-430 c9 -16 22 -25 37 -25 l24 0 -26 -35 c-23 -29 -29 -32 -45 -22 -24 14 -29
9 -32 -31 -2 -25 -7 -32 -23 -32 -12 0 -26 -5 -32 -11 -7 -7 -14 -2 -21 19
-11 33 -7 43 14 35 16 -6 20 32 4 42 -17 11 -11 25 14 35 14 5 30 18 36 30 14
27 34 25 50 -5z m-361 -199 c8 -10 9 -16 1 -21 -17 -10 -11 -35 8 -35 16 0 58
-68 48 -77 -2 -2 -23 7 -48 20 -44 23 -45 23 -78 6 -47 -26 -57 -37 -37 -45 9
-3 17 -10 17 -15 0 -12 -28 -11 -43 1 -7 6 -21 17 -31 24 -29 20 -13 42 34 50
35 5 40 9 30 21 -15 18 2 50 38 69 34 19 47 19 61 2z"/>
<path d="M3400 3678 c0 -3 -9 -4 -20 -1 -12 3 -20 0 -20 -7 0 -10 -3 -10 -15
0 -10 8 -19 9 -27 3 -18 -13 -68 -15 -68 -3 0 6 -11 10 -25 10 -14 0 -25 -5
-25 -11 0 -5 5 -7 10 -4 6 3 10 0 10 -7 0 -8 -13 -15 -31 -16 -18 -2 -28 2
-24 8 4 6 -9 9 -35 8 -22 -1 -43 -4 -45 -8 -2 -4 -19 -5 -37 -3 -39 4 -38 4
-106 -3 -59 -7 -63 -18 -14 -46 20 -11 34 -14 38 -7 3 6 17 8 29 5 13 -3 26
-2 29 3 3 5 22 5 43 1 21 -4 61 -7 88 -6 55 3 145 -12 145 -23 0 -3 -8 -18
-17 -31 -49 -70 -69 -764 -27 -933 l6 -28 -153 7 c-85 4 -172 10 -195 14 -22
4 -51 3 -64 -2 -12 -4 -28 -5 -34 0 -6 4 -46 7 -89 6 -43 -1 -80 2 -82 6 -5 8
-173 5 -182 -3 -3 -4 -11 -2 -18 3 -7 6 -24 6 -41 1 -16 -4 -41 -7 -56 -7 -16
1 -28 -1 -28 -4 0 -8 100 -30 135 -30 17 0 44 -4 62 -9 17 -5 80 -14 140 -20
59 -6 140 -14 178 -18 39 -4 91 -7 118 -7 26 -1 47 -4 47 -8 0 -4 8 -7 18 -6
108 3 290 -6 300 -15 10 -8 16 -7 22 2 4 8 12 11 17 8 5 -3 30 -1 57 5 36 7
55 7 75 -2 34 -16 148 -22 541 -27 544 -8 858 -5 866 9 3 5 15 6 27 2 36 -12
118 -5 134 11 19 19 28 19 48 -2 12 -12 19 -13 24 -4 4 6 14 9 23 6 8 -3 27
-1 42 5 21 7 32 7 42 -1 8 -6 23 -9 34 -6 11 3 23 1 26 -4 3 -5 13 -9 22 -9
15 0 15 2 2 10 -10 7 -11 12 -4 18 6 4 13 15 17 25 4 10 15 17 24 16 50 -5 50
-5 50 109 0 59 5 145 10 192 6 49 6 98 1 117 -5 18 -5 49 1 72 5 23 5 41 1 41
-5 0 -7 32 -4 72 3 51 0 74 -8 80 -7 4 -8 8 -3 8 15 0 4 248 -12 290 -3 8 -5
27 -4 43 3 32 -11 35 -36 8 -20 -21 -73 -18 -73 4 0 9 -8 11 -22 7 -15 -4 -19
-2 -13 8 4 7 2 16 -6 21 -19 12 -31 11 -23 -2 4 -7 0 -9 -12 -6 -32 10 -109
11 -123 3 -8 -5 -16 -4 -21 3 -4 8 -17 10 -33 5 -17 -4 -27 -2 -27 5 0 6 -7
11 -15 11 -8 0 -15 -4 -15 -8 0 -5 -13 -7 -30 -4 -16 2 -28 7 -25 11 6 10 -28
10 -41 0 -17 -14 -234 -6 -234 9 0 6 -4 12 -9 12 -5 0 -11 -6 -14 -12 -3 -9
-13 -5 -31 11 -14 14 -26 19 -26 13 0 -18 -37 -14 -44 4 -5 13 -9 14 -22 3
-22 -18 -64 -20 -71 -3 -7 19 -63 19 -63 0 0 -22 -16 -28 -32 -13 -20 20 -51
29 -58 17 -4 -6 -17 -7 -36 -1 -34 10 -124 3 -140 -10 -8 -6 -13 -5 -17 3 -3
10 -41 13 -156 11 -83 -1 -155 -4 -161 -8 -5 -3 -16 -3 -22 2 -18 11 -92 12
-99 0 -4 -6 -12 -6 -20 -1 -16 10 -219 12 -219 2z"/>
<path d="M5698 3643 c-13 -15 -43 -75 -103 -208 -35 -77 -66 -167 -63 -183 6
-30 49 -40 207 -46 150 -7 154 -6 177 15 25 23 30 48 16 65 -5 5 -15 25 -22
44 -7 19 -26 63 -42 97 -15 34 -28 66 -28 70 0 4 -11 31 -25 58 -13 28 -25 55
-25 60 0 11 -51 45 -67 45 -6 0 -17 -8 -25 -17z"/>
<path d="M5562 2940 c-35 -14 -42 -48 -21 -95 43 -96 69 -158 69 -167 0 -12
76 -166 91 -184 15 -18 46 -18 64 0 17 17 135 278 166 369 12 34 11 39 -9 59
-20 20 -32 22 -179 24 -87 2 -168 -1 -181 -6z"/>
<path d="M3470 2390 c0 -6 -10 -10 -21 -10 -51 0 -142 -44 -194 -94 -83 -79
-85 -147 -6 -204 133 -97 416 2 447 154 12 61 -42 122 -126 143 -67 17 -100
21 -100 11z"/>
<path d="M4214 2360 c-80 -21 -132 -52 -175 -106 -23 -30 -29 -47 -29 -87 0
-44 4 -53 35 -83 41 -38 90 -49 198 -42 146 10 267 101 267 201 -1 57 -31 92
-103 117 -69 24 -101 24 -193 0z"/>
<path d="M5050 2355 c-30 -7 -64 -16 -75 -21 -40 -16 -105 -66 -126 -95 -23
-33 -37 -107 -23 -118 5 -3 17 -18 27 -33 39 -62 178 -85 287 -48 73 24 104
42 138 78 43 45 55 71 54 120 -1 40 -6 51 -34 74 -57 48 -153 64 -248 43z"/>
<path d="M6972 3022 c-22 -17 -56 -71 -49 -78 2 -2 19 1 38 6 48 14 54 13 36
-8 -21 -23 -13 -54 18 -68 19 -9 27 -9 36 2 12 15 7 18 -26 14 -20 -2 -20 -2
-1 18 27 31 56 10 49 -34 -5 -30 -3 -32 16 -27 29 7 52 -23 45 -58 -3 -18 0
-28 10 -32 25 -10 44 24 44 77 -1 56 -24 88 -57 79 -14 -4 -21 -1 -21 9 0 33
-68 66 -72 36 0 -7 -4 7 -7 32 -7 51 -23 60 -59 32z"/>
<path d="M6956 2821 c-12 -13 -14 -21 -6 -26 8 -5 5 -11 -7 -20 -10 -7 -22
-11 -27 -8 -5 4 -14 -1 -20 -9 -12 -16 -16 -18 -46 -18 -13 0 -20 -7 -20 -20
0 -16 7 -20 36 -20 31 0 35 -2 24 -15 -7 -8 -16 -13 -20 -10 -15 9 -41 -7 -35
-23 3 -8 1 -20 -5 -27 -7 -9 -6 -16 5 -25 12 -10 16 -8 24 13 5 13 21 33 34
44 19 15 23 23 15 37 -14 25 9 49 40 41 28 -7 52 9 52 35 0 29 27 32 34 4 8
-31 36 -31 64 1 29 34 28 39 -14 54 -32 12 -38 11 -46 -3 -8 -15 -11 -15 -24
-1 -20 20 -37 19 -58 -4z"/>
<path d="M6992 1618 c-7 -7 -12 -15 -12 -19 0 -4 -5 -20 -11 -36 l-11 -28 -15
30 -16 29 -15 -22 c-8 -13 -25 -22 -39 -22 -19 0 -24 -4 -19 -16 3 -9 6 -24 6
-35 0 -11 7 -19 16 -19 12 0 15 -6 11 -20 -5 -20 -2 -21 51 -18 l57 3 15 45
c8 25 19 48 24 51 5 4 5 15 1 25 -4 11 -8 28 -9 38 -1 24 -18 30 -34 14z"/>
<path d="M6780 1341 c0 -5 7 -14 15 -21 19 -16 19 -30 1 -30 -8 0 -18 -16 -23
-37 -6 -28 -14 -38 -28 -38 -11 0 -23 -4 -27 -10 -16 -21 -18 5 -3 29 10 15
14 33 10 46 -5 17 -10 18 -27 9 -12 -6 -18 -18 -15 -28 2 -10 -2 -26 -9 -36
-26 -35 -17 -43 41 -41 30 1 55 0 55 -2 0 -2 -16 -18 -35 -34 -19 -17 -32 -35
-29 -39 2 -4 -6 -15 -18 -23 -18 -13 -21 -20 -12 -34 15 -23 27 -22 39 5 5 12
20 27 34 33 19 9 22 13 11 20 -10 6 -7 14 16 34 16 14 32 26 37 26 18 0 5 30
-14 30 -24 0 -21 19 6 34 10 6 27 18 37 27 17 14 17 17 3 29 -8 7 -15 17 -15
23 0 10 -30 36 -42 37 -5 0 -8 -4 -8 -9z"/>
<path d="M6454 594 c9 -23 -3 -37 -20 -23 -11 9 -18 8 -32 -5 -10 -9 -24 -16
-30 -16 -7 0 -12 -11 -12 -25 0 -32 6 -32 23 1 12 23 14 24 27 9 12 -15 12
-19 -3 -30 -10 -7 -15 -19 -11 -29 4 -12 0 -16 -14 -16 -16 0 -23 -8 -28 -34
-10 -57 13 -71 70 -41 32 17 66 20 66 5 0 -14 13 -13 35 3 17 13 17 15 0 55
-16 36 -20 39 -39 29 -12 -7 -31 -21 -44 -32 l-23 -20 3 41 c3 26 14 53 31 74
30 35 36 70 11 70 -11 0 -14 -5 -10 -16z"/>
<path d="M6304 549 c-3 -6 -15 -9 -25 -6 -15 4 -18 -2 -21 -37 -3 -37 -6 -41
-31 -44 -43 -5 -62 5 -47 23 10 12 9 15 -8 15 -11 0 -23 -8 -27 -17 -6 -17 -7
-17 -19 0 -8 10 -20 15 -30 11 -18 -7 -22 -54 -4 -54 6 0 8 -3 4 -7 -4 -4 -15
-8 -24 -8 -12 0 -17 -9 -17 -30 0 -23 4 -30 20 -30 15 0 22 10 29 38 9 34 13
37 43 37 19 0 50 -7 70 -15 40 -17 53 -10 53 33 0 15 6 22 20 22 11 0 20 -7
20 -15 0 -8 7 -15 15 -15 8 0 15 9 15 20 0 11 -5 20 -11 20 -8 0 -10 12 -6 35
6 34 -5 47 -19 24z"/>
<path d="M1422 468 c-19 -19 -14 -62 8 -81 11 -9 20 -26 20 -37 0 -12 7 -34
15 -50 15 -29 14 -30 -10 -36 -30 -8 -31 -22 -4 -68 19 -32 19 -36 4 -59 -15
-24 -15 -25 9 -29 26 -5 46 7 46 29 0 7 -6 14 -12 14 -7 1 0 4 16 8 28 6 50
31 27 31 -6 0 -19 8 -28 17 -14 14 -18 34 -17 96 l1 77 -33 21 c-38 23 -42 34
-18 47 9 5 14 14 10 21 -9 14 -19 14 -34 -1z"/>
<path d="M1582 316 c-6 -14 -21 -26 -34 -28 -20 -3 -23 -8 -20 -38 4 -42 17
-59 33 -43 8 8 8 17 -1 33 -15 29 -10 32 39 24 39 -6 41 -8 41 -40 0 -39 14
-43 48 -15 29 25 28 33 -2 25 -13 -3 -27 -1 -30 5 -8 12 26 32 60 36 20 2 23
-1 19 -16 -8 -23 21 -37 38 -20 18 18 36 13 43 -14 7 -30 39 -33 54 -6 22 43
17 47 -70 54 -26 2 -30 5 -26 23 6 24 -18 52 -29 34 -4 -7 -13 -7 -28 1 -18 9
-20 9 -9 -2 18 -20 15 -27 -22 -44 -36 -17 -56 -14 -56 9 0 7 -8 20 -18 30
-18 15 -19 15 -30 -8z"/>
<path d="M5918 293 c-55 -59 -125 -66 -111 -13 4 15 0 20 -15 20 -22 0 -38
-26 -20 -32 14 -5 -43 -68 -61 -68 -16 0 -14 16 5 35 19 18 18 20 -17 28 -29
7 -43 -1 -30 -17 5 -6 11 -27 13 -46 2 -25 8 -35 20 -35 9 0 20 -4 24 -8 14
-14 32 -7 38 16 7 26 55 52 70 37 5 -5 23 -10 38 -10 24 0 28 4 28 29 0 23 5
30 23 33 14 2 23 11 25 26 4 26 -8 28 -30 5z"/>
<path d="M5083 165 c-33 -21 -55 -44 -59 -60 -8 -32 -41 -34 -46 -3 -2 12 -9
23 -16 26 -9 3 -12 -3 -10 -15 1 -10 -8 -32 -20 -48 -23 -29 -24 -29 -38 -11
-8 11 -14 23 -14 27 0 8 -47 18 -54 12 -3 -3 -1 -15 3 -27 12 -32 3 -47 -20
-36 -10 6 -28 15 -39 20 -27 13 -56 13 -80 -2 -16 -10 -24 -10 -40 0 -28 17
-44 15 -65 -8 -25 -27 -38 -25 -31 5 5 21 3 25 -18 25 -15 0 -25 -7 -29 -20
-5 -21 -41 -28 -52 -10 -3 6 1 10 9 10 9 0 16 5 16 10 0 6 -12 10 -26 10 -14
0 -32 7 -40 15 -25 24 -37 18 -30 -15 6 -31 -2 -38 -20 -20 -13 13 -44 2 -44
-15 0 -33 26 -36 287 -34 155 1 261 6 264 12 5 6 18 6 39 -2 39 -13 83 -15 76
-2 -3 5 4 11 17 15 35 9 47 7 47 -9 0 -12 17 -15 91 -15 80 0 90 2 79 15 -7 8
-21 15 -31 15 -11 0 -19 5 -19 10 0 6 7 10 15 10 8 0 15 9 15 20 0 18 -5 20
-49 18 -46 -3 -48 -4 -40 -26 12 -32 12 -32 -20 -32 -28 0 -61 22 -61 40 0 5
11 17 24 25 13 9 29 29 36 45 11 26 18 30 52 30 35 0 39 2 28 15 -17 21 -28
19 -87 -20z"/>
<path d="M1543 134 c-4 -10 1 -22 10 -29 10 -7 17 -20 17 -29 0 -9 12 -21 26
-27 15 -5 24 -12 20 -16 -3 -3 -1 -12 5 -20 15 -17 135 -18 172 0 21 10 25 17
20 37 -3 14 -8 27 -10 30 -7 7 -33 -32 -28 -40 3 -5 -1 -10 -9 -13 -11 -4 -14
3 -13 31 2 31 -2 38 -19 40 -12 2 -28 -4 -37 -12 -8 -8 -26 -18 -41 -22 -20
-5 -26 -3 -26 11 0 20 -50 75 -68 75 -7 0 -15 -7 -19 -16z"/>
<path d="M3726 115 c5 -11 -1 -15 -24 -15 -19 0 -35 -7 -41 -17 -9 -17 -11
-17 -38 -1 -27 15 -89 18 -112 4 -5 -4 -12 -20 -16 -36 -4 -17 -13 -30 -20
-30 -8 0 -17 -4 -20 -10 -4 -6 32 -10 99 -10 104 0 106 0 103 23 -2 19 3 22
36 25 32 3 37 0 37 -17 0 -22 14 -28 25 -10 4 6 -3 21 -15 34 l-23 24 27 10
c29 12 34 26 10 35 -25 10 -34 7 -28 -9z"/>
<path d="M4171 116 c-7 -8 -26 -14 -43 -14 -16 1 -33 -5 -38 -12 -10 -16 -30
-4 -30 17 0 10 -6 13 -16 9 -9 -3 -18 -6 -20 -6 -2 0 -4 -6 -4 -14 0 -8 -7
-16 -15 -20 -8 -3 -15 -15 -15 -26 0 -15 -7 -20 -26 -20 -27 0 -27 -1 -7 48 7
17 -22 15 -37 -3 -16 -19 -30 -19 -30 -1 0 8 -7 17 -16 20 -23 9 -24 8 -24
-13 0 -13 -13 -24 -41 -35 -36 -15 -39 -18 -25 -32 13 -13 54 -15 276 -13 236
1 280 5 250 24 -6 4 -8 10 -5 15 9 15 -21 18 -46 4 -33 -19 -59 -18 -33 0 15
11 16 17 7 27 -19 20 -46 3 -39 -25 7 -30 -6 -40 -42 -31 l-27 7 24 9 c20 8
22 14 17 40 -3 19 -2 28 4 24 6 -4 13 1 16 10 9 22 -1 29 -15 11z"/>
</g>
</svg>
