<?xml version="1.0" standalone="no"?>
<!DOCTYPE svg PUBLIC "-//W3C//DTD SVG 20010904//EN"
 "http://www.w3.org/TR/2001/REC-SVG-20010904/DTD/svg10.dtd">
<svg version="1.0" xmlns="http://www.w3.org/2000/svg"
 width="500.000000pt" height="350.000000pt" viewBox="0 0 500.000000 350.000000"
 preserveAspectRatio="xMidYMid meet">

<g transform="translate(0.000000,350.000000) scale(0.100000,-0.100000)"
fill="#000000" stroke="none">
<path d="M1268 3428 c7 -7 8 -16 3 -22 -5 -6 -36 -69 -69 -141 -57 -123 -103
-220 -229 -485 -31 -63 -62 -133 -69 -155 l-14 -40 5 38 c4 21 8 46 11 55 3 9
-2 4 -11 -11 -30 -51 -31 -118 -2 -179 27 -60 65 -94 143 -130 49 -23 51 -23
513 -23 l465 0 133 280 c73 154 156 330 185 390 46 97 53 119 56 185 3 69 1
79 -27 122 -34 54 -91 91 -176 112 -49 13 -133 16 -494 16 -333 0 -432 -3
-423 -12z m902 -95 c74 -34 103 -73 108 -142 3 -48 -1 -69 -23 -120 -64 -142
-199 -210 -430 -215 l-120 -2 -60 -119 c-49 -99 -71 -132 -130 -190 -38 -39
-95 -84 -125 -100 -51 -28 -62 -30 -160 -30 -94 0 -110 3 -157 27 -93 49 -124
117 -99 214 46 174 213 264 495 264 l78 0 26 58 c14 31 49 105 77 164 33 69
50 118 48 135 -3 26 -7 28 -51 31 -39 3 -48 6 -43 18 3 9 6 20 6 26 0 6 91 8
258 6 236 -3 261 -5 302 -25z"/>
<path d="M1923 3284 c-20 -17 -160 -286 -177 -341 -7 -22 -5 -23 56 -23 144 0
270 116 285 264 5 45 2 56 -19 80 -32 38 -111 48 -145 20z"/>
<path d="M1390 2851 c-50 -11 -110 -44 -146 -83 -65 -68 -107 -193 -84 -248
14 -33 31 -41 89 -42 69 -1 94 27 182 204 43 88 79 164 79 169 0 10 -68 10
-120 0z"/>
<path d="M1240 3399 c-7 -11 -10 -23 -7 -25 2 -2 9 7 15 21 14 30 7 33 -8 4z"/>
<path d="M1210 3334 c-6 -14 -15 -35 -21 -47 -8 -14 -8 -19 -1 -12 13 12 45
85 37 85 -3 0 -10 -12 -15 -26z"/>
<path d="M1167 3248 c-3 -7 -12 -30 -21 -50 -9 -21 -14 -38 -11 -38 8 0 47 92
41 97 -2 2 -6 -2 -9 -9z"/>
<path d="M1032 2958 c-51 -105 -90 -193 -87 -196 2 -3 13 15 24 39 10 24 51
111 90 193 39 82 70 151 68 152 -2 2 -45 -82 -95 -188z"/>
<path d="M926 2733 c-6 -14 -5 -15 5 -6 7 7 10 15 7 18 -3 3 -9 -2 -12 -12z"/>
<path d="M100 2060 c0 -83 1 -90 20 -90 16 0 20 7 20 35 0 31 3 35 26 35 41 0
64 18 64 50 0 42 -23 60 -81 60 l-49 0 0 -90z m85 35 c0 -13 -8 -21 -22 -23
-17 -3 -23 2 -23 16 0 10 3 22 7 26 13 13 38 1 38 -19z"/>
<path d="M480 2060 c0 -83 1 -90 20 -90 16 0 20 7 20 35 0 19 5 35 10 35 6 0
18 -16 27 -35 12 -25 23 -35 40 -35 l23 0 -20 39 c-17 34 -18 41 -5 51 8 7 15
22 15 35 0 35 -31 55 -83 55 l-47 0 0 -90z m79 51 c19 -12 6 -41 -19 -41 -15
0 -20 7 -20 25 0 26 14 31 39 16z"/>
<path d="M894 2142 c-38 -25 -45 -105 -13 -146 46 -58 129 -17 129 64 0 51
-32 90 -73 90 -18 0 -37 -4 -43 -8z m70 -53 c18 -52 -17 -106 -50 -78 -17 14
-18 81 -2 97 19 19 41 10 52 -19z"/>
<path d="M1260 2060 l0 -91 58 3 c43 2 57 7 57 18 0 10 -12 16 -37 18 l-38 3
0 70 c0 62 -2 69 -20 69 -19 0 -20 -7 -20 -90z"/>
<path d="M1625 2137 c-3 -7 -5 -47 -3 -88 3 -68 5 -74 26 -77 22 -3 23 -2 20
85 -3 74 -6 88 -21 91 -9 2 -20 -3 -22 -11z"/>
<path d="M1937 2143 c-4 -3 -7 -44 -7 -90 0 -76 2 -83 20 -83 16 0 20 7 20 35
0 32 3 35 28 35 16 0 36 6 46 13 24 17 24 67 0 84 -18 13 -96 18 -107 6z m82
-37 c9 -10 8 -16 -4 -26 -17 -14 -45 -7 -45 13 0 29 30 37 49 13z"/>
<path d="M2290 2060 c0 -83 1 -90 20 -90 16 0 20 7 20 35 0 32 2 35 30 35 28
0 30 -3 30 -35 0 -28 4 -35 20 -35 19 0 20 7 20 90 0 83 -1 90 -20 90 -16 0
-20 -7 -20 -35 0 -32 -2 -35 -30 -35 -28 0 -30 3 -30 35 0 28 -4 35 -20 35
-19 0 -20 -7 -20 -90z"/>
<path d="M2700 2060 c0 -83 1 -90 20 -90 19 0 20 7 20 90 0 83 -1 90 -20 90
-19 0 -20 -7 -20 -90z"/>
<path d="M3014 2105 l27 -45 -27 -45 c-25 -44 -26 -45 -5 -45 13 0 26 10 33
25 6 14 14 25 18 25 4 0 12 -11 18 -25 7 -15 20 -25 33 -25 20 0 20 1 -5 46
l-26 46 20 38 c24 47 24 50 5 50 -8 0 -20 -9 -27 -20 -7 -11 -16 -20 -20 -20
-4 0 -10 9 -13 20 -4 13 -15 20 -32 20 l-25 0 26 -45z"/>
</g>
</svg>
